<?xml version="1.0" standalone="no"?>
<!DOCTYPE svg PUBLIC "-//W3C//DTD SVG 20010904//EN"
 "http://www.w3.org/TR/2001/REC-SVG-20010904/DTD/svg10.dtd">
<svg version="1.0" xmlns="http://www.w3.org/2000/svg" xmlns:xlink="http://www.w3.org/1999/xlink"
 width="1710.000000pt" height="2014.000000pt" viewBox="0 0 1710.000000 2014.000000"
 preserveAspectRatio="xMidYMid meet">
<metadata>
Created by potrace 1.13, written by Peter Selinger 2001-2015
</metadata>
<g id="gg" transform="translate(0.000000,2014.000000) scale(0.100000,-0.100000)"
fill="#000000" stroke="none">
<path id="stairs5" d="M3243 19355 c-13 -13 -23 -31 -23 -40 0 -8 -7 -15 -15 -15 -20 0 -85
-65 -85 -85 0 -8 -7 -15 -16 -15 -18 0 -44 -24 -44 -40 0 -7 -13 -25 -30 -40
-16 -15 -30 -33 -30 -39 0 -7 -45 -56 -100 -111 -55 -55 -100 -106 -100 -115
0 -8 -9 -15 -20 -15 -11 0 -20 -7 -20 -16 0 -8 -27 -42 -60 -74 -33 -32 -60
-64 -60 -70 0 -17 -26 -40 -44 -40 -9 0 -16 -7 -16 -16 0 -20 -24 -44 -44 -44
-9 0 -16 -7 -16 -16 0 -9 -13 -29 -30 -44 -16 -15 -30 -33 -30 -40 0 -16 -26
-40 -44 -40 -9 0 -16 -8 -16 -20 0 -12 -7 -20 -16 -20 -25 0 -44 -26 -44 -60
0 -32 19 -60 40 -60 7 0 25 -13 40 -30 15 -16 33 -30 40 -30 6 0 34 -23 61
-51 l50 -51 18 21 c10 12 26 21 35 21 9 0 16 7 16 16 0 9 14 29 30 44 17 15
30 33 30 40 0 16 26 40 44 40 9 0 16 7 16 16 0 20 24 44 44 44 9 0 16 7 16 16
0 8 18 33 40 54 22 21 40 44 40 50 0 6 23 33 50 60 28 27 50 54 50 60 0 17 26
40 44 40 9 0 16 7 16 16 0 8 27 42 60 74 33 32 60 66 60 74 0 9 7 16 16 16 20
0 44 24 44 44 0 9 7 16 16 16 20 0 44 24 44 44 0 9 8 16 20 16 11 0 20 7 20
16 0 8 27 42 60 74 33 32 60 66 60 74 0 9 9 16 20 16 33 0 25 45 -15 85 -19
19 -41 35 -50 35 -8 0 -15 7 -15 15 0 19 -105 125 -122 124 -7 0 -23 -11 -35
-24z"/>
<path id="277" d="M3563 19075 c-13 -13 -23 -29 -23 -36 0 -6 -13 -24 -30 -39 -16 -15
-30 -35 -30 -44 0 -9 -7 -16 -16 -16 -20 0 -44 -24 -44 -44 0 -9 -7 -16 -16
-16 -20 0 -44 -24 -44 -44 0 -9 -7 -16 -16 -16 -18 0 -44 -23 -44 -40 0 -17
-26 -40 -44 -40 -9 0 -16 -7 -16 -16 0 -20 -24 -44 -44 -44 -9 0 -16 -8 -16
-18 0 -10 -9 -24 -20 -32 -11 -8 -20 -21 -20 -28 0 -7 -18 -31 -40 -52 -22
-21 -40 -46 -40 -54 0 -9 -7 -16 -16 -16 -18 0 -44 -23 -44 -40 0 -17 -26 -40
-44 -40 -11 0 -16 -9 -16 -30 0 -27 -3 -30 -30 -30 -27 0 -30 -3 -30 -30 0
-21 -5 -30 -16 -30 -20 0 -44 -24 -44 -44 0 -9 -7 -16 -16 -16 -18 0 -44 -23
-44 -40 0 -6 -22 -33 -50 -60 -53 -51 -64 -80 -30 -80 12 0 20 -7 20 -16 0
-20 24 -44 44 -44 9 0 16 -7 16 -16 0 -20 24 -44 44 -44 9 0 16 -7 16 -16 0
-22 25 -44 49 -44 25 0 191 -161 191 -185 0 -8 8 -15 18 -15 10 0 24 -9 32
-20 8 -11 20 -20 28 -20 18 0 42 -25 42 -44 0 -9 7 -16 16 -16 9 0 29 -13 44
-30 15 -16 35 -30 44 -30 9 0 16 -7 16 -16 0 -20 24 -44 44 -44 9 0 16 -4 16
-10 0 -5 7 -10 15 -10 19 0 65 44 65 62 0 8 9 20 20 28 11 8 20 22 20 32 0 10
7 18 16 18 18 0 44 23 44 40 0 6 18 29 40 50 22 21 40 44 40 50 0 7 14 25 30
40 17 15 30 35 30 44 0 9 8 16 20 16 12 0 20 7 20 16 0 20 24 44 44 44 9 0 16
7 16 16 0 20 24 44 44 44 11 0 16 9 16 30 0 21 5 30 16 30 20 0 44 24 44 44 0
9 8 16 20 16 11 0 20 7 20 15 0 9 36 51 80 95 44 44 80 84 80 90 0 6 45 56
101 111 100 100 101 100 80 118 -12 10 -21 26 -21 35 0 11 -9 16 -30 16 -21 0
-30 5 -30 16 0 20 -24 44 -44 44 -9 0 -16 7 -16 16 0 20 -24 44 -44 44 -9 0
-16 8 -16 20 0 12 -7 20 -16 20 -9 0 -29 14 -44 30 -15 17 -33 30 -39 30 -7 0
-47 36 -91 80 -44 44 -86 80 -95 80 -8 0 -15 9 -15 20 0 12 -7 20 -16 20 -20
0 -44 24 -44 44 0 9 -7 16 -16 16 -20 0 -44 24 -44 44 0 9 -8 16 -18 16 -10 0
-24 9 -32 20 -18 25 -20 24 -47 -5z"/>
<path id="275" d="M4343 18355 c-24 -25 -43 -51 -43 -60 0 -8 -9 -15 -20 -15 -13 0 -20
-7 -20 -20 0 -12 -7 -20 -16 -20 -23 0 -44 -25 -44 -54 0 -22 -4 -26 -30 -26
-21 0 -30 -5 -30 -16 0 -20 -24 -44 -44 -44 -9 0 -16 -7 -16 -16 0 -9 -13 -29
-30 -44 -16 -15 -30 -35 -30 -44 0 -9 -7 -16 -16 -16 -20 0 -44 -24 -44 -44 0
-9 -8 -16 -20 -16 -12 0 -20 -7 -20 -16 0 -8 -18 -33 -40 -54 -22 -21 -40 -44
-40 -50 0 -7 -13 -25 -30 -40 -16 -15 -30 -35 -30 -44 0 -9 -7 -16 -15 -16
-20 0 -65 -45 -65 -65 0 -8 -9 -15 -20 -15 -12 0 -20 -7 -20 -16 0 -20 -24
-44 -44 -44 -11 0 -16 -9 -16 -30 0 -21 -5 -30 -16 -30 -18 0 -44 -23 -44 -40
0 -6 -18 -29 -40 -50 -22 -21 -40 -48 -40 -60 0 -23 21 -50 40 -50 6 0 51 -40
100 -90 49 -49 96 -90 105 -90 8 0 15 -9 15 -20 0 -12 7 -20 16 -20 9 0 29
-13 44 -30 15 -16 35 -30 44 -30 9 0 16 -7 16 -16 0 -20 24 -44 44 -44 9 0 16
-7 16 -16 0 -20 24 -44 44 -44 9 0 16 -7 16 -16 0 -18 23 -44 40 -44 17 0 40
-26 40 -44 0 -25 48 -19 75 9 14 13 25 29 25 36 0 6 14 24 30 39 17 15 30 33
30 40 0 16 26 40 44 40 9 0 16 7 16 16 0 20 24 44 44 44 9 0 16 7 16 16 0 18
23 44 40 44 16 0 40 26 40 42 0 8 9 20 20 28 11 8 20 22 20 32 0 10 7 18 16
18 20 0 44 24 44 44 0 9 7 16 16 16 18 0 44 23 44 40 0 17 26 40 44 40 9 0 16
7 16 16 0 8 23 37 50 64 28 27 50 54 50 60 0 6 18 29 40 50 22 21 40 44 40 50
0 17 26 40 44 40 9 0 16 7 16 16 0 20 24 44 44 44 9 0 16 7 16 16 0 9 14 29
30 44 17 15 30 35 30 44 0 9 8 16 20 16 11 0 20 7 20 15 0 18 -44 65 -61 65
-6 0 -24 14 -39 30 -15 17 -35 30 -44 30 -9 0 -16 7 -16 16 0 20 -24 44 -44
44 -9 0 -16 7 -16 16 0 20 -24 44 -44 44 -9 0 -16 8 -16 20 0 12 -7 20 -16 20
-9 0 -29 14 -44 30 -15 17 -35 30 -44 30 -9 0 -16 7 -16 16 0 18 -23 44 -40
44 -6 0 -42 32 -80 70 -38 39 -76 70 -85 70 -8 0 -15 9 -15 20 0 28 -9 24 -57
-25z"/>
<path id="hall1" d="M2203 18195 c-24 -25 -43 -49 -43 -55 0 -17 -26 -40 -44 -40 -9 0
-16 -7 -16 -16 0 -20 -24 -44 -44 -44 -9 0 -16 -7 -16 -16 0 -20 -24 -44 -44
-44 -11 0 -16 -9 -16 -29 0 -16 -6 -32 -12 -35 -10 -5 -10 -7 0 -12 6 -3 12
-14 12 -25 0 -14 7 -19 30 -19 21 0 30 -5 30 -16 0 -20 24 -44 44 -44 9 0 16
-7 16 -16 0 -18 23 -44 40 -44 6 0 42 -31 80 -70 38 -38 74 -70 80 -70 6 0 33
-22 60 -50 27 -27 54 -50 60 -50 17 0 40 -26 40 -44 0 -9 7 -16 16 -16 20 0
44 -24 44 -44 0 -9 7 -16 16 -16 20 0 44 -24 44 -44 0 -11 9 -16 30 -16 21 0
30 -5 30 -16 0 -18 23 -44 40 -44 6 0 46 -36 90 -80 44 -44 84 -80 90 -80 17
0 40 -26 40 -44 0 -9 8 -16 20 -16 11 0 20 -4 20 -10 0 -5 7 -10 16 -10 20 0
44 -24 44 -44 0 -9 7 -16 16 -16 20 0 44 -24 44 -44 0 -9 7 -16 16 -16 20 0
44 -24 44 -44 0 -11 9 -16 30 -16 21 0 30 -5 30 -16 0 -20 24 -44 44 -44 9 0
16 -8 16 -20 0 -13 7 -20 20 -20 11 0 20 -4 20 -10 0 -5 7 -10 15 -10 20 0 65
-45 65 -65 0 -8 9 -15 20 -15 13 0 20 -7 20 -20 0 -12 7 -20 16 -20 8 0 33
-18 54 -40 21 -22 46 -40 54 -40 9 0 16 -8 16 -20 0 -12 7 -20 16 -20 20 0 44
-24 44 -44 0 -9 7 -16 16 -16 20 0 44 -24 44 -44 0 -9 7 -16 16 -16 20 0 44
-24 44 -44 0 -9 7 -16 16 -16 9 0 29 -13 44 -30 15 -16 33 -30 39 -30 17 0
161 -147 161 -165 0 -8 8 -15 18 -15 10 0 24 -9 32 -20 8 -11 21 -20 30 -20 9
0 22 -9 30 -20 8 -11 22 -20 32 -20 11 0 18 -7 18 -20 0 -12 7 -20 16 -20 20
0 44 -24 44 -44 0 -9 7 -16 16 -16 20 0 44 -24 44 -44 0 -9 7 -16 16 -16 9 0
29 -13 44 -30 15 -16 33 -30 39 -30 6 0 51 -40 100 -90 50 -49 96 -90 102 -90
6 0 24 -13 39 -30 15 -16 33 -30 40 -30 7 0 25 -13 40 -30 15 -16 35 -30 44
-30 9 0 16 -7 16 -16 0 -20 24 -44 44 -44 11 0 16 -9 16 -30 0 -27 3 -30 30
-30 21 0 30 -5 30 -16 0 -20 24 -44 44 -44 9 0 16 -7 16 -16 0 -18 23 -44 40
-44 6 0 51 -40 100 -90 49 -49 94 -90 101 -90 6 0 24 -13 39 -30 15 -16 33
-30 40 -30 16 0 40 -26 40 -44 0 -9 7 -16 16 -16 20 0 44 -24 44 -44 0 -11 9
-16 30 -16 21 0 30 -5 30 -16 0 -20 24 -44 44 -44 9 0 16 -8 16 -20 0 -11 7
-20 15 -20 9 0 56 -40 105 -90 49 -49 94 -90 100 -90 7 0 29 -18 50 -40 21
-22 44 -40 50 -40 17 0 40 -26 40 -44 0 -9 7 -16 16 -16 20 0 44 -24 44 -44 0
-9 7 -16 16 -16 20 0 44 -24 44 -44 0 -9 7 -16 16 -16 20 0 44 -24 44 -44 0
-11 9 -16 30 -16 21 0 30 -5 30 -16 0 -18 23 -44 40 -44 6 0 29 -18 50 -40 21
-22 45 -40 52 -40 7 0 20 -9 28 -20 8 -11 20 -20 28 -20 16 0 42 -24 42 -40 0
-17 26 -40 44 -40 9 0 16 -8 16 -20 0 -15 7 -20 26 -20 18 0 42 -18 84 -60 32
-33 64 -60 70 -60 16 0 80 -67 80 -85 0 -8 -4 -15 -10 -15 -5 0 -10 -12 -10
-26 0 -29 -21 -54 -44 -54 -9 0 -16 -8 -16 -20 0 -11 -4 -20 -10 -20 -5 0 -10
-9 -10 -20 0 -11 -4 -20 -10 -20 -5 0 -10 -9 -10 -20 0 -11 -4 -20 -10 -20 -5
0 -10 -22 -10 -50 0 -27 -4 -50 -10 -50 -5 0 -10 -13 -10 -30 0 -16 -4 -30
-10 -30 -5 0 -10 -9 -10 -20 0 -11 -4 -20 -10 -20 -5 0 -10 -22 -10 -50 0 -27
-4 -50 -10 -50 -5 0 -10 -13 -10 -30 0 -16 -4 -30 -10 -30 -5 0 -10 -9 -10
-20 0 -11 -4 -20 -10 -20 -5 0 -10 -18 -10 -40 0 -22 -4 -40 -10 -40 -5 0 -10
-13 -10 -30 0 -16 -4 -30 -10 -30 -5 0 -10 -9 -10 -20 0 -19 7 -20 99 -20 70
0 101 -4 105 -12 5 -10 7 -10 12 0 3 6 18 12 34 12 16 0 31 -6 34 -12 5 -10 7
-10 12 0 7 14 44 16 44 2 0 -5 18 -10 40 -10 22 0 40 5 40 10 0 6 9 10 20 10
11 0 20 -4 20 -10 0 -6 116 -10 329 -10 254 0 331 -3 335 -12 5 -10 7 -10 12
0 4 8 31 12 84 12 53 0 80 -4 84 -12 5 -10 7 -10 12 0 7 14 64 17 64 2 0 -15
29 -12 46 4 8 8 14 31 14 50 0 25 4 36 15 36 11 0 15 12 15 45 l0 45 425 0
425 0 0 25 c0 18 -5 25 -20 25 -11 0 -20 5 -20 10 0 6 -7 10 -16 10 -9 0 -29
14 -44 30 -17 18 -38 30 -54 30 -19 0 -26 5 -26 20 0 16 -7 20 -30 20 -16 0
-30 5 -30 10 0 6 -8 10 -18 10 -10 0 -24 9 -32 20 -8 11 -22 20 -32 20 -10 0
-18 5 -18 10 0 6 -9 10 -20 10 -11 0 -20 5 -20 10 0 6 -8 10 -18 10 -10 0 -24
9 -32 20 -8 11 -22 20 -32 20 -10 0 -18 5 -18 10 0 6 -13 10 -30 10 -23 0 -30
4 -30 20 0 15 -7 20 -28 20 -16 0 -34 8 -42 20 -8 11 -22 20 -32 20 -10 0 -18
5 -18 10 0 6 -7 10 -16 10 -9 0 -29 14 -44 30 -21 23 -37 30 -64 30 l-36 0 0
130 0 130 -40 0 c-22 0 -40 5 -40 10 0 6 -22 10 -50 10 -27 0 -50 5 -50 10 0
6 -40 10 -100 10 -60 0 -100 4 -100 10 0 6 -22 10 -50 10 -27 0 -50 5 -50 10
0 6 -18 10 -40 10 -22 0 -40 5 -40 10 0 6 -47 10 -120 10 -102 0 -120 2 -120
16 0 20 -24 44 -44 44 -9 0 -16 8 -16 20 0 13 -7 20 -20 20 -11 0 -20 5 -20
10 0 6 -9 10 -20 10 -13 0 -20 7 -20 20 0 11 -7 20 -15 20 -18 0 -65 44 -65
60 0 14 -46 60 -60 60 -6 0 -55 45 -110 100 -55 55 -104 100 -111 100 -6 0
-24 14 -39 30 -15 17 -35 30 -44 30 -11 0 -16 9 -16 30 0 21 -5 30 -16 30 -9
0 -29 14 -44 30 -15 17 -33 30 -39 30 -7 0 -52 41 -101 90 -49 50 -96 90 -105
90 -8 0 -15 9 -15 20 0 11 -7 20 -15 20 -9 0 -51 36 -95 80 -44 44 -86 80 -95
80 -8 0 -15 9 -15 20 0 12 -7 20 -16 20 -20 0 -44 24 -44 44 0 9 -7 16 -16 16
-9 0 -29 14 -44 30 -15 17 -35 30 -44 30 -9 0 -16 7 -16 16 0 18 -23 44 -40
44 -6 0 -38 27 -70 60 -32 33 -64 60 -70 60 -6 0 -42 32 -80 70 -38 39 -75 70
-82 70 -8 0 -20 9 -28 20 -8 11 -22 20 -32 20 -10 0 -18 7 -18 16 0 20 -24 44
-44 44 -9 0 -16 7 -16 16 0 20 -24 44 -44 44 -9 0 -16 8 -16 20 0 11 -7 20
-16 20 -8 0 -42 27 -74 60 -32 33 -64 60 -70 60 -16 0 -100 87 -100 105 0 8
-7 15 -16 15 -8 0 -37 23 -64 50 -27 28 -56 50 -64 50 -9 0 -16 7 -16 16 0 20
-24 44 -44 44 -9 0 -16 8 -16 20 0 12 -7 20 -16 20 -9 0 -29 14 -44 30 -15 17
-35 30 -44 30 -9 0 -16 7 -16 16 0 18 -23 44 -40 44 -17 0 -40 26 -40 44 0 9
-7 16 -16 16 -9 0 -29 14 -44 30 -15 17 -33 30 -39 30 -7 0 -52 41 -101 90
-49 50 -94 90 -100 90 -17 0 -40 26 -40 44 0 9 -7 16 -16 16 -9 0 -29 14 -44
30 -15 17 -35 30 -44 30 -9 0 -16 7 -16 16 0 20 -24 44 -44 44 -9 0 -16 8 -16
20 0 12 -7 20 -16 20 -8 0 -33 18 -54 40 -21 22 -46 40 -54 40 -9 0 -16 8 -16
20 0 11 -7 20 -16 20 -8 0 -37 23 -64 50 -27 28 -56 50 -64 50 -9 0 -16 9 -16
20 0 12 -7 20 -16 20 -20 0 -44 24 -44 44 0 9 -7 16 -16 16 -20 0 -44 24 -44
44 0 9 -7 16 -16 16 -9 0 -29 14 -44 30 -15 17 -35 30 -44 30 -9 0 -16 7 -16
16 0 18 -23 44 -40 44 -6 0 -42 32 -80 70 -38 39 -74 70 -81 70 -6 0 -24 14
-39 30 -15 17 -35 30 -44 30 -9 0 -16 8 -16 20 0 12 -7 20 -16 20 -20 0 -44
24 -44 44 0 9 -7 16 -16 16 -20 0 -44 24 -44 44 0 9 -7 16 -16 16 -9 0 -29 14
-44 30 -15 17 -35 30 -44 30 -9 0 -16 7 -16 16 0 18 -23 44 -40 44 -6 0 -42
32 -80 70 -38 39 -74 70 -80 70 -6 0 -33 23 -60 50 -27 28 -54 50 -60 50 -17
0 -40 26 -40 44 0 9 -7 16 -16 16 -20 0 -44 24 -44 44 0 9 -7 16 -16 16 -20 0
-44 24 -44 44 0 11 -9 16 -30 16 -21 0 -30 5 -30 16 0 20 -24 44 -44 44 -9 0
-16 5 -16 10 0 23 -38 6 -77 -35z"/>
<path id="278" d="M1803 17754 c-35 -35 -63 -70 -63 -79 0 -8 -9 -15 -20 -15 -12 0 -20
-7 -20 -16 0 -8 -18 -33 -40 -54 -22 -21 -40 -44 -40 -50 0 -17 -26 -40 -44
-40 -11 0 -16 -9 -16 -30 0 -27 -3 -30 -30 -30 -21 0 -30 -5 -30 -16 0 -20
-24 -44 -44 -44 -11 0 -16 -9 -16 -30 0 -23 -4 -30 -20 -30 -12 0 -20 -7 -20
-16 0 -20 -24 -44 -44 -44 -9 0 -16 -7 -16 -16 0 -8 -27 -42 -60 -74 -33 -32
-60 -64 -60 -70 0 -6 -31 -42 -70 -80 -38 -38 -70 -74 -70 -80 0 -17 -26 -40
-44 -40 -9 0 -16 -7 -16 -16 0 -20 -24 -44 -44 -44 -9 0 -16 -8 -16 -19 0 -11
-6 -22 -12 -25 -10 -5 -10 -7 0 -12 6 -3 12 -12 12 -21 0 -19 24 -43 44 -43 9
0 16 -8 16 -20 0 -11 7 -20 16 -20 8 0 37 -22 64 -50 27 -27 54 -50 60 -50 7
0 25 -13 40 -30 15 -16 35 -30 44 -30 9 0 16 -8 16 -20 0 -12 7 -20 16 -20 20
0 44 -24 44 -44 0 -9 8 -16 18 -16 10 0 24 -9 32 -20 8 -11 22 -20 32 -20 10
0 18 -4 18 -10 0 -5 9 -10 20 -10 13 0 20 -7 20 -20 0 -11 7 -20 15 -20 9 0
47 -31 85 -70 50 -50 76 -70 95 -70 21 0 25 5 25 30 0 23 4 30 20 30 12 0 20
7 20 16 0 18 23 44 40 44 17 0 40 26 40 44 0 9 8 16 20 16 12 0 20 7 20 16 0
8 18 33 40 54 22 21 40 44 40 50 0 7 14 25 30 40 17 15 30 33 30 40 0 16 26
40 44 40 9 0 16 7 16 16 0 20 24 44 44 44 9 0 16 7 16 16 0 20 24 44 44 44 11
0 16 9 16 30 0 21 5 30 16 30 18 0 44 23 44 40 0 6 18 29 40 50 22 21 40 43
40 50 0 16 67 80 85 80 8 0 15 7 15 16 0 8 18 33 40 54 22 21 40 46 40 54 0 9
8 16 20 16 16 0 20 7 20 30 0 23 4 30 20 30 27 0 25 7 -10 40 -16 15 -30 35
-30 44 0 9 -7 16 -16 16 -8 0 -37 23 -64 50 -27 28 -56 50 -64 50 -9 0 -16 9
-16 20 0 12 -7 20 -16 20 -20 0 -44 24 -44 44 0 9 -7 16 -16 16 -9 0 -29 14
-44 30 -15 17 -35 30 -44 30 -9 0 -16 8 -16 20 0 13 -7 20 -18 20 -10 0 -24 9
-32 20 -8 11 -22 20 -32 20 -11 0 -18 7 -18 20 0 12 -7 20 -16 20 -8 0 -33 18
-54 40 -21 22 -46 40 -54 40 -9 0 -16 7 -16 16 0 19 -24 44 -42 43 -7 0 -41
-29 -75 -65z"/>
<path id="273" d="M5053 17725 c-7 -8 -13 -19 -13 -25 0 -7 -18 -29 -40 -50 -22 -21
-40 -44 -40 -50 0 -17 -26 -40 -44 -40 -9 0 -16 -8 -16 -20 0 -13 -7 -20 -20
-20 -12 0 -20 -7 -20 -16 0 -8 -18 -33 -40 -54 -22 -21 -40 -46 -40 -54 0 -9
-8 -16 -20 -16 -12 0 -20 -7 -20 -16 0 -20 -24 -44 -44 -44 -11 0 -16 -9 -16
-30 0 -21 -5 -30 -16 -30 -20 0 -44 -24 -44 -44 0 -9 -8 -16 -20 -16 -11 0
-20 -7 -20 -15 0 -9 -31 -47 -70 -85 -38 -38 -70 -74 -70 -80 0 -6 -54 -64
-120 -130 -66 -66 -120 -126 -120 -135 0 -8 -9 -15 -20 -15 -11 0 -20 -7 -20
-15 0 -18 104 -125 120 -125 17 0 40 -26 40 -44 0 -11 9 -16 30 -16 21 0 30
-5 30 -16 0 -18 23 -44 40 -44 6 0 33 -22 60 -50 27 -27 54 -50 60 -50 6 0 55
-45 110 -100 55 -55 104 -100 110 -100 17 0 40 -26 40 -44 0 -29 48 -18 85 19
19 19 35 39 35 45 0 17 26 40 44 40 9 0 16 7 16 16 0 20 24 44 44 44 11 0 16
9 16 30 0 23 4 30 20 30 12 0 20 7 20 16 0 8 18 33 40 54 22 21 40 43 40 50 0
6 41 51 90 100 50 49 90 94 90 100 0 17 26 40 44 40 9 0 16 7 16 16 0 20 24
44 44 44 11 0 16 9 16 30 0 21 5 30 16 30 20 0 44 24 44 44 0 9 7 16 16 16 20
0 44 24 44 44 0 9 8 16 20 16 12 0 20 7 20 16 0 9 14 29 30 44 17 15 30 33 30
40 0 6 18 29 40 50 l41 39 -105 106 c-58 58 -111 105 -117 105 -6 0 -28 18
-49 40 -21 22 -44 40 -50 40 -15 0 -40 25 -40 40 0 15 -25 40 -40 40 -6 0 -33
23 -60 50 -27 28 -56 50 -64 50 -9 0 -16 7 -16 16 0 20 -24 44 -44 44 -9 0
-16 7 -16 16 0 40 -79 61 -107 29z"/>
<path id="276" d="M2583 17095 c-24 -25 -43 -50 -43 -57 0 -7 -18 -28 -40 -47 -22 -19
-40 -41 -40 -49 0 -18 -25 -42 -44 -42 -9 0 -16 -7 -16 -16 0 -20 -24 -44 -44
-44 -11 0 -16 -9 -16 -30 0 -21 -5 -30 -16 -30 -20 0 -44 -24 -44 -44 0 -9 -7
-16 -16 -16 -18 0 -44 -24 -44 -40 0 -7 -13 -25 -30 -40 -16 -15 -30 -33 -30
-39 0 -7 -31 -43 -70 -81 -38 -38 -70 -76 -70 -85 0 -8 -9 -15 -20 -15 -12 0
-20 -7 -20 -16 0 -9 -13 -29 -30 -44 -16 -15 -30 -35 -30 -44 0 -9 -7 -16 -16
-16 -18 0 -44 -23 -44 -40 0 -6 -33 -43 -72 -82 -41 -40 -67 -73 -60 -76 6 -2
12 -12 12 -23 0 -14 7 -19 30 -19 21 0 30 -5 30 -16 0 -20 24 -44 44 -44 9 0
16 -7 16 -16 0 -20 24 -44 44 -44 9 0 16 -7 16 -16 0 -18 24 -44 40 -44 7 0
25 -13 40 -30 15 -16 35 -30 44 -30 9 0 16 -8 16 -20 0 -13 7 -20 18 -20 10 0
24 -9 32 -20 8 -11 22 -20 32 -20 11 0 18 -7 18 -20 0 -12 7 -20 16 -20 20 0
44 -24 44 -44 0 -9 7 -16 16 -16 20 0 44 -24 44 -44 0 -9 7 -16 16 -16 20 0
44 -24 44 -44 0 -10 9 -16 26 -16 29 0 54 -21 54 -44 0 -9 8 -16 19 -16 11 0
22 -6 25 -12 5 -10 7 -10 12 0 3 6 14 12 25 12 11 0 19 7 19 16 0 9 14 29 30
44 17 15 30 33 30 40 0 7 14 25 30 40 17 15 30 33 30 39 0 17 47 61 65 61 8 0
15 7 15 16 0 8 23 37 50 64 28 27 50 54 50 60 0 17 26 40 44 40 9 0 16 7 16
16 0 9 14 29 30 44 17 15 30 35 30 44 0 9 7 16 16 16 20 0 44 24 44 44 0 9 8
16 20 16 13 0 20 7 20 20 0 11 5 20 10 20 6 0 10 7 10 16 0 20 24 44 44 44 9
0 16 7 16 16 0 9 14 29 30 44 17 15 30 33 30 40 0 15 25 40 40 40 14 0 80 66
80 80 0 17 26 40 44 40 9 0 16 8 16 20 0 11 5 20 10 20 6 0 10 7 10 15 0 18
-104 125 -121 125 -6 0 -24 14 -39 30 -15 17 -33 30 -39 30 -7 0 -52 41 -101
90 -49 50 -96 90 -105 90 -8 0 -15 7 -15 16 0 23 -25 44 -54 44 -17 0 -26 6
-26 16 0 20 -24 44 -44 44 -11 0 -16 9 -16 30 0 27 -3 30 -30 30 -21 0 -30 5
-30 16 0 20 -24 44 -44 44 -9 0 -16 8 -16 20 0 13 -7 20 -20 20 -11 0 -20 5
-20 10 0 23 -38 6 -77 -35z"/>
<path id="271" d="M5820 17064 c0 -20 -24 -44 -44 -44 -9 0 -16 -7 -16 -16 0 -20 -24
-44 -44 -44 -9 0 -16 -7 -16 -16 0 -9 -13 -29 -30 -44 -16 -15 -30 -35 -30
-44 0 -9 -7 -16 -16 -16 -18 0 -44 -23 -44 -40 0 -6 -45 -55 -100 -110 -55
-55 -100 -105 -100 -112 0 -8 -9 -20 -20 -28 -11 -8 -20 -20 -20 -28 0 -18
-25 -42 -44 -42 -9 0 -16 -7 -16 -16 0 -20 -24 -44 -44 -44 -11 0 -16 -9 -16
-30 0 -21 -5 -30 -16 -30 -20 0 -44 -24 -44 -44 0 -11 -9 -16 -30 -16 -26 0
-30 -4 -30 -26 0 -17 -14 -39 -40 -64 -22 -21 -40 -44 -40 -50 0 -6 -22 -33
-50 -60 -27 -27 -50 -54 -50 -60 0 -17 26 -40 44 -40 9 0 16 -7 16 -16 0 -18
23 -44 40 -44 16 0 80 -67 80 -85 0 -8 7 -15 16 -15 8 0 37 -22 64 -50 27 -27
56 -50 64 -50 9 0 16 -9 16 -20 0 -11 7 -20 16 -20 8 0 42 -27 74 -60 32 -33
66 -60 74 -60 9 0 16 -7 16 -16 0 -18 24 -44 40 -44 7 0 25 -13 40 -30 15 -16
35 -30 44 -30 11 0 16 -9 16 -30 0 -27 3 -30 30 -30 23 0 30 -4 30 -20 0 -11
7 -20 16 -20 8 0 42 -27 74 -60 61 -62 90 -75 90 -40 0 13 7 20 20 20 13 0 20
7 20 20 0 11 5 20 10 20 6 0 10 7 10 15 0 9 27 42 60 74 33 32 60 64 60 71 0
16 26 40 44 40 9 0 16 7 16 16 0 20 24 44 44 44 11 0 16 9 16 30 0 23 4 30 20
30 12 0 20 7 20 16 0 8 18 33 40 54 22 21 40 46 40 54 0 9 7 16 16 16 18 0 44
23 44 40 0 6 18 29 40 50 22 21 40 46 40 54 0 9 8 16 20 16 12 0 20 7 20 16 0
20 24 44 44 44 9 0 16 7 16 16 0 20 24 44 44 44 11 0 16 9 16 30 0 21 5 30 16
30 18 0 44 23 44 40 0 6 23 33 50 60 55 54 60 68 30 90 -11 8 -20 22 -20 32 0
10 -7 18 -16 18 -8 0 -42 27 -74 60 -32 33 -66 60 -74 60 -9 0 -16 9 -16 20 0
11 -7 20 -16 20 -8 0 -42 27 -74 60 -32 33 -64 60 -70 60 -6 0 -46 36 -90 80
-44 44 -86 80 -95 80 -8 0 -15 9 -15 20 0 12 -7 20 -16 20 -20 0 -44 24 -44
44 0 9 -7 16 -16 16 -20 0 -44 24 -44 44 0 9 -7 16 -16 16 -20 0 -44 24 -44
44 0 9 -7 16 -16 16 -9 0 -29 14 -44 30 -30 32 -60 40 -60 14z"/>
<path id="274" d="M3440 16404 c0 -8 -18 -33 -40 -54 -22 -21 -40 -44 -40 -50 0 -6 -31
-42 -70 -80 -38 -38 -70 -76 -70 -85 0 -8 -9 -15 -20 -15 -13 0 -20 -7 -20
-20 0 -12 -7 -20 -16 -20 -18 0 -44 -24 -44 -40 0 -7 -13 -25 -30 -40 -16 -15
-30 -35 -30 -44 0 -9 -8 -16 -20 -16 -11 0 -20 -7 -20 -15 0 -9 -36 -51 -80
-95 -44 -44 -80 -84 -80 -90 0 -6 -22 -33 -50 -60 -27 -27 -50 -54 -50 -60 0
-17 -26 -40 -44 -40 -9 0 -16 -7 -16 -16 0 -20 -24 -44 -44 -44 -9 0 -16 -7
-16 -16 0 -20 -24 -44 -44 -44 -11 0 -16 -9 -16 -30 0 -23 -4 -30 -20 -30 -16
0 -20 -7 -20 -30 0 -21 5 -30 16 -30 9 0 29 -13 44 -30 15 -16 35 -30 44 -30
9 0 16 -7 16 -16 0 -18 23 -44 40 -44 6 0 51 -40 100 -90 49 -49 94 -90 101
-90 6 0 24 -13 39 -30 15 -16 35 -30 44 -30 9 0 16 -7 16 -16 0 -20 24 -44 44
-44 9 0 16 -7 16 -16 0 -20 24 -44 44 -44 9 0 16 -7 16 -16 0 -19 24 -44 42
-44 8 0 20 -9 28 -20 8 -11 20 -20 28 -20 18 0 82 66 82 85 0 8 7 15 16 15 18
0 44 23 44 40 0 6 18 29 40 50 22 21 40 46 40 54 0 9 8 16 20 16 13 0 20 7 20
20 0 13 7 20 20 20 12 0 20 7 20 16 0 8 18 33 40 54 22 21 40 44 40 50 0 17
26 40 44 40 9 0 16 7 16 16 0 9 14 29 30 44 17 15 30 33 30 39 0 7 32 43 70
81 39 38 70 74 70 80 0 6 23 33 50 60 28 27 50 54 50 60 0 17 26 40 44 40 9 0
16 7 16 15 0 20 85 105 105 105 28 0 17 49 -20 85 -19 19 -39 35 -46 35 -6 0
-24 14 -39 30 -15 17 -35 30 -44 30 -9 0 -16 7 -16 16 0 20 -24 44 -44 44 -9
0 -16 7 -16 16 0 20 -24 44 -44 44 -9 0 -16 8 -16 20 0 13 -7 20 -20 20 -11 0
-20 5 -20 10 0 6 -7 10 -15 10 -17 0 -165 144 -165 161 0 14 -25 39 -40 39 -6
0 -33 23 -60 50 -49 50 -80 64 -80 34z"/>
<path id="269" d="M6760 16200 c0 -13 -7 -20 -20 -20 -12 0 -20 -7 -20 -16 0 -20 -24
-44 -44 -44 -10 0 -16 -9 -16 -25 0 -19 -22 -47 -80 -105 -44 -44 -80 -84 -80
-90 0 -7 -18 -29 -40 -50 -22 -21 -40 -44 -40 -50 0 -17 -26 -40 -44 -40 -9 0
-16 -7 -16 -16 0 -20 -24 -44 -44 -44 -11 0 -16 -9 -16 -30 0 -21 -5 -30 -16
-30 -20 0 -44 -24 -44 -44 0 -9 -7 -16 -16 -16 -18 0 -44 -24 -44 -40 0 -7
-13 -25 -30 -40 -16 -15 -30 -33 -30 -40 0 -6 -18 -29 -40 -50 -22 -21 -40
-46 -40 -54 0 -9 -8 -16 -20 -16 -12 0 -20 -7 -20 -16 0 -20 -24 -44 -44 -44
-9 0 -16 -7 -16 -16 0 -20 -24 -44 -44 -44 -29 0 -18 -48 19 -85 19 -19 39
-35 45 -35 17 0 40 -26 40 -44 0 -9 7 -16 16 -16 20 0 44 -24 44 -44 0 -9 7
-16 16 -16 8 0 42 -27 74 -60 32 -33 66 -60 74 -60 9 0 16 -9 16 -20 0 -11 7
-20 15 -20 9 0 56 -40 105 -90 89 -90 120 -108 120 -70 0 11 5 20 10 20 6 0
10 14 10 30 0 17 5 30 10 30 6 0 10 9 10 20 0 11 5 20 10 20 6 0 10 18 10 40
0 22 5 40 10 40 6 0 10 9 10 20 0 11 5 20 10 20 6 0 10 9 10 20 0 11 5 20 10
20 6 0 10 14 10 30 0 17 5 30 10 30 6 0 10 9 10 20 0 11 5 20 10 20 6 0 10 9
10 20 0 11 5 20 10 20 6 0 10 18 10 40 0 22 5 40 10 40 6 0 10 9 10 20 0 11 5
20 10 20 6 0 10 9 10 20 0 11 5 20 10 20 6 0 10 23 10 50 0 28 5 50 10 50 6 0
10 8 10 18 0 10 9 24 20 32 16 11 20 26 20 70 0 44 4 59 20 70 11 8 20 22 20
32 0 10 5 18 10 18 6 0 10 17 10 38 0 26 6 42 20 52 11 8 20 22 20 32 0 10 5
18 10 18 6 0 10 18 10 40 0 22 5 40 10 40 6 0 10 9 10 20 0 11 5 20 10 20 6 0
10 9 10 20 0 11 5 20 10 20 6 0 10 18 10 40 0 22 5 40 10 40 6 0 10 9 10 20 0
11 5 20 10 20 6 0 10 7 10 15 0 18 -44 65 -60 65 -6 0 -42 32 -80 70 -70 71
-100 86 -100 50z"/>
<path id="267-science" d="M7060 15912 c0 -16 -8 -34 -20 -42 -14 -10 -20 -26 -20 -52 0 -21 -4
-38 -10 -38 -5 0 -10 -9 -10 -20 0 -11 -4 -20 -10 -20 -5 0 -10 -9 -10 -20 0
-11 -4 -20 -10 -20 -5 0 -10 -18 -10 -40 0 -22 -4 -40 -10 -40 -5 0 -10 -9
-10 -20 0 -11 -4 -20 -10 -20 -5 0 -10 -9 -10 -20 0 -11 -4 -20 -10 -20 -5 0
-10 -17 -10 -38 0 -26 -6 -42 -20 -52 -11 -8 -20 -22 -20 -32 0 -10 -4 -18
-10 -18 -5 0 -10 -18 -10 -40 0 -22 -4 -40 -10 -40 -5 0 -10 -9 -10 -20 0 -11
-4 -20 -10 -20 -5 0 -10 -13 -10 -30 0 -16 -4 -30 -10 -30 -5 0 -10 -13 -10
-30 0 -16 -4 -30 -10 -30 -5 0 -10 -13 -10 -28 0 -16 -8 -34 -20 -42 -14 -10
-20 -26 -20 -52 0 -21 -4 -38 -10 -38 -5 0 -10 -13 -10 -28 0 -16 -8 -34 -20
-42 -14 -10 -20 -26 -20 -52 0 -21 -4 -38 -10 -38 -5 0 -10 -9 -10 -20 0 -11
-4 -20 -10 -20 -5 0 -10 -13 -10 -30 0 -16 -4 -30 -10 -30 -5 0 -10 -13 -10
-30 0 -16 -4 -30 -10 -30 -5 0 -10 -9 -10 -20 0 -11 -4 -20 -10 -20 -5 0 -10
-9 -10 -20 0 -11 -4 -20 -10 -20 -5 0 -10 -9 -10 -20 0 -13 7 -20 20 -20 12 0
20 -7 20 -16 0 -18 23 -44 40 -44 17 0 40 -26 40 -44 0 -11 9 -16 30 -16 27 0
30 -3 30 -30 0 -27 3 -30 30 -30 27 0 30 -3 30 -30 0 -21 5 -30 16 -30 9 0 29
-13 44 -30 15 -16 35 -30 44 -30 9 0 16 -7 16 -16 0 -18 23 -44 40 -44 6 0 38
-27 70 -60 58 -59 60 -60 114 -60 31 0 56 -4 56 -10 0 -5 18 -10 40 -10 22 0
40 -4 40 -10 0 -6 27 -10 60 -10 33 0 60 -4 60 -10 0 -6 37 -10 90 -10 53 0
90 -4 90 -10 0 -5 14 -10 30 -10 17 0 30 -4 30 -10 0 -6 33 -10 80 -10 47 0
80 -4 80 -10 0 -5 14 -10 30 -10 27 0 30 3 30 30 0 17 5 30 10 30 6 0 10 27
10 60 0 33 4 60 10 60 6 0 10 9 10 20 0 11 5 20 10 20 6 0 10 9 10 20 0 11 5
20 10 20 6 0 10 27 10 60 0 33 4 60 10 60 6 0 10 14 10 30 0 17 5 30 10 30 6
0 10 9 10 20 0 11 5 20 10 20 6 0 10 23 10 50 0 28 5 50 10 50 6 0 10 9 10 20
0 11 5 20 10 20 6 0 10 9 10 20 0 11 5 20 10 20 6 0 10 27 10 60 0 33 4 60 10
60 6 0 10 14 10 30 0 17 5 30 10 30 6 0 10 9 10 20 0 11 5 20 10 20 6 0 10 23
10 50 0 28 5 50 10 50 6 0 10 9 10 20 0 11 5 20 10 20 6 0 10 14 10 30 0 17 5
30 10 30 6 0 10 27 10 60 0 33 4 60 10 60 6 0 10 9 10 20 0 11 5 20 10 20 6 0
10 14 10 30 0 17 5 30 10 30 6 0 10 18 10 40 0 22 5 40 10 40 6 0 10 14 10 30
0 17 5 30 10 30 6 0 10 14 10 30 0 17 5 30 10 30 6 0 10 18 10 40 0 22 5 40
10 40 6 0 10 9 10 20 0 11 5 20 10 20 6 0 10 14 10 30 0 17 5 30 10 30 6 0 10
18 10 39 0 22 5 41 12 43 9 3 8 9 -4 21 -14 14 -37 17 -131 17 -83 0 -117 4
-120 13 -4 9 -8 8 -17 -3 -9 -11 -13 -12 -17 -2 -2 6 -13 12 -24 12 -10 0 -19
5 -19 10 0 6 -22 10 -50 10 -27 0 -50 5 -50 10 0 6 -47 10 -120 10 -73 0 -120
4 -120 10 0 6 -22 10 -50 10 -27 0 -50 5 -50 10 0 6 -18 10 -40 10 -22 0 -40
5 -40 10 0 6 -37 10 -90 10 -53 0 -90 4 -90 10 0 6 -13 10 -30 10 -16 0 -30 5
-30 10 0 14 -37 12 -44 -2 -5 -10 -7 -10 -12 0 -3 6 -19 12 -35 12 -16 0 -29
5 -29 10 0 6 -18 10 -40 10 -37 0 -40 -2 -40 -28z"/>
<path id="272" d="M4193 15705 c-18 -19 -33 -39 -33 -45 0 -6 -58 -69 -130 -140 -71
-71 -130 -135 -130 -141 0 -6 -13 -24 -30 -39 -16 -15 -30 -35 -30 -44 0 -9
-7 -16 -16 -16 -20 0 -44 -24 -44 -44 0 -9 -7 -16 -16 -16 -20 0 -44 -24 -44
-44 0 -9 -7 -16 -16 -16 -20 0 -44 -24 -44 -44 0 -9 -4 -16 -10 -16 -5 0 -10
-7 -10 -16 0 -9 -13 -29 -30 -44 -16 -15 -30 -35 -30 -44 0 -9 -8 -16 -20 -16
-12 0 -20 -7 -20 -16 0 -20 -24 -44 -44 -44 -9 0 -16 -7 -16 -16 0 -9 -13 -29
-30 -44 -16 -15 -30 -35 -30 -44 0 -9 -7 -16 -16 -16 -20 0 -44 -24 -44 -44 0
-9 -8 -16 -20 -16 -13 0 -20 -7 -20 -19 0 -11 -5 -21 -12 -23 -14 -5 55 -78
72 -78 17 0 40 -26 40 -44 0 -9 7 -16 16 -16 9 0 29 -13 44 -30 15 -16 33 -30
40 -30 16 0 40 -26 40 -44 0 -9 7 -16 16 -16 20 0 44 -24 44 -44 0 -9 7 -16
16 -16 8 0 33 -18 54 -40 21 -22 46 -40 54 -40 9 0 16 -7 16 -16 0 -18 23 -44
40 -44 16 0 100 -87 100 -105 0 -31 49 -16 95 30 25 24 45 49 45 55 0 16 67
80 85 80 8 0 15 7 15 16 0 8 18 33 40 54 22 21 40 46 40 54 0 9 8 16 20 16 12
0 20 7 20 16 0 20 24 44 44 44 9 0 16 7 16 16 0 20 24 44 44 44 9 0 16 7 16
16 0 20 24 44 44 44 9 0 16 7 16 16 0 9 14 29 30 44 17 15 30 35 30 44 0 9 7
16 16 16 18 0 44 23 44 40 0 6 36 46 80 90 44 44 80 84 80 90 0 6 23 33 50 60
28 27 50 56 50 64 0 9 9 16 20 16 13 0 20 7 20 20 0 11 5 20 10 20 6 0 10 5
10 10 0 6 -7 10 -15 10 -20 0 -125 105 -125 125 0 8 -7 15 -16 15 -8 0 -37 23
-64 50 -27 28 -54 50 -60 50 -7 0 -25 14 -40 30 -15 17 -35 30 -44 30 -9 0
-16 7 -16 16 0 20 -24 44 -44 44 -9 0 -16 7 -16 16 0 20 -24 44 -44 44 -9 0
-16 8 -16 20 0 12 -7 20 -16 20 -8 0 -33 18 -54 40 -21 22 -46 40 -54 40 -9 0
-16 8 -16 20 0 27 -10 24 -47 -15z"/>
<path id="270" d="M4933 15065 c-7 -8 -13 -19 -13 -25 0 -7 -18 -29 -40 -50 -22 -21
-40 -46 -40 -54 0 -9 -8 -16 -20 -16 -12 0 -20 -7 -20 -16 0 -20 -24 -44 -44
-44 -11 0 -16 -9 -16 -30 0 -21 -5 -30 -16 -30 -20 0 -44 -24 -44 -44 0 -9 -7
-16 -16 -16 -18 0 -44 -23 -44 -40 0 -6 -31 -42 -70 -80 -38 -38 -70 -76 -70
-85 0 -8 -7 -15 -16 -15 -20 0 -44 -24 -44 -44 0 -9 -8 -16 -20 -16 -11 0 -20
-7 -20 -15 0 -9 -31 -47 -70 -85 -38 -38 -70 -76 -70 -85 0 -8 -9 -15 -20 -15
-12 0 -20 -7 -20 -16 0 -20 -24 -44 -44 -44 -9 0 -16 -7 -16 -16 0 -20 -24
-44 -44 -44 -9 0 -16 -7 -16 -16 0 -20 -24 -44 -44 -44 -11 0 -16 -9 -16 -30
0 -27 3 -30 30 -30 21 0 30 -5 30 -16 0 -20 24 -44 44 -44 9 0 16 -7 16 -16 0
-18 23 -44 40 -44 6 0 38 -27 70 -60 32 -33 64 -60 70 -60 7 0 25 -13 40 -30
15 -16 33 -30 40 -30 16 0 40 -26 40 -44 0 -9 7 -16 16 -16 20 0 44 -24 44
-44 0 -11 9 -16 30 -16 21 0 30 -5 30 -16 0 -20 24 -44 44 -44 9 0 16 -7 16
-16 0 -18 23 -44 40 -44 6 0 38 -27 70 -60 32 -33 66 -60 74 -60 9 0 16 -9 16
-20 0 -13 7 -20 20 -20 15 0 20 7 20 26 0 29 21 54 44 54 9 0 16 8 16 20 0 11
5 20 10 20 6 0 10 9 10 20 0 13 7 20 20 20 12 0 20 7 20 16 0 18 23 44 40 44
17 0 40 26 40 44 0 9 7 16 16 16 20 0 44 24 44 44 0 9 7 16 16 16 8 0 37 23
64 50 27 28 56 50 64 50 9 0 16 7 16 16 0 8 18 33 40 54 22 21 40 46 40 54 0
9 8 16 20 16 12 0 20 7 20 16 0 18 23 44 40 44 14 0 80 66 80 80 0 15 25 40
40 40 16 0 100 87 100 105 0 9 9 15 25 15 26 0 75 40 75 60 0 17 26 40 44 40
9 0 16 2 16 5 0 13 -71 75 -85 75 -8 0 -15 9 -15 20 0 11 -7 20 -15 20 -20 0
-65 45 -65 65 0 10 -10 15 -30 15 -27 0 -30 3 -30 30 0 26 -4 30 -26 30 -18 0
-42 18 -84 60 -32 33 -64 60 -70 60 -6 0 -51 41 -100 90 -49 50 -94 90 -101
90 -6 0 -24 14 -39 30 -15 17 -35 30 -44 30 -9 0 -16 7 -16 16 0 20 -24 44
-44 44 -9 0 -16 7 -16 16 0 20 -24 44 -44 44 -9 0 -16 8 -16 20 0 23 -29 26
-47 5z"/>
<path id="stairs4" d="M5880 14210 c0 -5 -7 -10 -16 -10 -18 0 -44 -23 -44 -40 0 -16 -209
-220 -225 -220 -8 0 -15 -8 -15 -18 0 -10 -9 -24 -20 -32 -11 -8 -20 -22 -20
-32 0 -11 -7 -18 -20 -18 -13 0 -20 -7 -20 -20 0 -11 -7 -20 -15 -20 -17 0
-205 -184 -205 -200 0 -6 -27 -38 -60 -70 -33 -32 -60 -64 -60 -70 0 -17 -26
-40 -44 -40 -9 0 -16 -7 -16 -16 0 -20 -24 -44 -44 -44 -9 0 -16 -8 -16 -20 0
-11 -4 -20 -10 -20 -5 0 -10 -11 -10 -25 0 -26 78 -115 101 -115 6 0 24 -13
39 -30 15 -16 33 -30 40 -30 6 0 33 -22 60 -50 27 -27 54 -50 60 -50 7 0 25
-14 41 -31 l29 -32 19 22 c10 11 26 21 35 21 9 0 16 7 16 16 0 20 24 44 44 44
9 0 16 7 16 16 0 20 24 44 44 44 9 0 16 7 16 16 0 20 24 44 44 44 9 0 16 7 16
16 0 20 24 44 44 44 9 0 16 8 16 20 0 13 7 20 20 20 11 0 20 5 20 10 0 6 9 10
20 10 11 0 20 -4 20 -10 0 -5 9 -10 20 -10 13 0 20 -7 20 -20 0 -12 7 -20 16
-20 20 0 44 -24 44 -44 0 -11 9 -16 30 -16 21 0 30 -5 30 -16 0 -18 23 -44 40
-44 6 0 46 -36 90 -80 44 -44 86 -80 94 -80 8 0 16 -6 18 -12 6 -17 38 14 38
36 0 9 5 16 10 16 6 0 10 27 10 60 0 33 4 60 10 60 6 0 10 9 10 20 0 11 5 20
10 20 6 0 10 14 10 30 0 17 5 30 10 30 6 0 10 18 10 40 0 22 5 40 10 40 6 0
10 14 10 30 0 17 5 30 10 30 6 0 10 9 10 20 0 11 5 20 10 20 6 0 10 23 10 50
0 28 5 50 10 50 6 0 10 9 10 20 0 11 5 20 10 20 6 0 10 14 10 30 0 17 5 30 10
30 6 0 10 16 10 36 0 27 7 43 30 64 17 15 30 33 30 40 0 16 -25 40 -42 40 -8
0 -20 9 -28 20 -8 11 -21 20 -28 20 -7 0 -31 18 -52 40 -21 22 -45 40 -52 40
-7 0 -20 9 -28 20 -8 11 -20 20 -28 20 -18 0 -62 46 -62 65 0 8 -7 15 -16 15
-9 0 -29 14 -44 30 -15 17 -33 30 -40 30 -6 0 -29 18 -50 40 -21 22 -46 40
-54 40 -9 0 -16 8 -16 20 0 13 -7 20 -20 20 -11 0 -20 5 -20 10 0 6 -4 10 -10
10 -5 0 -10 -4 -10 -10z"/>
<path id="265" d="M8640 13890 c0 -6 -96 -10 -269 -10 -206 0 -271 -3 -275 -12 -5 -10
-7 -10 -12 0 -9 20 -151 16 -172 -5 -12 -12 -13 -18 -4 -21 14 -4 16 -42 2
-42 -5 0 -10 -18 -10 -40 0 -22 5 -40 10 -40 6 0 10 -13 10 -30 0 -22 5 -30
18 -30 10 0 24 -9 32 -20 8 -11 22 -20 32 -20 10 0 18 -4 18 -10 0 -5 7 -10
16 -10 9 0 29 -13 44 -30 17 -18 38 -30 54 -30 14 0 26 -4 26 -10 0 -5 8 -10
18 -10 10 0 24 -9 32 -20 8 -11 22 -20 32 -20 10 0 18 -4 18 -10 0 -5 9 -10
20 -10 11 0 20 -4 20 -10 0 -5 9 -10 20 -10 11 0 20 -4 20 -10 0 -5 8 -10 18
-10 10 0 24 -9 32 -20 8 -11 22 -20 32 -20 10 0 18 -4 18 -10 0 -5 9 -10 20
-10 11 0 20 -4 20 -10 0 -5 9 -10 20 -10 13 0 20 -7 20 -20 0 -15 7 -20 28
-20 16 0 34 -8 42 -20 8 -11 22 -20 32 -20 10 0 18 -4 18 -10 0 -5 9 -10 20
-10 11 0 20 -4 20 -10 0 -5 9 -10 20 -10 18 0 20 7 20 70 0 40 -4 70 -10 70
-15 0 -12 77 3 84 10 5 10 7 0 12 -10 4 -13 57 -13 215 0 202 -1 209 -20 209
-11 0 -20 5 -20 10 0 6 -4 10 -10 10 -5 0 -10 -4 -10 -10z"/>
<path id="stairs3" d="M13840 13870 c0 -5 -12 -10 -26 -10 -14 0 -32 -6 -40 -14 -16 -16
-19 -86 -4 -86 6 0 10 -9 10 -20 0 -11 -4 -20 -10 -20 -14 0 -12 -37 3 -44 10
-5 10 -7 0 -12 -10 -4 -13 -53 -13 -195 0 -119 -4 -189 -10 -189 -5 0 -10 -9
-10 -20 0 -11 5 -20 10 -20 6 0 10 -13 10 -30 0 -16 -4 -30 -10 -30 -15 0 -13
-117 3 -123 10 -3 10 -9 0 -26 -10 -15 -13 -96 -13 -306 l0 -285 30 0 c17 0
30 5 30 10 0 6 9 10 20 10 11 0 20 -4 20 -10 0 -6 27 -10 60 -10 33 0 60 4 60
10 0 6 9 10 20 10 11 0 20 -4 20 -10 0 -6 70 -10 189 -10 142 0 191 -3 195
-12 5 -10 7 -10 12 0 7 15 124 17 124 2 0 -15 29 -12 46 4 11 12 14 50 14 180
0 104 4 166 10 166 6 0 10 18 10 40 0 22 -4 40 -10 40 -15 0 -12 97 3 104 10
5 10 7 0 12 -16 7 -18 124 -3 124 15 0 12 97 -2 104 -10 5 -10 7 0 12 6 3 12
14 12 24 0 10 -6 21 -12 24 -10 5 -10 7 0 12 6 3 12 23 12 44 0 21 -6 41 -12
44 -10 5 -10 7 0 12 9 4 12 55 12 205 0 126 4 199 10 199 6 0 10 18 10 40 l0
40 -370 0 c-240 0 -370 4 -370 10 0 6 -9 10 -20 10 -11 0 -20 -4 -20 -10z"/>
<path id="hall2" d="M8790 13035 l0 -45 -464 0 -464 0 2 -332 c1 -257 -2 -332 -11 -335
-15 -5 -18 -43 -3 -43 6 0 10 -18 10 -40 0 -22 -4 -40 -10 -40 -6 0 -10 -110
-10 -310 0 -200 -4 -310 -10 -310 -6 0 -10 -40 -10 -100 0 -60 4 -100 10 -100
6 0 10 -9 10 -20 0 -11 -4 -20 -10 -20 -6 0 -10 -42 -10 -105 0 -77 -3 -105
-12 -105 -9 0 -8 -4 2 -10 13 -9 13 -11 0 -20 -13 -9 -13 -11 0 -20 12 -8 13
-12 2 -19 -11 -7 -14 -186 -13 -1024 1 -814 -1 -1016 -11 -1021 -10 -5 -10 -7
0 -12 7 -4 12 -27 12 -64 0 -37 -5 -60 -12 -64 -10 -5 -10 -7 0 -12 15 -7 18
-364 2 -364 -5 0 -10 -13 -10 -30 l0 -30 -176 0 -176 0 4 -190 c1 -105 0 -190
-4 -190 -5 0 -8 -144 -8 -320 l0 -320 26 0 c27 0 54 -20 54 -40 0 -7 14 -25
30 -40 17 -15 30 -33 30 -40 0 -7 14 -25 30 -40 17 -15 30 -33 30 -40 0 -16
26 -40 44 -40 11 0 16 -9 16 -26 0 -17 14 -39 40 -64 22 -21 40 -45 40 -52 0
-7 9 -20 20 -28 11 -8 20 -21 20 -28 0 -8 13 -27 30 -42 16 -15 30 -33 30 -40
0 -7 14 -25 30 -40 29 -27 30 -31 30 -113 0 -59 4 -87 13 -91 10 -5 10 -7 0
-12 -7 -3 -13 -18 -13 -34 0 -16 6 -31 13 -34 10 -5 10 -7 0 -12 -7 -3 -13
-23 -13 -44 0 -21 6 -41 13 -43 9 -4 9 -7 -1 -14 -9 -7 -11 -106 -10 -449 3
-401 1 -442 -14 -457 -18 -19 -48 -23 -48 -7 0 6 -27 10 -60 10 l-60 0 0 -376
c0 -395 1 -404 44 -404 11 0 16 -9 16 -26 0 -16 12 -37 30 -54 17 -15 30 -33
30 -39 0 -7 11 -23 25 -36 24 -25 25 -25 220 -25 188 0 195 1 195 20 0 17 7
20 50 20 43 0 50 -3 50 -20 0 -19 7 -20 139 -20 102 0 141 -3 145 -12 5 -11 7
-11 12 0 7 15 244 18 244 2 0 -5 9 -10 20 -10 11 0 20 5 20 10 0 6 18 10 40
10 22 0 40 -4 40 -10 0 -5 9 -10 20 -10 11 0 20 5 20 10 0 6 14 10 30 10 17 0
30 -4 30 -10 0 -15 57 -12 64 3 5 10 7 10 12 0 7 -16 184 -18 184 -3 0 6 9 10
20 10 11 0 20 -5 20 -11 0 -10 121 -9 180 2 8 1 142 1 297 1 l282 -2 25 -25
c27 -27 51 -32 60 -12 5 10 7 10 12 0 4 -9 33 -13 95 -13 53 0 89 -4 89 -10 0
-6 27 -10 60 -10 33 0 60 -4 60 -10 0 -6 27 -10 60 -10 33 0 60 -4 60 -10 0
-6 30 -10 70 -10 40 0 70 4 70 10 0 6 9 10 20 10 11 0 20 5 20 10 0 6 9 10 20
10 11 0 20 5 20 10 0 6 9 10 20 10 11 0 20 5 20 10 0 6 8 10 18 10 10 0 24 9
32 20 8 12 26 20 42 20 15 0 28 5 28 10 0 6 9 10 20 10 11 0 20 5 20 10 0 6 9
10 20 10 11 0 20 5 20 10 0 6 15 10 34 10 19 0 38 -4 41 -10 3 -5 14 -10 23
-10 10 0 24 -9 32 -20 8 -11 22 -20 32 -20 10 0 18 -4 18 -10 0 -5 23 -10 50
-10 28 0 50 5 50 10 0 6 17 10 38 10 26 0 42 6 52 20 11 15 26 20 60 20 34 0
49 -5 60 -20 8 -11 26 -20 40 -20 14 0 32 -9 40 -20 8 -11 22 -20 32 -20 10 0
18 -4 18 -10 0 -5 14 -10 30 -10 17 0 30 5 30 10 0 6 8 10 18 10 10 0 24 9 32
20 8 12 26 20 42 20 15 0 28 5 28 10 0 6 14 10 30 10 17 0 30 -4 30 -10 0 -5
14 -10 30 -10 23 0 30 -4 30 -20 0 -13 7 -20 20 -20 11 0 20 -4 20 -10 0 -5 9
-10 20 -10 11 0 20 -4 20 -10 0 -5 9 -10 20 -10 11 0 20 5 20 10 0 6 21 10 46
10 38 0 51 5 74 30 21 22 37 30 63 30 20 0 38 6 41 13 5 9 7 9 12 0 3 -8 25
-13 55 -13 27 0 49 -4 49 -10 0 -5 9 -10 20 -10 11 0 20 -4 20 -10 0 -5 9 -10
20 -10 11 0 20 -4 20 -10 0 -6 27 -10 60 -10 33 0 60 4 60 10 0 6 14 10 30 10
17 0 30 5 30 10 0 6 9 10 20 10 11 0 20 5 20 10 0 6 9 10 20 10 13 0 20 7 20
20 0 19 7 20 169 20 126 0 171 3 175 13 5 9 7 9 12 0 7 -17 41 -17 48 0 5 10
7 10 12 0 3 -8 25 -13 55 -13 l49 0 0 270 c0 173 4 270 10 270 6 0 10 9 10 20
0 11 -4 20 -10 20 -14 0 -13 97 1 102 8 3 8 32 1 103 -16 161 6 232 72 236 78
5 252 -5 259 -15 5 -8 10 -7 18 4 8 11 12 12 16 3 2 -7 13 -13 23 -13 10 0 21
6 24 13 5 10 7 10 12 0 7 -17 81 -17 88 0 5 10 7 9 12 0 7 -15 64 -18 64 -3 0
6 9 10 20 10 11 0 20 -4 20 -10 0 -5 9 -10 20 -10 11 0 20 5 20 10 0 6 9 10
20 10 11 0 20 -4 20 -10 0 -5 23 -10 50 -10 28 0 50 5 50 10 0 6 9 10 20 10
11 0 20 -4 20 -10 0 -6 33 -10 79 -10 54 0 81 -4 85 -12 5 -10 7 -10 12 0 3 6
14 12 25 12 12 0 19 7 19 20 0 11 5 20 10 20 6 0 10 27 10 60 0 33 4 60 10 60
6 0 10 18 10 40 0 22 5 40 10 40 6 0 10 33 10 80 0 47 4 80 10 80 6 0 10 14
10 30 0 17 5 30 10 30 6 0 10 14 10 30 0 17 5 30 10 30 6 0 10 37 10 90 0 53
4 90 10 90 6 0 10 9 10 20 0 11 5 20 10 20 6 0 10 9 10 20 0 11 5 20 10 20 6
0 10 23 10 50 0 28 5 50 10 50 6 0 10 14 10 30 0 17 5 30 10 30 6 0 10 14 10
30 0 17 5 30 10 30 6 0 10 14 10 30 0 17 5 30 10 30 6 0 10 14 10 30 0 17 5
30 10 30 6 0 10 9 10 20 0 11 5 20 10 20 6 0 10 17 10 38 0 26 6 42 20 52 11
8 20 22 20 32 0 10 5 18 10 18 6 0 10 9 10 20 0 19 -7 20 -90 20 -53 0 -90 4
-90 10 0 6 -9 10 -20 10 -11 0 -20 -4 -20 -10 0 -15 -57 -12 -64 3 -5 9 -7 9
-12 0 -7 -17 -41 -17 -48 0 -5 10 -7 10 -12 0 -4 -9 -31 -13 -84 -13 -53 0
-80 4 -83 13 -4 9 -8 8 -17 -3 -9 -11 -13 -12 -17 -2 -2 6 -22 12 -43 12 -21
0 -41 -6 -44 -12 -5 -10 -7 -10 -12 0 -4 8 -29 12 -74 12 -45 0 -70 -4 -74
-12 -5 -10 -7 -10 -12 0 -4 8 -35 12 -104 12 -69 0 -100 -4 -104 -12 -5 -10
-7 -10 -12 0 -4 8 -30 12 -80 12 l-74 0 0 600 c0 527 -2 600 -15 600 -8 0 -15
5 -15 10 0 6 -9 10 -20 10 -11 0 -20 -4 -20 -10 0 -17 -129 -12 -147 6 -14 13
-14 17 -2 26 11 7 11 11 2 15 -15 6 -17 43 -3 43 6 0 10 63 10 169 0 126 3
171 13 174 9 4 8 8 -3 16 -13 10 -13 12 0 21 13 9 13 11 0 20 -13 9 -13 11 0
21 11 8 12 12 3 16 -7 2 -13 13 -13 23 0 10 6 21 13 24 10 5 10 7 0 12 -8 3
-13 25 -13 54 0 29 5 51 13 54 10 5 10 7 0 12 -15 7 -18 64 -3 64 14 0 12 37
-2 44 -10 5 -10 7 0 12 14 7 16 44 2 44 -5 0 -10 14 -10 30 0 17 4 30 9 30 5
0 11 10 14 23 6 22 9 22 132 19 l125 -3 0 -30 c0 -27 -2 -29 -40 -29 -22 0
-40 5 -40 10 0 15 -70 12 -86 -4 -19 -20 -19 -152 0 -172 17 -16 46 -19 46 -4
0 6 9 10 20 10 11 0 20 -4 20 -10 0 -6 47 -10 120 -10 l120 0 0 210 0 210 -69
0 c-46 0 -71 4 -75 13 -5 10 -7 10 -12 0 -7 -15 -84 -18 -84 -3 0 14 -37 12
-44 -2 -5 -10 -7 -10 -12 0 -3 6 -18 12 -34 12 -16 0 -31 -6 -33 -12 -4 -10
-8 -9 -17 2 -9 11 -13 12 -17 3 -20 -50 -23 56 -23 746 0 598 3 760 13 764 9
4 8 8 -3 17 -11 9 -12 13 -2 17 14 6 17 63 2 63 -14 0 -13 97 1 102 9 3 12 67
12 218 0 143 4 218 11 223 8 5 6 10 -4 18 -11 8 -12 12 -2 16 6 2 12 13 12 23
0 10 -6 21 -12 24 -10 5 -10 7 0 12 6 3 12 18 12 34 0 16 -6 31 -12 34 -10 5
-10 7 0 12 9 4 12 55 12 204 0 149 3 200 13 204 10 5 10 7 0 12 -10 4 -13 102
-13 441 0 392 -2 436 -17 451 -12 12 -18 13 -21 4 -5 -15 -582 -18 -582 -2 0
16 -217 13 -224 -2 -5 -10 -7 -10 -12 0 -4 8 -29 12 -75 12 -39 0 -69 4 -69
10 0 6 -9 10 -20 10 -11 0 -20 -4 -20 -10 0 -5 -18 -10 -40 -10 -22 0 -40 5
-40 10 0 14 -37 12 -44 -2 -5 -10 -7 -10 -12 0 -4 9 -49 12 -174 12 -125 0
-170 3 -173 13 -4 9 -8 8 -17 -3 -9 -11 -13 -12 -17 -2 -6 14 -43 16 -43 2 0
-6 -27 -10 -60 -10 -33 0 -60 4 -60 10 0 6 -9 10 -20 10 -11 0 -20 -4 -20 -10
0 -5 -9 -10 -20 -10 -11 0 -20 5 -20 10 0 7 -213 10 -619 10 -486 0 -621 3
-625 13 -5 10 -7 10 -12 0 -7 -16 -244 -19 -244 -3 0 15 -57 12 -64 -2 -5 -10
-7 -10 -12 0 -7 15 -184 17 -184 2 0 -5 -9 -10 -20 -10 -11 0 -20 5 -20 10 0
15 -77 12 -84 -2 -5 -10 -7 -10 -12 0 -4 9 -120 12 -530 12 l-524 0 0 -45z
m-288 -547 c4 -10 314 -14 1499 -16 822 -1 1513 -5 1537 -8 23 -3 42 -9 42
-15 0 -5 14 -9 30 -9 17 0 30 5 30 10 0 6 14 10 30 10 17 0 30 -4 30 -10 0 -6
27 -10 60 -10 33 0 60 4 60 10 0 6 9 10 20 10 11 0 20 -4 20 -10 0 -6 50 -10
129 -10 94 0 131 -3 135 -12 5 -10 7 -10 12 0 3 6 14 12 24 12 10 0 21 -6 24
-12 5 -10 7 -10 12 0 7 14 44 16 44 2 0 -6 80 -10 220 -10 140 0 220 -4 220
-10 0 -5 9 -10 20 -10 11 0 20 5 20 10 0 6 14 10 30 10 17 0 30 -4 30 -10 0
-5 14 -10 30 -10 17 0 30 5 30 10 0 6 9 10 20 10 11 0 20 -4 20 -10 0 -14 38
-12 42 2 3 9 9 8 21 -4 15 -15 17 -47 17 -272 0 -164 -4 -256 -10 -256 -5 0
-10 -9 -10 -20 0 -11 5 -20 10 -20 6 0 10 -22 10 -50 0 -27 -4 -50 -10 -50 -6
0 -10 -83 -10 -229 0 -174 -3 -231 -12 -234 -10 -4 -9 -8 2 -17 11 -9 12 -13
3 -17 -15 -6 -17 -43 -3 -43 6 0 10 -13 10 -30 0 -16 -4 -30 -10 -30 -5 0 -10
-13 -10 -30 0 -16 5 -30 10 -30 6 0 10 -9 10 -20 0 -11 -4 -20 -10 -20 -6 0
-10 -73 -10 -199 0 -150 -3 -201 -12 -205 -10 -5 -10 -7 0 -12 14 -7 17 -64 2
-64 -15 0 -13 -177 3 -184 10 -5 10 -7 0 -12 -10 -4 -13 -177 -13 -815 0 -533
-3 -809 -10 -809 -6 0 -10 -40 -10 -100 0 -60 4 -100 10 -100 6 0 10 -18 10
-40 0 -22 -4 -40 -10 -40 -15 0 -12 -77 3 -84 10 -5 10 -7 0 -12 -10 -4 -13
-69 -13 -274 0 -205 -3 -270 -12 -273 -10 -4 -9 -8 2 -16 13 -10 13 -12 0 -22
-11 -8 -12 -12 -2 -16 14 -6 17 -63 2 -63 -15 0 -12 -97 3 -104 10 -5 10 -7 0
-12 -8 -4 -13 -27 -13 -64 0 -37 5 -60 13 -64 10 -5 10 -7 0 -12 -10 -4 -13
-55 -13 -205 0 -126 -4 -199 -10 -199 -5 0 -10 -18 -10 -40 0 -22 5 -40 10
-40 6 0 10 -13 10 -30 0 -16 -4 -30 -10 -30 -15 0 -13 -177 3 -184 10 -5 10
-7 0 -12 -10 -4 -13 -163 -13 -745 l0 -739 -210 0 c-133 0 -210 4 -210 10 0 6
-13 10 -30 10 -16 0 -30 -4 -30 -10 0 -5 -13 -10 -30 -10 -16 0 -30 5 -30 10
0 15 -97 12 -104 -2 -5 -10 -7 -10 -12 0 -4 9 -63 12 -245 12 -153 0 -239 4
-239 10 0 6 -9 10 -20 10 -11 0 -20 -4 -20 -10 0 -5 -9 -10 -20 -10 -11 0 -20
5 -20 11 0 7 -9 9 -27 3 -31 -8 -211 -7 -310 2 -61 6 -63 7 -63 35 0 20 -5 29
-16 29 -22 0 -44 25 -44 50 0 12 -13 35 -30 50 -18 17 -30 38 -30 54 0 18 -5
26 -18 26 -10 0 -24 9 -32 20 -8 11 -20 20 -28 20 -16 0 -42 -24 -42 -40 0 -6
-40 -51 -90 -100 -49 -49 -90 -96 -90 -105 0 -8 -9 -15 -20 -15 -11 0 -20 -4
-20 -10 0 -5 -18 -10 -40 -10 -22 0 -40 5 -40 10 0 15 -57 12 -64 -2 -5 -10
-7 -10 -12 0 -4 9 -91 12 -385 12 -246 0 -379 4 -379 10 0 16 -217 13 -224 -2
-5 -10 -7 -10 -12 0 -7 15 -144 17 -144 2 0 -18 -35 -11 -50 10 -8 11 -22 20
-32 20 -10 0 -18 7 -18 16 0 9 -13 29 -30 44 -16 15 -30 35 -30 44 0 9 -8 16
-19 16 -11 0 -22 6 -25 13 -5 10 -7 10 -12 0 -3 -7 -19 -13 -35 -13 -20 0 -29
-5 -29 -16 0 -20 -24 -44 -44 -44 -9 0 -16 -7 -16 -16 0 -20 -24 -44 -44 -44
-9 0 -16 -4 -16 -10 0 -6 -67 -10 -180 -10 l-180 0 0 230 c0 147 4 230 10 230
6 0 10 9 10 20 0 11 -4 20 -10 20 -6 0 -10 27 -10 60 0 33 4 60 10 60 6 0 10
123 10 350 0 227 4 350 10 350 15 0 13 137 -2 144 -10 5 -10 7 0 12 9 4 12
105 12 455 0 293 3 449 10 449 6 0 10 9 10 20 0 11 -4 20 -10 20 -6 0 -10 27
-10 60 0 33 4 60 10 60 6 0 10 57 10 150 l0 150 -149 0 c-110 0 -151 3 -155
13 -5 10 -7 10 -12 0 -3 -7 -14 -13 -25 -13 -19 0 -19 19 -13 1023 7 1226 11
1449 27 1459 9 6 8 11 -3 19 -11 8 -12 12 -2 16 14 6 16 43 2 43 -14 0 -12 37
3 43 9 4 8 8 -3 17 -11 9 -12 13 -2 17 9 3 12 60 12 233 0 173 3 230 13 234
10 5 10 7 0 12 -7 3 -13 14 -13 24 0 10 6 21 13 23 9 4 8 8 -3 16 -13 10 -13
12 0 22 11 8 12 12 3 16 -16 6 -18 103 -3 103 6 0 10 23 10 50 0 28 -4 50 -10
50 -5 0 -10 14 -10 30 0 17 5 30 10 30 7 0 10 153 10 440 0 427 1 440 19 440
11 0 21 -6 23 -12z"/>
<path id="209" d="M8593 12345 c-10 -11 -13 -79 -13 -270 0 -163 -4 -255 -10 -255 -6 0
-10 -27 -10 -60 0 -33 4 -60 10 -60 6 0 10 -13 10 -30 0 -16 -4 -30 -10 -30
-6 0 -10 -100 -10 -279 0 -214 -3 -281 -12 -284 -10 -4 -9 -8 2 -16 13 -10 13
-12 0 -22 -11 -8 -12 -12 -2 -16 14 -6 16 -43 2 -43 -6 0 -10 -110 -10 -309 0
-238 -3 -311 -12 -315 -10 -5 -10 -7 0 -12 6 -3 12 -14 12 -25 0 -19 18 -19
784 -19 l783 0 5 237 c3 168 8 238 16 241 9 3 12 156 12 603 0 393 3 599 10
599 15 0 12 57 -2 64 -10 5 -10 7 0 12 9 4 12 41 12 135 l0 129 -765 0 c-758
0 -765 0 -765 20 0 23 -19 26 -37 5z"/>
<path id="207-storage" d="M10260 11961 c0 -278 -3 -361 -12 -365 -10 -5 -10 -7 0 -12 6 -3 12
-17 12 -31 0 -13 6 -31 14 -39 17 -16 46 -19 46 -4 0 15 57 12 64 -2 5 -10 7
-10 12 0 4 8 29 12 74 12 45 0 70 -4 74 -12 5 -10 7 -10 12 0 3 6 18 12 34 12
16 0 31 -6 34 -12 5 -10 7 -10 12 0 4 8 37 12 114 12 77 0 110 4 114 13 5 10
7 10 12 0 4 -10 49 -13 175 -13 l169 0 0 400 0 400 -199 0 c-150 0 -201 -3
-205 -12 -5 -10 -7 -10 -12 0 -4 9 -69 12 -275 12 l-269 0 0 -359z"/>
<path id="205-science" d="M11313 12305 c-7 -8 -13 -34 -13 -59 0 -26 5 -47 13 -50 10 -5 10 -7
0 -12 -9 -4 -13 -33 -13 -94 0 -61 4 -90 13 -94 10 -5 10 -7 0 -12 -9 -4 -13
-33 -13 -95 0 -53 -4 -89 -10 -89 -14 0 -12 -37 3 -44 10 -5 10 -7 0 -12 -15
-6 -18 -727 -6 -1212 l6 -272 193 0 c144 0 194 -3 198 -12 5 -10 7 -10 12 0 3
6 18 12 34 12 16 0 31 -6 34 -12 5 -10 7 -10 12 0 7 14 44 16 44 2 0 -15 77
-12 84 3 5 10 7 10 12 0 7 -15 64 -18 64 -3 0 6 9 10 20 10 11 0 20 -4 20 -10
0 -14 37 -12 44 3 5 10 7 10 12 0 3 -7 23 -13 44 -13 21 0 41 6 44 13 5 10 7
10 12 0 7 -15 64 -18 64 -3 0 6 9 10 20 10 11 0 20 -4 20 -10 0 -15 57 -12 64
3 5 10 7 10 12 0 9 -20 430 -18 450 1 18 18 19 102 2 110 -10 5 -10 7 0 12 14
7 16 44 2 44 -5 0 -10 9 -10 20 0 11 5 20 10 20 6 0 10 9 10 20 0 11 -4 20
-10 20 -5 0 -10 9 -10 20 0 11 5 20 10 20 16 0 13 217 -2 224 -10 5 -10 7 0
12 8 4 12 33 12 95 0 53 4 89 10 89 6 0 10 9 10 20 0 11 -4 20 -10 20 -5 0
-10 18 -10 40 0 22 5 40 10 40 7 0 10 193 10 559 0 438 3 561 13 565 10 5 10
7 0 12 -7 3 -13 19 -13 35 l0 29 -300 0 c-193 0 -300 4 -300 10 0 15 -57 12
-64 -2 -5 -10 -7 -10 -12 0 -4 9 -59 12 -225 12 -139 0 -219 4 -219 10 0 6
-72 10 -197 10 -158 -1 -201 -4 -210 -15z"/>
<path id="sci-storage-nodisp" d="M10253 11385 c-9 -10 -13 -57 -13 -160 l0 -145 490 0 c483 0 490 0
490 20 0 11 -4 20 -10 20 -6 0 -10 40 -10 100 0 60 4 100 10 100 6 0 10 14 10
30 0 23 -4 30 -20 30 -11 0 -20 5 -20 10 0 15 -77 12 -84 -2 -5 -10 -7 -10
-12 0 -3 6 -23 12 -44 12 -21 0 -41 -6 -44 -12 -5 -10 -7 -10 -12 0 -4 8 -35
12 -104 12 -69 0 -100 -4 -104 -12 -5 -10 -7 -10 -12 0 -7 14 -104 17 -104 2
0 -5 -9 -10 -20 -10 -11 0 -20 5 -20 10 0 6 -9 10 -20 10 -11 0 -20 -4 -20
-10 0 -5 -9 -10 -20 -10 -11 0 -20 5 -20 10 0 6 -9 10 -20 10 -11 0 -20 -4
-20 -10 0 -14 -37 -12 -44 3 -5 10 -7 10 -12 0 -7 -15 -64 -18 -64 -3 0 15
-57 12 -64 -2 -5 -10 -7 -10 -12 0 -8 16 -36 15 -51 -3z"/>
<path id="sci-storage" d="M10240 10918 c0 -9 -6 -19 -12 -22 -10 -5 -10 -7 0 -12 7 -4 12 -27
12 -64 0 -37 -5 -60 -12 -63 -10 -4 -9 -8 2 -16 12 -8 16 -48 18 -226 l4 -215
64 0 64 0 0 -40 c0 -22 5 -40 10 -40 6 0 10 -7 10 -16 0 -20 27 -47 39 -40 12
8 1 -37 -11 -45 -5 -3 0 -16 10 -30 11 -13 31 -47 45 -75 14 -27 46 -72 72
-99 25 -27 48 -59 51 -72 5 -20 13 -23 50 -23 24 0 44 5 44 10 0 6 23 10 50
10 29 0 50 5 50 11 0 6 11 9 25 7 27 -3 121 64 131 94 3 10 10 18 15 18 5 0 9
6 9 13 0 7 9 19 20 27 11 8 20 21 20 28 0 7 18 31 40 52 23 22 40 48 40 60 0
12 14 35 30 50 17 15 30 35 30 44 0 9 5 16 10 16 6 0 10 103 10 290 0 187 4
290 10 290 6 0 10 23 10 51 l0 50 -480 -3 c-440 -3 -480 -4 -480 -20z"/>
<path id="203-science" d="M11193 10104 c-29 -29 -53 -59 -53 -67 0 -7 -9 -19 -20 -27 -11 -8
-20 -25 -20 -38 0 -15 -7 -26 -19 -29 -10 -3 -23 -20 -30 -41 -11 -36 -75 -95
-141 -131 -14 -8 -32 -22 -41 -33 -9 -10 -28 -18 -43 -18 -14 0 -26 -4 -26
-10 0 -5 -9 -10 -20 -10 -20 0 -20 -7 -20 -279 0 -214 -3 -281 -12 -285 -10
-5 -10 -7 0 -12 14 -7 17 -84 2 -84 -15 0 -12 -77 3 -84 10 -5 10 -7 0 -12
-15 -7 -17 -44 -3 -44 6 0 10 -13 10 -30 0 -16 -4 -30 -10 -30 -6 0 -10 -43
-10 -110 l0 -110 100 0 c60 0 100 -4 100 -10 0 -5 23 -10 50 -10 28 0 50 -4
50 -10 0 -6 40 -10 100 -10 60 0 100 -4 100 -10 0 -5 23 -10 50 -10 28 0 50 5
50 10 0 6 9 10 20 10 11 0 20 -4 20 -10 0 -7 173 -10 500 -10 327 0 500 -3
500 -10 0 -5 9 -10 20 -10 11 0 20 5 20 10 0 6 14 10 30 10 17 0 30 -4 30 -10
0 -5 14 -10 30 -10 17 0 30 5 30 10 0 6 9 10 20 10 11 0 20 -4 20 -10 0 -6 43
-10 110 -10 l110 0 0 100 c0 60 -4 100 -10 100 -6 0 -10 87 -10 240 0 153 4
240 10 240 6 0 10 9 10 20 0 11 -4 20 -10 20 -15 0 -12 57 3 63 9 4 8 8 -3 17
-11 9 -12 13 -2 17 14 6 16 43 2 43 -15 0 -12 57 3 64 10 5 10 7 0 12 -15 7
-17 44 -3 44 6 0 10 23 10 50 0 28 -4 50 -10 50 -5 0 -10 14 -10 30 0 17 5 30
10 30 15 0 12 78 -2 82 -10 4 -14 51 -16 181 l-3 177 -505 0 c-329 0 -504 3
-504 10 0 15 -57 12 -64 -2 -5 -10 -7 -10 -12 0 -4 9 -43 12 -145 12 -86 0
-139 4 -139 10 0 6 -9 10 -20 10 -11 0 -20 -4 -20 -10 0 -5 -18 -10 -40 -10
-22 0 -40 5 -40 10 0 25 -39 4 -87 -46z"/>
<path id="211-science" d="M8520 9380 l0 -760 250 0 c160 0 250 -4 250 -10 0 -5 22 -10 48 -10
36 0 51 -5 62 -20 8 -11 22 -20 32 -20 10 0 18 -7 18 -16 0 -20 24 -44 44 -44
9 0 16 -7 16 -16 0 -26 26 -44 64 -44 26 0 36 4 36 16 0 8 23 37 50 64 28 27
50 54 50 60 0 40 4 40 624 40 l596 0 0 70 c0 40 -4 70 -10 70 -5 0 -10 23 -10
50 0 28 5 50 10 50 7 0 10 147 10 420 l0 420 -28 0 c-16 0 -34 8 -42 20 -8 11
-20 20 -28 20 -15 0 -62 44 -62 59 0 6 -8 15 -19 20 -24 13 -150 183 -161 218
-4 16 -11 40 -14 56 -6 27 -7 27 -86 27 -47 0 -80 4 -80 10 0 6 -9 10 -20 10
-11 0 -20 -4 -20 -10 0 -6 -83 -10 -230 -10 -147 0 -230 4 -230 10 0 6 -13 10
-30 10 -16 0 -30 -4 -30 -9 0 -13 -193 -11 -203 2 -6 9 -10 9 -14 0 -6 -15
-43 -17 -43 -3 0 6 -27 10 -60 10 -33 0 -60 -4 -60 -10 0 -5 -18 -10 -40 -10
-22 0 -40 5 -40 10 0 16 -437 13 -443 -2 -3 -10 -9 -10 -26 0 -11 6 -46 12
-76 12 l-55 0 0 -760z"/>
<path id="cube-nodisp" d="M8440 8360 l0 -160 160 0 160 0 0 160 0 160 -160 0 -160 0 0 -160z"/>
<path id="atrium-nodisp" d="M8860 8390 c0 -80 -4 -130 -10 -130 -6 0 -10 -40 -10 -100 0 -60 4
-100 10 -100 6 0 10 -9 10 -20 0 -11 -4 -20 -10 -20 -6 0 -10 -86 -10 -239 0
-182 -3 -241 -12 -245 -10 -5 -10 -7 0 -12 14 -7 17 -104 2 -104 -5 0 -10 -9
-10 -20 0 -11 5 -20 10 -20 6 0 10 -9 10 -20 0 -11 -4 -20 -10 -20 -5 0 -10
-9 -10 -20 0 -11 5 -20 10 -20 6 0 10 -13 10 -30 0 -16 -4 -30 -10 -30 -15 0
-13 -197 3 -204 10 -5 10 -7 0 -12 -10 -4 -13 -141 -13 -634 0 -493 -3 -630
-12 -634 -10 -5 -10 -7 0 -12 8 -4 12 -31 12 -84 0 -53 -4 -80 -12 -84 -10 -5
-10 -7 0 -12 14 -7 17 -104 2 -104 -5 0 -10 -4 -10 -10 0 -6 50 -10 130 -10
112 0 130 2 130 16 0 20 24 44 44 44 9 0 16 7 16 16 0 20 24 44 44 44 9 0 16
8 16 20 0 12 7 20 16 20 9 0 26 10 37 23 13 15 21 18 24 10 3 -7 13 -13 24
-13 11 0 19 -7 19 -16 0 -9 14 -29 30 -44 17 -15 30 -35 30 -44 0 -9 7 -16 16
-16 20 0 44 -24 44 -44 0 -12 11 -16 49 -16 30 0 52 -5 55 -12 5 -10 7 -10 12
0 7 14 64 17 64 2 0 -7 143 -10 410 -10 267 0 410 -3 410 -10 0 -15 77 -12 84
3 5 10 7 10 12 0 4 -9 37 -13 113 -13 95 0 108 2 121 20 8 11 22 20 32 20 13
0 18 8 18 26 0 17 16 41 50 74 28 27 50 54 50 60 0 6 18 29 40 50 22 21 40 46
40 54 0 9 5 16 10 16 6 0 10 56 10 149 0 110 3 151 13 154 9 4 8 8 -3 16 -13
10 -13 12 0 21 13 9 13 11 0 21 -11 8 -12 12 -2 16 14 6 17 83 2 83 -5 0 -10
15 -10 34 0 19 5 38 10 41 6 4 10 80 10 196 0 119 -4 189 -10 189 -5 0 -10 23
-10 50 0 28 5 50 10 50 6 0 10 23 10 50 0 28 -4 50 -10 50 -5 0 -10 14 -10 30
0 17 5 30 10 30 15 0 13 177 -2 184 -10 5 -10 7 0 12 9 4 12 125 12 553 0 535
0 547 -20 561 -11 8 -20 22 -20 32 0 10 -4 18 -10 18 -5 0 -10 7 -10 16 0 8
-22 37 -50 64 -27 27 -50 54 -50 60 0 17 -26 40 -44 40 -9 0 -16 5 -16 10 0 6
-50 10 -130 10 -80 0 -130 4 -130 10 0 6 -13 10 -30 10 -16 0 -30 -4 -30 -10
0 -5 -9 -10 -20 -10 -11 0 -20 5 -20 10 0 15 -57 12 -64 -2 -5 -10 -7 -10 -12
0 -7 15 -124 17 -124 2 0 -14 -37 -12 -44 3 -5 10 -7 10 -12 0 -3 -7 -23 -13
-44 -13 -21 0 -41 6 -43 13 -4 9 -8 8 -17 -3 -9 -11 -13 -12 -17 -2 -6 15
-123 17 -123 2 0 -5 -18 -10 -40 -10 -22 0 -40 5 -40 10 0 15 -157 13 -164 -2
-5 -10 -7 -10 -12 0 -3 7 -25 12 -54 12 -30 0 -50 5 -52 12 -6 17 -38 -14 -38
-36 0 -9 -7 -16 -16 -16 -20 0 -44 -24 -44 -44 0 -9 -7 -16 -16 -16 -20 0 -44
-24 -44 -44 0 -9 -7 -16 -16 -16 -18 0 -37 -17 -47 -42 -9 -25 -117 -26 -117
-2 0 9 -13 29 -30 44 -16 15 -30 34 -30 42 0 7 -9 20 -20 28 -11 8 -20 20 -20
28 0 7 -16 28 -35 47 -26 27 -43 35 -70 35 -19 0 -35 5 -35 10 0 14 -37 12
-44 -2 -5 -10 -7 -10 -12 0 -3 6 -23 12 -45 12 l-39 0 0 -130z"/>
<path id="201" d="M11160 8290 c0 -53 -4 -90 -10 -90 -5 0 -10 -9 -10 -20 0 -11 5 -20
10 -20 6 0 10 -18 10 -40 0 -22 -4 -40 -10 -40 -15 0 -12 -57 3 -64 10 -5 10
-7 0 -12 -10 -4 -13 -55 -13 -204 0 -149 -3 -200 -12 -204 -10 -5 -10 -7 0
-12 15 -7 18 -244 2 -244 -14 0 -12 -37 3 -44 10 -5 10 -7 0 -12 -9 -4 -13
-29 -13 -75 0 -62 2 -69 20 -69 11 0 20 -4 20 -10 0 -7 217 -10 630 -10 413 0
630 -3 630 -10 0 -14 37 -12 44 3 5 10 7 10 12 0 7 -15 64 -18 64 -3 0 6 9 10
20 10 11 0 20 -4 20 -10 0 -15 77 -12 84 3 5 10 7 10 12 0 8 -18 72 -16 90 1
16 17 19 46 4 46 -14 0 -12 37 3 43 9 4 8 8 -3 17 -11 9 -12 13 -2 17 14 6 17
83 2 83 -5 0 -10 18 -10 40 0 22 5 40 10 40 7 0 10 167 10 480 l0 480 -220 0
c-140 0 -220 4 -220 10 0 7 -203 10 -590 10 l-590 0 0 -90z"/>
<path id="213-computer" d="M11160 7010 c0 -5 -9 -10 -20 -10 -19 0 -20 -7 -20 -170 0 -107 4
-170 10 -170 14 0 12 -37 -2 -43 -10 -4 -9 -8 2 -17 11 -9 12 -13 3 -17 -16
-6 -18 -183 -3 -183 6 0 10 -9 10 -20 0 -11 -4 -20 -10 -20 -15 0 -13 -137 3
-144 10 -5 10 -7 0 -12 -7 -3 -13 -18 -13 -34 0 -16 6 -31 13 -33 9 -4 8 -8
-3 -17 -11 -9 -12 -13 -2 -17 7 -3 12 -24 12 -53 0 -29 -5 -51 -12 -54 -10 -5
-10 -7 0 -12 9 -4 12 -51 12 -183 0 -165 1 -178 20 -191 11 -8 20 -22 20 -32
0 -11 7 -18 20 -18 15 0 20 -7 20 -26 0 -29 21 -54 44 -54 9 0 16 -7 16 -15 0
-9 11 -27 25 -40 23 -24 29 -25 155 -25 80 0 130 -4 130 -10 0 -6 32 -10 75
-10 43 0 75 -4 75 -10 0 -6 86 -10 239 -10 182 0 241 -3 245 -12 5 -10 7 -10
12 0 3 6 18 12 34 12 16 0 31 -6 34 -12 5 -10 7 -10 12 0 3 6 14 12 24 12 10
0 21 -6 23 -12 4 -10 8 -9 17 2 9 11 13 12 17 3 7 -20 309 -18 329 1 17 18 19
82 2 90 -10 5 -10 7 0 12 6 3 12 14 12 24 0 10 -6 21 -12 24 -10 5 -10 7 0 12
9 4 12 51 12 184 0 133 3 180 13 183 9 4 8 8 -3 16 -13 10 -13 12 0 22 11 8
12 12 3 16 -16 6 -18 103 -3 103 15 0 13 137 -2 144 -10 5 -10 7 0 12 6 3 12
14 12 24 0 10 -6 21 -12 24 -10 5 -10 7 0 12 9 4 12 87 12 365 l0 359 -230 0
c-147 0 -230 4 -230 10 0 6 -9 10 -20 10 -11 0 -20 -4 -20 -10 0 -5 -18 -10
-40 -10 -22 0 -40 5 -40 10 0 7 -170 10 -490 10 -320 0 -490 3 -490 10 0 6 -9
10 -20 10 -11 0 -20 -4 -20 -10z"/>
<path id="202-science" d="M14700 12821 c0 -38 -5 -61 -12 -65 -10 -5 -10 -7 0 -12 14 -7 17
-84 2 -84 -6 0 -10 -90 -10 -250 l0 -250 -46 0 c-29 0 -51 6 -62 17 -12 12
-13 18 -4 21 17 5 15 70 -2 88 -18 17 -82 19 -90 2 -5 -10 -7 -10 -12 0 -8 16
-32 15 -50 -2 -16 -17 -19 -46 -4 -46 6 0 10 -13 10 -30 0 -16 -4 -30 -10 -30
-6 0 -10 -73 -10 -200 l0 -200 76 0 c56 0 80 4 91 16 14 13 14 17 2 25 -12 8
-12 11 1 20 11 8 12 12 3 16 -36 14 0 63 47 63 33 0 75 -30 52 -38 -9 -3 -12
-37 -12 -123 l0 -119 -40 0 c-22 0 -40 -4 -40 -10 0 -5 -9 -10 -20 -10 -11 0
-20 5 -20 10 0 6 -36 10 -89 10 -62 0 -91 4 -95 13 -5 10 -7 10 -12 0 -7 -15
-44 -17 -44 -3 0 6 -87 10 -240 10 l-240 0 0 29 c0 16 -6 32 -12 35 -10 5 -10
7 0 12 6 3 12 19 12 35 l0 29 120 0 c73 0 120 -4 120 -10 0 -5 9 -10 20 -10
11 0 20 5 20 10 0 6 30 10 70 10 40 0 70 -4 70 -10 0 -5 12 -10 26 -10 52 0
54 8 54 274 l0 246 -100 0 c-60 0 -100 4 -100 10 0 14 -37 12 -44 -2 -5 -10
-7 -10 -12 0 -7 14 -44 16 -44 2 0 -5 -9 -10 -20 -10 -11 0 -20 5 -20 10 0 6
-55 10 -146 10 -167 0 -174 -3 -174 -74 0 -25 -4 -46 -10 -46 -15 0 -12 -97 3
-104 10 -5 10 -7 0 -12 -10 -4 -13 -67 -13 -264 0 -189 -3 -259 -12 -262 -9
-3 -11 -141 -9 -558 1 -443 -1 -555 -11 -562 -10 -8 -10 -11 0 -15 7 -3 12
-26 12 -63 0 -37 -5 -60 -12 -64 -10 -5 -10 -7 0 -12 14 -7 16 -44 2 -44 -14
0 -12 -37 3 -44 10 -5 10 -7 0 -12 -10 -4 -13 -73 -13 -294 0 -221 -3 -290
-12 -294 -10 -5 -10 -7 0 -12 14 -7 17 -64 2 -64 -5 0 -10 -18 -10 -40 0 -22
5 -40 10 -40 6 0 10 -9 10 -20 0 -11 5 -20 10 -20 6 0 10 5 10 10 0 6 9 10 20
10 11 0 20 -4 20 -10 0 -6 87 -10 240 -10 l240 0 0 40 c0 22 5 40 10 40 6 0
10 14 10 30 0 17 -4 30 -10 30 -5 0 -10 9 -10 20 0 20 7 20 600 20 393 0 600
3 600 10 0 6 -4 10 -10 10 -6 0 -10 30 -10 69 0 46 -4 71 -12 75 -10 5 -10 7
0 12 8 4 12 37 12 114 0 77 -4 110 -12 114 -10 5 -10 7 0 12 9 4 12 77 12 315
0 199 4 309 10 309 15 0 12 57 -2 64 -10 5 -10 7 0 12 14 7 16 44 2 44 -5 0
-10 9 -10 20 0 11 5 20 10 20 6 0 10 130 10 370 0 240 4 370 10 370 6 0 10 23
10 50 l0 50 -109 0 c-78 0 -111 4 -115 13 -5 10 -7 10 -12 0 -7 -15 -84 -18
-84 -3 0 15 -77 12 -84 -2 -5 -10 -7 -10 -12 0 -4 8 -29 12 -75 12 l-69 0 0
40 c0 22 5 40 10 40 6 0 10 14 10 30 0 17 -4 30 -10 30 -5 0 -10 5 -10 10 0 6
93 10 260 10 167 0 260 4 260 10 0 6 -4 10 -10 10 -5 0 -10 7 -10 15 0 9 -31
47 -70 85 -38 38 -70 74 -70 80 0 6 -27 38 -60 70 -33 32 -60 66 -60 74 0 9
-9 16 -20 16 -13 0 -20 7 -20 20 0 11 5 20 10 20 6 0 10 50 10 129 0 94 3 131
13 134 9 4 8 8 -3 17 -11 9 -12 13 -2 17 15 6 17 123 2 123 -5 0 -10 9 -10 20
0 11 5 20 10 20 17 0 13 189 -4 206 -17 16 -146 20 -146 4 0 -5 -9 -10 -20
-10 -11 0 -20 5 -20 10 0 6 -30 10 -70 10 l-70 0 0 -59z"/>
<path id="204-science" d="M6290 12840 c-8 -12 -26 -20 -42 -20 l-28 0 0 -250 c0 -160 -4 -250
-10 -250 -16 0 -13 -217 3 -224 10 -5 10 -7 0 -12 -9 -4 -13 -39 -13 -125 0
-73 -4 -119 -10 -119 -5 0 -10 -22 -10 -50 0 -27 5 -50 10 -50 6 0 10 -13 10
-30 0 -16 -4 -30 -10 -30 -6 0 -10 -88 -10 -243 l0 -244 227 -6 c124 -4 340
-7 480 -7 162 0 253 -4 253 -10 0 -5 14 -10 30 -10 17 0 30 5 30 10 0 6 14 10
30 10 17 0 30 -4 30 -10 0 -6 50 -10 130 -10 80 0 130 4 130 10 0 14 37 12 44
-2 5 -10 7 -10 12 0 4 8 29 12 75 12 l69 0 0 129 c0 94 3 131 13 135 10 5 10
7 0 12 -15 7 -17 44 -3 44 16 0 13 297 -2 303 -10 4 -10 8 1 15 12 9 13 80 8
472 -6 400 -4 462 8 467 9 3 15 18 15 34 l0 29 -290 0 c-187 0 -290 4 -290 10
0 6 -33 10 -80 10 -47 0 -80 -4 -80 -10 0 -5 -18 -10 -40 -10 -22 0 -40 5 -40
10 0 6 -33 10 -80 10 -47 0 -80 4 -80 10 0 16 -357 13 -364 -2 -5 -10 -7 -10
-12 0 -3 7 -25 12 -53 12 -35 0 -50 -5 -61 -20z"/>
<path id="sci-connector" d="M6333 11033 l-153 -4 0 -293 c0 -226 -3 -296 -12 -300 -10 -5 -10 -7
0 -12 7 -3 12 -25 12 -55 l0 -49 150 0 c93 0 150 -4 150 -10 0 -6 63 -10 170
-10 l170 0 0 330 c0 213 4 330 10 330 6 0 10 14 10 30 l0 30 -60 0 c-33 0 -60
4 -60 10 0 6 -44 9 -117 8 -65 -1 -187 -4 -270 -5z"/>
<path id="206-storage" d="M6920 10811 c0 -158 -3 -211 -12 -215 -10 -5 -10 -7 0 -12 14 -7 17
-64 2 -64 -6 0 -10 -43 -10 -110 l0 -110 139 0 c102 0 141 -3 145 -12 5 -10 7
-10 12 0 7 14 64 17 64 2 0 -6 79 -10 218 -10 l219 0 6 229 c4 125 4 242 1
260 -4 20 -3 31 5 31 7 0 11 35 11 110 l0 110 -170 0 c-107 0 -170 -4 -170
-10 0 -5 -9 -10 -20 -10 -11 0 -20 5 -20 10 0 6 -77 10 -210 10 l-210 0 0
-209z"/>
<path id="208-science" d="M6310 10172 c-105 -2 -150 -6 -140 -12 13 -9 13 -11 0 -21 -11 -8
-12 -12 -2 -16 14 -6 17 -63 2 -63 -6 0 -10 -67 -10 -180 0 -113 4 -180 10
-180 14 0 12 -37 -2 -43 -10 -4 -9 -8 2 -17 11 -9 12 -13 3 -17 -10 -3 -13
-52 -13 -193 0 -141 -3 -190 -12 -194 -10 -5 -10 -7 0 -12 9 -4 12 -75 12
-305 l0 -299 29 0 c16 0 32 -6 34 -12 4 -10 8 -9 17 2 9 11 13 12 17 3 6 -15
43 -17 43 -3 0 6 9 10 20 10 11 0 20 -4 20 -10 0 -14 37 -12 43 3 4 9 8 8 17
-3 9 -11 13 -12 17 -2 6 14 43 16 43 2 0 -15 57 -12 64 3 5 10 7 10 12 0 3 -7
14 -13 24 -13 10 0 21 6 24 13 5 10 7 10 12 0 4 -10 69 -13 275 -13 173 0 269
-4 269 -10 0 -5 9 -10 20 -10 11 0 20 5 20 10 0 15 137 13 144 -2 5 -10 7 -10
12 0 7 14 44 16 44 2 0 -6 54 -10 143 -10 l144 0 6 182 c4 99 7 293 7 429 0
188 3 249 13 253 10 5 10 7 0 12 -9 4 -13 35 -13 104 0 69 4 100 13 104 10 5
10 7 0 12 -15 7 -18 84 -3 84 15 0 12 57 -2 64 -10 5 -10 7 0 12 19 9 16 104
-3 104 -12 0 -15 17 -15 94 0 52 -3 101 -6 110 -7 19 -60 22 -68 4 -5 -10 -7
-10 -12 0 -7 14 -84 17 -84 2 0 -15 -57 -12 -63 3 -4 9 -8 8 -17 -3 -9 -11
-13 -12 -17 -2 -3 9 -56 12 -214 12 -133 0 -209 4 -209 10 0 14 -37 12 -44 -2
-5 -10 -7 -10 -12 0 -6 12 -172 13 -614 4z"/>
<path id="200" d="M14180 9424 c0 -54 -16 -64 -110 -64 -57 0 -86 -4 -96 -14 -11 -12
-14 -55 -14 -220 l0 -206 -190 0 -190 0 0 -80 c0 -47 -4 -80 -10 -80 -5 0 -10
-18 -10 -40 0 -22 5 -40 10 -40 6 0 10 -22 10 -50 0 -27 -4 -50 -10 -50 -6 0
-10 -47 -10 -120 l0 -120 130 0 c80 0 130 -4 130 -10 0 -14 37 -12 44 3 5 10
7 10 12 0 3 -7 14 -13 24 -13 10 0 21 6 24 13 5 10 7 10 12 0 7 -15 64 -18 64
-3 0 6 9 10 20 10 11 0 20 -4 20 -10 0 -7 187 -10 540 -10 353 0 540 -3 540
-10 0 -5 9 -10 20 -10 11 0 20 5 20 10 0 6 30 10 70 10 l70 0 0 249 c0 190 3
251 13 255 10 5 10 7 0 12 -16 7 -19 264 -3 264 6 0 10 14 10 30 0 17 -4 30
-10 30 -16 0 -13 237 2 242 9 3 8 9 -4 21 -14 14 -38 17 -142 17 -77 0 -126 4
-126 10 0 7 -150 10 -430 10 l-430 0 0 -36z"/>
<path id="stairs2" d="M6240 8421 c0 -38 -5 -61 -12 -65 -10 -5 -10 -7 0 -12 9 -4 12 -59
12 -225 0 -139 4 -219 10 -219 6 0 10 -13 10 -30 0 -16 5 -30 10 -30 6 0 10
-13 10 -30 0 -16 5 -30 10 -30 6 0 10 -18 10 -40 0 -22 5 -40 10 -40 6 0 10
-8 10 -18 0 -10 9 -24 20 -32 11 -8 20 -20 20 -27 0 -16 125 -143 141 -143 6
0 21 -10 32 -22 13 -16 21 -19 24 -10 5 14 43 16 43 2 0 -6 73 -10 199 -10
150 0 201 -3 205 -12 5 -10 7 -10 12 0 7 15 144 17 144 2 0 -5 9 -10 20 -10
11 0 20 5 20 10 0 6 24 10 53 10 l54 0 6 188 c4 103 7 328 7 500 l0 312 -50 0
c-27 0 -50 5 -50 10 0 6 -100 10 -279 10 -214 0 -281 3 -285 13 -5 10 -7 10
-12 0 -7 -15 -64 -18 -64 -3 0 15 -97 12 -104 -2 -5 -10 -7 -10 -12 0 -3 6
-23 12 -44 12 -21 0 -41 -6 -44 -12 -5 -10 -7 -10 -12 0 -4 7 -27 12 -65 12
l-59 0 0 -59z"/>
<path id="stairs1" d="M13820 7660 l0 -540 69 0 c46 0 71 -4 75 -12 5 -10 7 -10 12 0 7 14
64 17 64 2 0 -14 37 -12 43 3 4 9 8 8 17 -3 9 -11 13 -12 17 -2 6 14 83 17 83
2 0 -5 9 -10 20 -10 11 0 20 5 20 10 0 6 23 10 50 10 28 0 50 -4 50 -10 0 -16
337 -13 344 3 5 10 7 10 12 0 3 -7 18 -13 34 -13 16 0 31 6 34 13 5 10 7 10
12 0 3 -7 14 -13 24 -13 10 0 21 6 24 13 5 10 7 10 12 0 3 -8 26 -13 60 -13
45 0 59 4 79 25 14 13 25 31 25 40 0 8 5 15 10 15 6 0 10 14 10 30 0 23 4 30
20 30 17 0 20 7 20 50 0 28 5 50 10 50 6 0 10 18 10 40 0 22 5 40 10 40 6 0
10 27 10 60 0 33 4 60 10 60 14 0 12 37 -2 44 -10 5 -10 7 0 12 8 4 12 37 12
114 0 77 -4 110 -12 114 -10 5 -10 7 0 12 14 7 16 44 2 44 -5 0 -10 9 -10 20
0 11 -4 20 -10 20 -5 0 -10 18 -10 40 0 22 -4 40 -10 40 -6 0 -10 32 -10 75 0
67 -3 79 -25 100 l-24 25 -596 0 -595 0 0 -540z"/>
<path id="210" d="M6660 7161 c0 -118 -3 -161 -12 -165 -10 -5 -10 -7 0 -12 6 -3 12
-23 12 -44 0 -21 -6 -41 -12 -44 -10 -5 -10 -7 0 -12 14 -7 17 -64 2 -64 -15
0 -13 -117 3 -124 10 -5 10 -7 0 -12 -7 -3 -13 -18 -13 -34 0 -16 6 -31 13
-34 10 -5 10 -7 0 -12 -10 -4 -13 -45 -13 -155 0 -93 -4 -149 -10 -149 -6 0
-10 -30 -10 -70 0 -40 4 -70 10 -70 6 0 10 -9 10 -20 0 -11 -4 -20 -10 -20
-15 0 -12 -97 3 -104 10 -5 10 -7 0 -12 -20 -9 -18 -270 1 -290 11 -11 47 -14
160 -14 91 0 146 -4 146 -10 0 -5 18 -10 40 -10 22 0 40 5 40 10 0 6 9 10 20
10 11 0 20 -4 20 -10 0 -6 133 -10 380 -10 l380 0 0 25 c0 14 -4 25 -10 25 -6
0 -10 50 -10 130 0 80 4 130 10 130 6 0 10 45 10 115 0 70 4 115 10 115 14 0
12 37 -2 44 -10 5 -10 7 0 12 8 4 12 31 12 84 0 53 -4 80 -12 84 -10 5 -10 7
0 12 15 7 18 264 2 264 -5 0 -10 7 -10 16 0 9 -13 29 -30 44 -16 15 -30 33
-30 40 0 6 -18 29 -40 50 -22 21 -40 44 -40 50 0 7 -13 25 -30 40 -16 15 -30
33 -30 40 0 7 -13 25 -30 40 -16 15 -30 33 -30 40 0 7 -13 25 -30 40 -16 15
-30 35 -30 44 0 9 -8 16 -20 16 -13 0 -20 7 -20 18 0 10 -9 24 -20 32 -11 8
-20 20 -20 28 0 40 -16 42 -343 42 -243 0 -316 3 -320 13 -4 9 -8 8 -17 -3 -9
-11 -13 -12 -17 -2 -2 6 -18 12 -34 12 l-29 0 0 -159z"/>
<path id="212-computer" d="M6120 5170 c0 -267 -3 -410 -10 -410 -5 0 -10 -22 -10 -50 0 -27 5
-50 10 -50 15 0 12 -77 -2 -83 -10 -4 -9 -8 2 -16 13 -10 13 -12 0 -21 -13 -9
-13 -11 0 -20 13 -9 13 -11 0 -21 -11 -8 -12 -12 -2 -16 14 -6 17 -63 2 -63
-5 0 -10 -13 -10 -30 0 -16 5 -30 10 -30 6 0 10 -13 10 -30 0 -16 5 -30 10
-30 6 0 10 -13 10 -28 0 -16 8 -34 20 -42 17 -12 20 -26 20 -82 0 -39 4 -68
10 -68 6 0 10 -40 10 -99 0 -70 4 -101 13 -105 10 -5 10 -7 0 -12 -15 -7 -17
-44 -3 -44 6 0 10 -87 10 -240 l0 -240 320 0 c207 0 320 -4 320 -10 0 -5 9
-10 20 -10 11 0 20 5 20 10 0 14 37 12 43 -2 4 -10 8 -9 17 2 9 11 13 12 17 3
6 -17 40 -17 46 0 4 9 8 8 16 -3 10 -13 12 -13 22 0 8 11 12 12 16 3 6 -15 43
-17 43 -3 0 6 9 10 20 10 11 0 20 -4 20 -10 0 -6 33 -10 80 -10 47 0 80 -4 80
-10 0 -6 27 -10 60 -10 53 0 60 2 60 20 0 11 5 20 10 20 6 0 10 14 10 30 0 17
-4 30 -10 30 -6 0 -10 37 -10 90 0 53 4 90 10 90 15 0 13 117 -2 124 -10 5
-10 7 0 12 9 4 12 49 12 174 0 125 3 170 13 174 10 5 10 7 0 12 -16 7 -18 124
-3 124 6 0 10 70 10 190 0 120 4 190 10 190 6 0 10 23 10 50 0 28 -4 50 -10
50 -5 0 -10 23 -10 50 0 49 1 50 29 50 16 0 31 6 33 12 3 9 10 8 23 -5 15 -16
16 -20 4 -29 -11 -7 -11 -11 -1 -15 6 -2 12 -17 12 -33 0 -16 -6 -31 -12 -34
-10 -5 -10 -7 0 -12 14 -7 17 -64 2 -64 -6 0 -10 -140 -10 -400 l0 -400 100 0
c60 0 100 4 100 10 0 6 9 10 20 10 20 0 20 7 20 420 0 413 0 420 -20 420 -13
0 -20 7 -20 20 0 11 -4 20 -10 20 -5 0 -10 7 -10 16 0 9 -13 29 -30 44 -16 15
-30 35 -30 44 0 9 -4 16 -10 16 -5 0 -10 9 -10 20 0 11 -4 20 -10 20 -5 0 -10
9 -10 20 0 11 5 20 10 20 6 0 10 50 10 130 0 80 -4 130 -10 130 -6 0 -10 40
-10 100 0 60 -4 100 -10 100 -5 0 -10 18 -10 40 0 22 5 40 10 40 16 0 12 89
-4 106 -12 12 -86 14 -449 14 -339 0 -437 3 -441 13 -5 10 -7 10 -12 0 -7 -16
-164 -18 -164 -3 0 6 -9 10 -20 10 -11 0 -20 -4 -20 -10 0 -5 -22 -10 -50 -10
-27 0 -50 5 -50 10 0 6 -13 10 -30 10 -16 0 -30 -4 -30 -10 0 -5 -13 -10 -30
-10 -16 0 -30 5 -30 10 0 15 -97 12 -104 -2 -5 -10 -7 -10 -12 0 -3 6 -19 12
-35 12 l-29 0 0 -410z"/>
<path id="214-computer" d="M13648 5513 c-36 -4 -37 -5 -43 -58 -4 -29 -4 -67 0 -84 5 -22 2 -40
-10 -58 -14 -21 -15 -27 -4 -35 11 -7 11 -11 2 -15 -10 -4 -13 -78 -13 -324 0
-206 -4 -319 -10 -319 -15 0 -12 -57 3 -64 10 -5 10 -7 0 -12 -15 -7 -17 -44
-3 -44 6 0 10 -13 10 -30 0 -16 -4 -30 -10 -30 -7 0 -10 -160 -10 -460 0 -453
0 -460 20 -460 11 0 20 -4 20 -10 0 -5 7 -10 16 -10 9 0 29 -13 44 -30 15 -16
34 -30 42 -30 7 0 20 -9 28 -20 8 -11 21 -20 30 -20 9 0 22 -9 30 -20 8 -11
21 -20 30 -20 9 0 22 -9 30 -20 8 -11 21 -20 30 -20 9 0 22 -9 30 -20 8 -11
25 -20 38 -20 27 0 52 -21 52 -44 0 -11 9 -16 30 -16 17 0 30 -4 30 -10 0 -5
22 -10 49 -10 30 0 52 -5 55 -12 5 -10 7 -10 12 0 7 14 84 17 84 2 0 -5 23
-10 50 -10 28 0 50 5 50 10 0 6 9 10 20 10 11 0 20 -4 20 -10 0 -5 14 -10 30
-10 17 0 30 5 30 10 0 14 37 12 43 -2 4 -10 8 -9 17 2 9 11 13 12 17 3 2 -7
13 -13 23 -13 10 0 21 6 24 13 5 10 7 10 12 0 3 -7 14 -13 24 -13 10 0 21 6
24 13 5 10 7 10 12 0 4 -10 53 -13 195 -13 119 0 189 -4 189 -10 0 -5 14 -10
30 -10 17 0 30 5 30 10 0 6 9 10 20 10 19 0 20 7 20 99 0 70 -4 101 -12 105
-10 5 -10 7 0 12 17 8 16 92 -2 110 -12 12 -101 14 -560 14 l-546 0 0 56 c0
38 5 61 17 72 12 12 18 13 21 4 4 -14 42 -16 42 -2 0 6 14 10 30 10 17 0 30
-4 30 -10 0 -15 57 -12 64 3 5 10 7 10 12 0 3 -8 25 -13 54 -13 29 0 51 5 54
13 5 10 7 10 12 0 4 -9 39 -13 124 -13 85 0 120 4 124 13 5 10 7 10 12 0 4
-10 69 -13 275 -13 l269 0 0 29 c0 16 -6 32 -12 35 -10 5 -10 7 0 12 9 4 12
93 12 395 0 253 4 389 10 389 15 0 12 77 -2 84 -10 5 -10 7 0 12 9 4 12 105
12 455 l0 449 -80 0 c-47 0 -80 4 -80 10 0 16 -297 13 -304 -2 -5 -10 -7 -10
-12 0 -7 15 -124 17 -124 2 0 -5 -9 -10 -20 -10 -11 0 -20 5 -20 10 0 6 -9 10
-20 10 -11 0 -20 -4 -20 -10 0 -5 -9 -10 -20 -10 -11 0 -20 5 -20 10 0 10
-724 12 -812 3z"/>
<path id="library" d="M11250 4500 c-11 -15 -26 -20 -62 -20 -41 0 -48 -3 -48 -20 0 -14 -7
-20 -21 -20 -13 0 -19 -5 -16 -13 4 -10 -3 -12 -24 -9 -21 3 -35 -2 -48 -17
-10 -11 -26 -21 -35 -21 -9 0 -16 -4 -16 -10 0 -5 -13 -10 -30 -10 -16 0 -30
-4 -30 -10 0 -5 -13 -10 -29 -10 -16 0 -32 -6 -35 -12 -5 -10 -7 -10 -12 0 -3
6 -18 12 -34 12 -16 0 -31 6 -33 13 -4 9 -8 8 -17 -3 -9 -11 -13 -12 -17 -2
-3 8 -30 12 -84 12 -46 0 -79 4 -79 10 0 6 -13 10 -30 10 -16 0 -30 5 -30 10
0 6 -27 10 -60 10 -33 0 -60 4 -60 10 0 6 -33 10 -80 10 -95 0 -102 -11 -40
-70 22 -21 40 -46 40 -54 0 -9 5 -16 10 -16 6 0 10 -9 10 -20 0 -13 7 -20 20
-20 16 0 20 -7 20 -30 0 -21 5 -30 16 -30 18 0 44 -24 44 -40 0 -7 14 -25 30
-40 17 -15 30 -35 30 -44 0 -9 5 -16 10 -16 22 0 8 -34 -30 -70 -22 -21 -40
-46 -40 -54 0 -9 -2 -16 -5 -16 -11 0 -55 49 -55 61 0 6 -13 24 -30 39 -16 15
-30 33 -30 40 0 7 -13 25 -30 40 -16 15 -30 35 -30 44 0 9 -4 16 -10 16 -5 0
-10 9 -10 20 0 13 -7 20 -20 20 -12 0 -20 7 -20 16 0 9 -13 29 -30 44 -22 21
-30 37 -30 63 0 20 -6 38 -12 41 -10 5 -10 7 0 12 6 3 12 21 12 40 l0 34 -265
0 c-234 0 -265 2 -265 16 0 13 -2 13 -13 2 -17 -17 -24 -228 -7 -228 5 0 10
-4 10 -10 0 -5 -7 -10 -16 -10 -15 0 -16 -17 -9 -170 5 -121 4 -170 -4 -170
-7 0 -11 -34 -11 -100 0 -60 -4 -100 -10 -100 -7 0 -10 -203 -10 -590 0 -530
-2 -590 -16 -590 -22 0 -53 -32 -36 -38 6 -2 12 -12 12 -23 0 -17 -8 -19 -60
-19 -33 0 -60 4 -60 10 0 18 -35 11 -50 -10 -8 -11 -18 -20 -22 -20 -4 0 -8 9
-8 20 0 17 -7 20 -49 20 -30 0 -52 -5 -55 -12 -5 -10 -7 -10 -12 0 -4 8 -33
12 -94 12 -61 0 -90 4 -94 13 -5 9 -7 9 -12 0 -8 -17 -100 -17 -108 0 -5 10
-7 10 -12 0 -8 -18 -240 -18 -248 0 -5 10 -7 10 -12 0 -4 -8 -27 -13 -64 -13
-37 0 -60 5 -64 13 -5 10 -7 10 -12 0 -3 -8 -25 -13 -54 -13 -29 0 -50 5 -53
13 -4 9 -8 8 -16 -3 -10 -13 -12 -13 -21 0 -9 13 -11 13 -21 0 -8 -11 -12 -12
-16 -2 -6 16 -51 15 -69 -2 -11 -12 -14 -55 -14 -217 l0 -202 100 5 c56 3 103
1 106 -4 3 -4 25 -8 49 -8 25 0 46 -5 49 -12 5 -10 7 -10 12 0 8 17 240 17
248 0 5 -10 7 -10 12 0 8 17 300 17 308 0 5 -10 7 -10 12 0 4 9 59 12 225 12
l219 0 0 -219 c0 -166 -3 -221 -12 -225 -10 -5 -10 -7 0 -12 14 -7 17 -104 2
-104 -15 0 -12 -57 3 -64 10 -5 10 -7 0 -12 -15 -7 -18 -64 -3 -64 14 0 12
-37 -2 -44 -10 -5 -10 -7 0 -12 14 -7 16 -44 2 -44 -15 0 -12 -70 4 -86 12
-12 91 -14 489 -14 371 0 477 -3 481 -12 5 -11 7 -11 12 0 7 14 84 17 84 2 0
-15 117 -13 124 3 5 10 7 10 12 0 7 -15 44 -17 44 -3 0 6 73 10 200 10 127 0
200 -4 200 -10 0 -5 9 -10 20 -10 11 0 20 5 20 10 0 6 9 10 19 10 11 0 22 6
25 13 5 9 7 9 12 0 4 -9 33 -13 94 -13 61 0 90 -4 94 -12 5 -10 7 -10 12 0 8
17 180 17 188 0 5 -10 7 -10 12 0 7 15 164 17 164 2 0 -14 37 -12 44 3 5 9 7
9 12 0 7 -17 41 -17 48 0 5 9 7 9 12 0 7 -15 44 -17 44 -3 0 15 97 12 104 -2
5 -11 7 -11 12 0 3 6 14 12 24 12 10 0 21 -6 24 -12 5 -11 7 -11 12 0 4 8 37
12 114 12 77 0 110 -4 113 -12 4 -10 8 -9 16 2 10 13 12 13 22 0 8 -11 12 -12
16 -2 2 6 13 12 23 12 10 0 21 -6 23 -12 4 -10 8 -9 17 2 9 11 13 12 17 3 6
-16 103 -18 103 -3 0 6 9 10 20 10 11 0 20 -4 20 -10 0 -5 9 -10 20 -10 11 0
20 5 20 10 0 6 9 10 20 10 11 0 20 -4 20 -10 0 -5 18 -10 40 -10 22 0 40 5 40
10 0 15 57 12 63 -2 4 -10 8 -9 17 2 9 11 13 12 17 3 7 -18 139 -18 147 0 5 9
7 9 12 0 7 -17 41 -17 48 0 5 10 7 10 12 0 4 -10 47 -13 164 -13 118 0 159 -3
163 -12 3 -9 11 -5 26 11 l21 24 21 -24 c15 -16 23 -20 26 -11 6 15 123 17
123 2 0 -5 9 -10 20 -10 11 0 20 5 20 10 0 6 18 10 40 10 22 0 40 -4 40 -10 0
-5 14 -10 30 -10 17 0 30 5 30 10 0 6 30 10 70 10 40 0 70 -4 70 -10 0 -5 9
-10 20 -10 11 0 20 5 20 10 0 6 9 10 20 10 11 0 20 -4 20 -10 0 -5 9 -10 20
-10 11 0 20 5 20 10 0 15 177 13 183 -2 4 -10 8 -9 17 2 9 11 13 12 17 3 6
-15 83 -18 83 -3 0 6 9 10 20 10 11 0 20 -4 20 -10 0 -14 37 -12 44 3 5 9 7 9
12 0 3 -7 23 -13 44 -13 21 0 41 6 43 13 4 9 8 8 17 -3 9 -11 13 -12 17 -2 3
8 28 12 73 12 45 0 70 -4 74 -12 5 -10 7 -10 12 0 7 14 84 17 84 2 0 -5 14
-10 30 -10 17 0 30 5 30 10 0 6 9 10 20 10 11 0 20 -4 20 -10 0 -15 49 -12 66
4 19 19 20 201 2 210 -10 5 -10 7 0 12 9 4 12 87 12 365 0 233 4 359 10 359 6
0 10 18 10 40 0 22 -4 40 -10 40 -5 0 -10 9 -10 20 0 11 5 20 10 20 6 0 10 30
10 70 0 40 -4 70 -10 70 -5 0 -10 9 -10 20 0 11 -4 20 -10 20 -5 0 -10 -4 -10
-10 0 -13 -37 -13 -42 0 -2 6 -163 10 -440 11 l-438 2 0 49 c0 26 5 48 10 48
6 0 10 14 10 30 0 17 -4 30 -10 30 -5 0 -10 9 -10 20 0 11 5 20 10 20 6 0 10
30 10 70 0 40 -4 70 -10 70 -5 0 -10 9 -10 20 0 11 5 20 10 20 6 0 10 59 10
156 0 157 -6 184 -40 184 -7 0 -25 14 -40 30 -15 17 -38 30 -50 30 -12 0 -35
14 -50 30 -15 17 -38 30 -50 30 -12 0 -35 14 -50 30 -15 17 -38 30 -50 30 -12
0 -35 14 -50 30 -15 17 -35 30 -44 30 -9 0 -16 5 -16 10 0 6 -8 10 -18 10 -10
0 -24 9 -32 20 -8 11 -22 20 -32 20 -10 0 -18 5 -18 10 0 6 -9 10 -20 10 -13
0 -20 7 -20 20 0 15 -7 20 -26 20 -16 0 -37 12 -54 30 -15 17 -35 30 -44 30
-9 0 -16 5 -16 10 0 6 -9 10 -20 10 -11 0 -20 5 -20 10 0 6 5 10 10 10 14 0
12 37 -2 44 -10 5 -10 7 0 12 9 4 12 61 12 235 0 146 4 229 10 229 6 0 10 14
10 30 0 17 -4 30 -10 30 -5 0 -10 9 -10 20 0 11 5 20 10 20 6 0 10 73 10 200
l0 200 -45 0 c-25 0 -45 -4 -45 -10 0 -6 -72 -10 -195 -10 -123 0 -195 -4
-195 -10 0 -6 -26 -10 -59 -10 -38 0 -61 -4 -64 -12 -4 -10 -8 -9 -17 2 -9 11
-13 12 -17 3 -2 -7 -13 -13 -24 -13 -10 0 -19 -4 -19 -10 0 -5 -18 -10 -40
-10 -22 0 -40 5 -40 10 0 6 -18 10 -40 10 -22 0 -40 5 -40 10 0 6 -30 10 -70
10 -40 0 -70 4 -70 10 0 6 -9 10 -20 10 -11 0 -20 -4 -20 -10 0 -5 -8 -10 -18
-10 -10 0 -24 -9 -32 -20 -8 -11 -22 -20 -32 -20 -10 0 -18 -4 -18 -10 0 -5
-7 -10 -16 -10 -9 0 -29 -14 -45 -31 l-29 -31 -29 31 c-18 19 -39 31 -55 31
-14 0 -26 5 -26 10 0 6 -8 10 -18 10 -10 0 -24 9 -32 20 -10 14 -26 20 -52 20
-21 0 -38 -4 -38 -10 0 -5 -9 -10 -20 -10 -11 0 -20 -4 -20 -10 0 -6 -33 -10
-78 -10 -66 0 -80 3 -92 20 -8 12 -26 20 -42 20 -15 0 -28 5 -28 10 0 6 -27
10 -60 10 -33 0 -60 -4 -60 -10 0 -5 -7 -10 -16 -10 -9 0 -29 -13 -44 -30 -17
-18 -38 -30 -53 -30 -14 0 -28 -6 -31 -12 -5 -10 -7 -10 -12 0 -3 6 -12 12
-21 12 -8 0 -28 14 -43 30 -15 17 -34 30 -42 30 -7 0 -20 9 -28 20 -8 11 -17
20 -20 20 -3 0 -12 -9 -20 -20z"/>
<path id="library-storage-nodisp" d="M8893 4485 c-7 -8 -13 -21 -13 -30 0 -8 -4 -15 -10 -15 -5 0 -10 5
-10 10 0 6 -22 10 -50 10 l-50 0 0 -220 c0 -140 -4 -220 -10 -220 -5 0 -10 -9
-10 -20 0 -11 5 -20 10 -20 6 0 10 -9 10 -20 0 -18 7 -20 60 -20 l60 0 0 -70
0 -70 90 0 c53 0 90 -4 90 -10 0 -5 14 -10 30 -10 17 0 30 5 30 10 0 6 9 10
20 10 11 0 20 -4 20 -10 0 -5 9 -10 20 -10 11 0 20 5 20 10 0 14 37 12 44 -2
5 -10 7 -10 12 0 3 6 14 12 24 12 10 0 21 -6 23 -12 4 -10 8 -9 16 2 10 13 12
13 21 0 9 -13 11 -13 21 0 8 11 12 12 16 3 7 -18 71 -16 89 1 16 16 19 86 4
86 -14 0 -12 37 3 43 9 4 8 8 -3 16 -13 10 -13 12 0 21 13 9 13 11 0 20 -10 7
-12 12 -4 18 21 14 24 59 17 260 -6 187 -7 202 -25 202 -10 0 -18 -4 -18 -10
0 -5 -9 -10 -20 -10 -11 0 -20 5 -20 10 0 6 -9 10 -20 10 -11 0 -20 -4 -20
-10 0 -5 -18 -10 -40 -10 -22 0 -40 5 -40 10 0 6 -9 10 -20 10 -11 0 -20 -4
-20 -10 0 -5 -13 -10 -30 -10 -16 0 -30 5 -30 10 0 6 -13 10 -30 10 -16 0 -30
-4 -30 -10 0 -6 -27 -10 -60 -10 -33 0 -60 4 -60 10 0 6 -8 10 -18 10 -10 0
-24 9 -32 20 -17 23 -40 25 -57 5z"/>
<path id="bathroom-fem" d="M7913 4465 c-8 -9 -13 -45 -13 -100 0 -50 -4 -85 -10 -85 -14 0 -12
-37 3 -44 10 -5 10 -7 0 -12 -10 -4 -13 -53 -13 -194 0 -141 -3 -190 -12 -194
-10 -5 -10 -7 0 -12 8 -4 12 -33 12 -95 l0 -89 -140 0 -140 0 0 -79 c0 -54 -4
-81 -12 -84 -10 -4 -9 -8 2 -17 11 -9 12 -13 3 -17 -10 -3 -13 -46 -13 -163 0
-116 -3 -159 -12 -162 -8 -3 -3 -14 14 -31 27 -27 54 -35 60 -17 2 5 91 10
218 11 118 0 224 5 237 10 14 5 23 5 23 -1 0 -6 22 -10 49 -10 30 0 51 -5 53
-12 3 -9 9 -8 21 4 13 13 17 35 17 92 0 44 4 76 10 76 14 0 12 37 -2 44 -10 5
-10 7 0 12 9 4 12 133 12 591 l0 586 -79 -6 c-56 -3 -81 -2 -85 6 -3 8 -8 7
-16 -3 -9 -11 -13 -12 -17 -2 -2 6 -13 12 -23 12 -10 0 -21 -6 -24 -12 -5 -10
-7 -10 -12 0 -8 17 -96 15 -111 -3z"/>
<path id="bathroom-male" d="M8400 4125 c0 -223 -4 -345 -10 -345 -6 0 -10 -80 -10 -219 0 -166
-3 -221 -12 -225 -10 -5 -10 -7 0 -12 15 -7 17 -164 2 -164 -6 0 -10 -27 -10
-60 0 -33 4 -60 10 -60 6 0 10 -13 10 -30 0 -16 -4 -30 -10 -30 -5 0 -10 -13
-10 -30 0 -16 -4 -30 -10 -30 -5 0 -10 5 -10 10 0 6 -9 10 -20 10 -11 0 -20
-4 -20 -10 0 -5 -9 -10 -20 -10 -11 0 -20 5 -20 10 0 6 -9 10 -20 10 -13 0
-20 -7 -20 -20 0 -11 -4 -20 -10 -20 -14 0 -12 -37 3 -44 10 -5 10 -7 0 -12
-10 -4 -13 -43 -13 -145 l0 -139 280 0 280 0 0 480 c0 313 3 480 10 480 15 0
12 57 -2 64 -10 5 -10 7 0 12 6 3 12 14 12 24 0 10 -6 21 -12 24 -10 5 -10 7
0 12 19 9 16 131 -5 152 -12 12 -18 13 -21 4 -2 -7 -23 -12 -53 -12 l-49 0 0
309 c0 237 3 310 12 313 9 3 8 9 -4 21 -18 18 -88 24 -88 7 0 -5 -9 -10 -20
-10 -11 0 -20 7 -20 15 0 12 -13 15 -60 15 l-60 0 0 -345z"/>
<path id="library-hubs-nodisp" d="M8880 3634 c0 -29 -21 -54 -44 -54 -22 0 -20 -13 4 -30 11 -8 20 -18
20 -22 0 -4 -9 -8 -20 -8 -13 0 -20 -7 -20 -20 0 -12 7 -20 16 -20 22 0 53
-32 36 -38 -14 -4 -16 -42 -2 -42 15 0 13 -157 -2 -164 -10 -5 -10 -7 0 -12
15 -7 17 -124 2 -124 -15 0 -12 -57 3 -64 10 -5 10 -7 0 -12 -10 -4 -13 -55
-13 -205 0 -126 -4 -199 -10 -199 -15 0 -12 -29 4 -46 11 -11 49 -14 170 -14
97 0 156 -4 156 -10 0 -14 37 -12 44 3 5 10 7 10 12 0 7 -15 44 -17 44 -3 0 6
33 10 80 10 l80 0 0 530 c0 347 -3 530 -10 530 -5 0 -10 9 -10 20 0 23 -34 28
-44 8 -5 -10 -7 -10 -12 0 -4 9 -63 12 -245 12 l-239 0 0 -26z"/>
<path id="library-seminar2-nodisp" d="M14260 2971 c0 -30 -5 -52 -12 -55 -10 -5 -10 -7 0 -12 7 -3 12 -25
12 -54 0 -29 -5 -51 -12 -54 -10 -5 -10 -7 0 -12 14 -7 16 -44 2 -44 -6 0 -10
-52 -10 -136 0 -104 3 -139 14 -150 12 -12 82 -14 420 -14 l406 0 0 260 c0
167 4 260 10 260 6 0 10 5 10 10 0 6 -9 10 -20 10 -11 0 -20 4 -20 8 0 5 -13
9 -30 9 -16 0 -30 -4 -30 -9 0 -4 -9 -8 -20 -8 -11 0 -20 5 -20 10 0 6 -43 10
-109 10 -78 0 -111 4 -114 13 -4 9 -8 8 -17 -3 -9 -11 -13 -12 -17 -2 -6 14
-63 17 -63 2 0 -6 -27 -10 -60 -10 -33 0 -60 4 -60 10 0 14 -37 12 -43 -2 -4
-10 -8 -9 -16 2 -8 10 -13 12 -18 4 -13 -17 -53 -24 -46 -8 4 11 -9 14 -66 14
l-71 0 0 -49z"/>
<path id="library-bgs-nodisp" d="M7580 2920 c0 -11 -4 -20 -10 -20 -7 0 -10 -196 -10 -569 0 -446 -3
-571 -12 -575 -10 -5 -10 -7 0 -12 6 -3 12 -18 12 -34 0 -16 -6 -31 -12 -33
-10 -4 -9 -8 2 -16 13 -10 13 -12 0 -21 -13 -9 -13 -11 0 -21 11 -8 12 -12 3
-16 -8 -3 -13 -24 -13 -53 0 -29 5 -51 13 -54 10 -5 10 -7 0 -12 -9 -4 -13
-31 -13 -84 0 -53 4 -80 13 -84 10 -5 10 -7 0 -12 -21 -9 -17 -171 4 -192 12
-12 18 -13 21 -4 5 15 122 17 122 2 0 -15 77 -12 84 3 5 9 7 9 12 0 4 -8 27
-13 64 -13 37 0 60 5 64 13 5 9 7 9 12 0 4 -9 29 -13 75 -13 l69 0 0 50 c0 28
-4 50 -10 50 -5 0 -10 9 -10 20 0 11 5 20 10 20 6 0 10 47 10 120 0 73 4 120
10 120 6 0 10 14 10 30 0 17 -4 30 -10 30 -5 0 -10 9 -10 20 0 11 5 20 10 20
15 0 12 97 -2 104 -10 5 -10 7 0 12 9 4 12 139 12 625 l0 619 -30 0 c-16 0
-30 -4 -30 -10 0 -5 -13 -10 -30 -10 -16 0 -30 5 -30 10 0 14 -37 12 -44 -2
-5 -10 -7 -10 -12 0 -7 15 -124 17 -124 2 0 -5 -9 -10 -20 -10 -11 0 -20 5
-20 10 0 15 -117 13 -124 -2 -5 -10 -7 -10 -12 0 -10 20 -44 15 -44 -8z"/>
<path id="library-seminar1-nodisp" d="M8200 1875 c0 -8 -4 -15 -10 -15 -15 0 -13 -117 3 -123 9 -4 8 -8 -3
-16 -13 -10 -13 -12 0 -22 11 -8 12 -12 3 -16 -15 -6 -17 -43 -3 -43 6 0 10
-9 10 -20 0 -11 -4 -20 -10 -20 -6 0 -10 -47 -10 -120 0 -73 -4 -120 -10 -120
-6 0 -10 -50 -10 -130 l0 -130 240 0 c153 0 240 -4 240 -10 0 -5 14 -10 30
-10 17 0 30 5 30 10 0 6 14 10 30 10 17 0 30 -4 30 -10 0 -15 97 -12 104 3 5
10 7 10 12 0 4 -10 45 -13 154 -13 109 0 150 3 154 13 5 10 7 10 12 0 4 -9 37
-13 115 -13 l109 0 0 390 0 390 -220 0 c-140 0 -220 4 -220 10 0 6 -9 10 -20
10 -11 0 -20 -4 -20 -10 0 -5 -18 -10 -40 -10 -22 0 -40 5 -40 10 0 6 -9 10
-20 10 -11 0 -20 -4 -20 -10 0 -5 -9 -10 -20 -10 -11 0 -20 5 -20 10 0 6 -9
10 -20 10 -11 0 -20 -4 -20 -10 0 -5 -9 -10 -20 -10 -11 0 -20 5 -20 10 0 14
-37 12 -43 -2 -4 -10 -8 -9 -17 2 -9 11 -13 12 -17 3 -6 -16 -103 -18 -103 -3
0 6 -30 10 -70 10 -40 0 -70 -4 -70 -10 0 -5 -9 -10 -20 -10 -11 0 -20 7 -20
15 0 12 -14 15 -70 15 -56 0 -70 -3 -70 -15z"/>
<text>
 <textpath xlink:href="#271">datboi</textpath>
</text>
</g>
</svg>
