<?xml version="1.0" standalone="no"?>
<!DOCTYPE svg PUBLIC "-//W3C//DTD SVG 20010904//EN"
 "http://www.w3.org/TR/2001/REC-SVG-20010904/DTD/svg10.dtd">
<svg version="1.0" xmlns="http://www.w3.org/2000/svg"
 width="1534.000000pt" height="1844.000000pt" viewBox="0 0 1534.000000 1844.000000"
 preserveAspectRatio="xMidYMid meet">
<metadata>
Created by potrace 1.13, written by Peter Selinger 2001-2015
</metadata>
<g transform="translate(0.000000,1844.000000) scale(0.100000,-0.100000)"
fill="#000000" stroke="none">
<path d="M2223 18235 c-13 -13 -23 -30 -23 -37 0 -8 -9 -20 -20 -28 -11 -8
-20 -22 -20 -32 0 -10 -4 -18 -10 -18 -5 0 -10 -7 -10 -16 0 -20 -24 -44 -44
-44 -11 0 -16 -9 -16 -26 0 -16 -12 -37 -30 -54 -16 -15 -30 -35 -30 -44 0 -9
-4 -16 -10 -16 -5 0 -10 -9 -10 -20 0 -13 -7 -20 -20 -20 -15 0 -20 -7 -20
-26 0 -17 -14 -39 -40 -64 -22 -21 -40 -45 -40 -52 0 -7 -9 -20 -20 -28 -11
-8 -20 -21 -20 -28 0 -8 -13 -27 -30 -42 -16 -15 -30 -33 -30 -40 0 -7 -13
-25 -30 -40 -16 -15 -30 -38 -30 -50 0 -25 -22 -50 -44 -50 -11 0 -16 -9 -16
-28 0 -16 -8 -34 -20 -42 -11 -8 -20 -21 -20 -28 0 -8 -14 -27 -31 -43 l-30
-28 55 -56 c31 -30 60 -55 66 -55 17 0 40 -26 40 -44 0 -10 9 -16 26 -16 17 0
41 -16 74 -50 27 -27 51 -50 54 -50 3 0 6 9 6 20 0 11 5 20 10 20 6 0 10 8 10
18 0 10 9 24 20 32 12 8 20 26 20 42 0 19 5 28 16 28 23 0 44 25 44 54 0 14 5
26 10 26 6 0 10 9 10 20 0 13 7 20 20 20 16 0 20 7 20 30 0 21 5 30 16 30 23
0 44 25 44 54 0 19 5 26 20 26 12 0 20 7 20 16 0 8 18 33 40 54 22 21 40 46
40 54 0 9 5 16 10 16 6 0 10 9 10 20 0 11 5 20 10 20 6 0 10 8 10 18 0 10 9
24 20 32 11 8 20 21 20 28 0 8 14 27 30 42 17 15 30 34 30 42 0 7 9 20 20 28
11 8 20 21 20 28 0 8 14 27 30 42 18 17 30 38 30 54 0 19 5 26 20 26 11 0 20
7 20 15 0 20 -65 85 -85 85 -8 0 -15 7 -15 16 0 20 -24 44 -44 44 -9 0 -16 7
-16 16 0 20 -24 44 -44 44 -9 0 -16 7 -16 15 0 13 -43 66 -52 64 -2 0 -13 -11
-25 -24z"/>
<path d="M2603 17875 c-13 -13 -23 -31 -23 -40 0 -8 -4 -15 -10 -15 -5 0 -10
-7 -10 -16 0 -9 -13 -29 -30 -44 -16 -15 -30 -33 -30 -40 0 -7 -13 -25 -30
-40 -16 -15 -30 -35 -30 -44 0 -9 -4 -16 -10 -16 -5 0 -10 -9 -10 -20 0 -13
-7 -20 -20 -20 -15 0 -20 -7 -20 -26 0 -16 -12 -37 -30 -54 -16 -15 -30 -33
-30 -40 0 -7 -13 -25 -30 -40 -16 -15 -30 -38 -30 -50 0 -12 -13 -35 -30 -50
-16 -15 -30 -38 -30 -50 0 -25 -22 -50 -44 -50 -11 0 -16 -9 -16 -26 0 -17
-14 -39 -40 -64 -22 -21 -40 -45 -40 -52 0 -7 -9 -20 -20 -28 -11 -8 -20 -21
-20 -30 0 -9 -9 -22 -20 -30 -11 -8 -20 -22 -20 -32 0 -10 -4 -18 -10 -18 -5
0 -10 -9 -10 -20 0 -13 7 -20 18 -20 10 0 24 -9 32 -20 8 -11 22 -20 32 -20
11 0 18 -7 18 -20 0 -12 7 -20 16 -20 8 0 33 -18 54 -40 21 -22 46 -40 54 -40
9 0 16 -8 16 -20 0 -12 7 -20 16 -20 20 0 44 -24 44 -44 0 -11 9 -16 30 -16
27 0 30 -3 30 -30 0 -27 3 -30 30 -30 21 0 30 -5 30 -16 0 -18 23 -44 40 -44
6 0 42 -31 80 -70 38 -38 74 -70 80 -70 6 0 33 -22 60 -50 27 -27 56 -50 64
-50 9 0 16 -9 16 -20 0 -11 2 -20 5 -20 12 0 55 50 55 62 0 8 9 20 20 28 11 8
20 21 20 30 0 9 9 22 20 30 11 8 20 21 20 30 0 9 9 22 20 30 12 8 20 26 20 42
0 19 5 28 16 28 19 0 44 24 44 42 0 8 9 20 20 28 11 8 20 21 20 30 0 9 9 22
20 30 11 8 20 21 20 30 0 9 9 22 20 30 11 8 20 21 20 30 0 9 9 22 20 30 11 8
20 21 20 28 0 7 18 31 40 52 26 25 40 47 40 64 0 19 5 26 20 26 13 0 20 7 20
20 0 11 5 20 10 20 6 0 10 9 10 20 0 13 7 20 20 20 13 0 20 7 20 20 0 11 5 20
10 20 6 0 10 12 10 26 0 29 21 54 44 54 9 0 16 8 16 20 0 11 5 20 10 20 6 0
10 9 10 20 0 11 -4 20 -10 20 -5 0 -10 7 -10 16 0 18 -24 44 -40 44 -7 0 -25
14 -40 30 -15 17 -35 30 -44 30 -9 0 -16 8 -16 20 0 11 -7 20 -15 20 -9 0 -51
36 -95 80 -44 44 -86 80 -95 80 -8 0 -15 9 -15 20 0 13 -7 20 -20 20 -12 0
-20 7 -20 16 0 18 -24 44 -40 44 -7 0 -25 14 -40 30 -15 17 -35 30 -44 30 -9
0 -16 7 -16 16 0 20 -24 44 -44 44 -9 0 -16 7 -16 16 0 19 -24 44 -42 44 -8 0
-20 9 -28 20 -8 11 -21 20 -30 20 -9 0 -22 9 -30 20 -18 25 -20 24 -47 -5z"/>
<path d="M1460 17142 c0 -10 -9 -24 -20 -32 -11 -8 -20 -25 -20 -38 0 -14 -13
-36 -30 -52 -16 -15 -30 -35 -30 -44 0 -9 -4 -16 -10 -16 -5 0 -10 -7 -10 -16
0 -8 -22 -37 -50 -64 -27 -27 -50 -55 -50 -62 0 -8 -9 -20 -20 -28 -11 -8 -20
-22 -20 -32 0 -10 -4 -18 -10 -18 -5 0 -10 -7 -10 -16 0 -9 -13 -29 -30 -44
-16 -15 -30 -34 -30 -42 0 -7 -9 -20 -20 -28 -11 -8 -20 -22 -20 -32 0 -10 -4
-18 -10 -18 -5 0 -10 -7 -10 -16 0 -20 -24 -44 -44 -44 -11 0 -16 -9 -16 -28
0 -16 -8 -34 -20 -42 -11 -8 -20 -20 -20 -28 0 -16 45 -62 60 -62 17 0 40 -26
40 -44 0 -11 9 -16 30 -16 27 0 30 -3 30 -30 0 -21 5 -30 16 -30 20 0 44 -24
44 -44 0 -11 9 -16 30 -16 21 0 30 -5 30 -16 0 -20 24 -44 44 -44 9 0 16 -8
16 -20 0 -13 7 -20 18 -20 10 0 24 -9 32 -20 8 -11 22 -20 32 -20 10 0 18 -7
18 -15 0 -18 64 -85 81 -85 6 0 24 -13 39 -30 15 -16 35 -30 44 -30 9 0 16 -7
16 -16 0 -18 23 -44 40 -44 17 0 40 -26 40 -44 0 -9 7 -16 16 -16 20 0 44 -24
44 -44 0 -11 9 -16 30 -16 21 0 30 -5 30 -16 0 -20 24 -44 44 -44 9 0 16 -8
16 -20 0 -13 7 -20 18 -20 10 0 24 -9 32 -20 8 -11 20 -20 28 -20 7 0 48 -36
92 -80 44 -44 84 -80 90 -80 17 0 40 -26 40 -44 0 -9 7 -16 16 -16 9 0 29 -13
44 -30 15 -16 35 -30 44 -30 9 0 16 -7 16 -16 0 -18 23 -44 40 -44 6 0 38 -27
70 -60 32 -33 64 -60 70 -60 6 0 38 -27 70 -60 32 -33 64 -60 70 -60 17 0 40
-26 40 -44 0 -9 7 -16 16 -16 9 0 29 -13 44 -30 15 -16 35 -30 44 -30 9 0 16
-7 16 -16 0 -20 24 -44 44 -44 9 0 16 -8 16 -20 0 -11 7 -20 16 -20 8 0 42
-27 74 -60 32 -33 66 -60 74 -60 9 0 16 -9 16 -20 0 -13 7 -20 18 -20 10 0 24
-9 32 -20 8 -11 22 -20 32 -20 10 0 18 -7 18 -15 0 -18 84 -105 101 -105 6 0
24 -13 39 -30 15 -16 35 -30 44 -30 9 0 16 -7 16 -16 0 -20 24 -44 44 -44 9 0
16 -7 16 -16 0 -18 24 -44 40 -44 7 0 25 -13 40 -30 15 -16 33 -30 40 -30 16
0 40 -26 40 -44 0 -9 7 -16 16 -16 8 0 42 -27 74 -60 32 -33 64 -60 70 -60 17
0 40 -26 40 -44 0 -9 7 -16 16 -16 20 0 44 -24 44 -44 0 -11 9 -16 30 -16 27
0 30 -3 30 -30 0 -26 4 -30 26 -30 18 0 42 -18 84 -60 32 -33 64 -60 70 -60 6
0 38 -27 70 -60 32 -33 64 -60 70 -60 17 0 40 -26 40 -44 0 -9 7 -16 16 -16
20 0 44 -24 44 -44 0 -9 7 -16 16 -16 20 0 44 -24 44 -44 0 -9 7 -16 16 -16 9
0 29 -13 44 -30 15 -16 35 -30 44 -30 11 0 16 -9 16 -30 0 -27 3 -30 30 -30
21 0 30 -5 30 -16 0 -18 23 -44 40 -44 6 0 29 -18 50 -40 21 -22 44 -40 50
-40 6 0 33 -22 60 -50 27 -27 54 -50 60 -50 17 0 40 -26 40 -44 0 -9 7 -16 16
-16 20 0 44 -24 44 -44 0 -9 7 -16 16 -16 9 0 29 -13 44 -30 15 -16 33 -30 40
-30 16 0 40 -26 40 -44 0 -9 8 -16 20 -16 12 0 20 -7 20 -16 0 -18 23 -44 40
-44 17 0 40 -26 40 -44 0 -9 8 -16 18 -16 10 0 24 -9 32 -20 8 -11 20 -20 28
-20 7 0 44 -31 82 -70 38 -38 74 -70 80 -70 17 0 40 -26 40 -44 0 -9 7 -16 16
-16 20 0 44 -24 44 -44 0 -11 9 -16 30 -16 27 0 30 -3 30 -30 0 -27 3 -30 30
-30 21 0 30 -5 30 -16 0 -20 24 -44 44 -44 9 0 16 -7 16 -16 0 -26 26 -44 64
-44 26 0 36 -4 36 -15 0 -19 44 -65 62 -65 8 0 20 -9 28 -20 8 -11 22 -20 32
-20 10 0 18 -7 18 -16 0 -18 24 -44 40 -44 7 0 25 -13 40 -30 15 -16 33 -30
40 -30 6 0 29 -18 50 -40 21 -22 46 -40 54 -40 9 0 16 -8 16 -20 0 -12 7 -20
16 -20 9 0 29 -13 44 -30 15 -16 34 -30 42 -30 7 0 20 -9 28 -20 8 -11 21 -20
28 -20 8 0 27 -13 42 -30 l28 -30 171 0 171 0 0 414 c0 228 -3 421 -6 430 -3
9 -13 16 -21 16 -8 0 -32 18 -53 40 -21 22 -46 40 -54 40 -9 0 -16 8 -16 20 0
11 -7 20 -16 20 -8 0 -42 27 -74 60 -32 33 -64 60 -70 60 -17 0 -40 26 -40 44
0 9 -7 16 -16 16 -20 0 -44 24 -44 44 0 11 -9 16 -30 16 -21 0 -30 5 -30 16 0
18 -23 44 -40 44 -6 0 -55 45 -110 100 -55 55 -104 100 -110 100 -6 0 -46 36
-90 80 -44 44 -86 80 -95 80 -8 0 -15 7 -15 16 0 18 -23 44 -40 44 -6 0 -38
27 -70 60 -32 33 -66 60 -74 60 -11 0 -16 10 -16 30 0 27 -3 30 -30 30 -21 0
-30 5 -30 16 0 20 -24 44 -44 44 -9 0 -16 8 -16 20 0 11 -7 20 -15 20 -9 0
-27 11 -40 25 -14 13 -25 31 -25 40 0 8 -7 15 -16 15 -9 0 -29 14 -44 30 -15
17 -33 30 -39 30 -7 0 -56 45 -111 100 -55 55 -106 100 -115 100 -8 0 -15 9
-15 20 0 12 -7 20 -16 20 -20 0 -44 24 -44 44 0 9 -7 16 -16 16 -20 0 -44 24
-44 44 0 11 -9 16 -30 16 -21 0 -30 5 -30 16 0 18 -23 44 -40 44 -16 0 -80 67
-80 85 0 8 -7 15 -16 15 -20 0 -44 24 -44 44 0 9 -8 16 -20 16 -11 0 -20 5
-20 10 0 6 -7 10 -15 10 -9 0 -56 41 -105 90 -49 50 -94 90 -100 90 -17 0 -40
26 -40 44 0 9 -7 16 -16 16 -20 0 -44 24 -44 44 0 9 -7 16 -16 16 -20 0 -44
24 -44 44 0 9 -7 16 -16 16 -9 0 -29 14 -44 30 -15 17 -35 30 -44 30 -9 0 -16
7 -16 16 0 20 -24 44 -44 44 -9 0 -16 7 -16 16 0 20 -24 44 -44 44 -9 0 -16 8
-16 20 0 12 -7 20 -16 20 -9 0 -29 14 -44 30 -15 17 -33 30 -39 30 -7 0 -47
36 -91 80 -44 44 -86 80 -95 80 -8 0 -15 9 -15 20 0 12 -7 20 -16 20 -9 0 -29
14 -44 30 -15 17 -35 30 -44 30 -9 0 -16 7 -16 16 0 20 -24 44 -44 44 -9 0
-16 8 -16 20 0 11 -7 20 -15 20 -20 0 -105 85 -105 105 0 8 -7 15 -16 15 -8 0
-33 18 -54 40 -21 22 -44 40 -50 40 -7 0 -25 14 -40 30 -15 17 -33 30 -40 30
-16 0 -40 26 -40 44 0 9 -7 16 -16 16 -20 0 -44 24 -44 44 0 9 -7 16 -16 16
-9 0 -29 14 -44 30 -15 17 -35 30 -44 30 -9 0 -16 7 -16 16 0 20 -24 44 -44
44 -9 0 -16 7 -16 16 0 18 -23 44 -40 44 -6 0 -38 27 -70 60 -32 33 -64 60
-70 60 -6 0 -42 32 -80 70 -38 39 -76 70 -85 70 -8 0 -15 9 -15 20 0 12 -7 20
-16 20 -20 0 -44 24 -44 44 0 11 -9 16 -30 16 -21 0 -30 5 -30 16 0 8 -6 22
-14 30 -8 8 -22 14 -30 14 -9 0 -16 8 -16 20 0 11 -7 20 -15 20 -9 0 -56 41
-105 90 -49 50 -94 90 -100 90 -7 0 -29 18 -50 40 -21 22 -44 40 -50 40 -17 0
-40 26 -40 44 0 9 -7 16 -16 16 -20 0 -44 24 -44 44 0 11 -9 16 -30 16 -23 0
-30 4 -30 20 0 11 -7 20 -16 20 -8 0 -37 23 -64 50 -27 28 -56 50 -64 50 -9 0
-16 9 -16 20 0 12 -7 20 -16 20 -8 0 -33 18 -54 40 -21 22 -46 40 -54 40 -9 0
-16 8 -16 20 0 12 -7 20 -16 20 -9 0 -29 14 -44 30 -31 33 -60 39 -60 12z"/>
<path d="M3500 17104 c0 -9 -13 -29 -30 -44 -16 -15 -30 -34 -30 -42 0 -7 -9
-20 -20 -28 -11 -8 -20 -21 -20 -28 0 -8 -13 -27 -30 -42 -16 -15 -30 -34 -30
-42 0 -7 -9 -20 -20 -28 -11 -8 -20 -22 -20 -32 0 -10 -4 -18 -10 -18 -5 0
-10 -9 -10 -20 0 -12 -7 -20 -16 -20 -19 0 -44 -24 -44 -42 0 -8 -9 -20 -20
-28 -11 -8 -20 -22 -20 -32 0 -10 -4 -18 -10 -18 -5 0 -10 -7 -10 -16 0 -9
-13 -29 -30 -44 -16 -15 -30 -35 -30 -44 0 -9 -4 -16 -10 -16 -5 0 -10 -7 -10
-16 0 -9 -13 -29 -30 -44 -16 -15 -30 -34 -30 -42 0 -7 -9 -20 -20 -28 -11 -8
-20 -20 -20 -28 0 -18 -25 -42 -44 -42 -11 0 -16 -9 -16 -26 0 -16 -12 -37
-30 -54 -16 -15 -30 -35 -30 -43 0 -9 -6 -18 -12 -21 -10 -5 -10 -7 0 -12 6
-3 12 -12 12 -21 0 -19 24 -43 44 -43 9 0 16 -7 16 -16 0 -20 24 -44 44 -44 9
0 16 -8 16 -20 0 -13 7 -20 18 -20 10 0 24 -9 32 -20 8 -11 22 -20 32 -20 11
0 18 -7 18 -20 0 -12 7 -20 16 -20 20 0 44 -24 44 -44 0 -9 7 -16 16 -16 9 0
29 -13 44 -30 15 -16 33 -30 40 -30 16 0 40 -26 40 -44 0 -11 9 -16 30 -16 27
0 30 -3 30 -30 0 -27 3 -30 30 -30 21 0 30 -5 30 -16 0 -20 24 -44 44 -44 9 0
16 -7 16 -16 0 -20 24 -44 43 -44 9 0 17 -6 19 -12 7 -21 38 17 38 46 0 17 6
26 16 26 20 0 44 24 44 44 0 9 5 16 10 16 6 0 10 8 10 18 0 10 9 24 20 32 12
8 20 26 20 42 0 19 5 28 16 28 18 0 44 24 44 40 0 7 14 25 30 40 17 15 30 33
30 40 0 7 14 25 30 40 17 15 30 33 30 40 0 7 14 25 30 40 17 15 30 38 30 50 0
12 14 35 30 50 17 15 30 33 30 40 0 7 14 25 30 40 17 15 30 38 30 50 0 12 14
35 30 50 17 15 30 33 30 40 0 7 14 25 30 40 17 15 30 35 30 44 0 9 5 16 10 16
6 0 10 9 10 19 0 11 5 21 12 23 14 5 -34 58 -52 58 -17 0 -40 26 -40 44 0 9
-8 16 -20 16 -12 0 -20 7 -20 16 0 23 -25 44 -54 44 -17 0 -26 6 -26 16 0 20
-24 44 -44 44 -9 0 -16 7 -16 16 0 18 -23 44 -40 44 -17 0 -40 26 -40 44 0 9
-8 16 -20 16 -11 0 -20 5 -20 10 0 6 -7 10 -15 10 -9 0 -65 50 -125 110 -60
61 -116 110 -125 110 -8 0 -15 5 -15 10 0 6 -4 10 -10 10 -5 0 -10 -7 -10 -16z"/>
<path d="M4263 16375 c-13 -13 -23 -31 -23 -40 0 -8 -4 -15 -10 -15 -5 0 -10
-8 -10 -18 0 -10 -9 -24 -20 -32 -11 -8 -20 -21 -20 -28 0 -8 -13 -27 -30 -42
-16 -15 -30 -34 -30 -42 0 -7 -9 -20 -20 -28 -11 -8 -20 -21 -20 -30 0 -9 -9
-22 -20 -30 -11 -8 -20 -22 -20 -32 0 -11 -7 -18 -20 -18 -15 0 -20 -7 -20
-26 0 -16 -12 -37 -30 -54 -16 -15 -30 -38 -30 -50 0 -12 -13 -35 -30 -50 -16
-15 -30 -33 -30 -40 0 -7 -13 -25 -30 -40 -16 -15 -30 -35 -30 -44 0 -9 -4
-16 -10 -16 -5 0 -10 -9 -10 -20 0 -13 -7 -20 -20 -20 -12 0 -20 -7 -20 -16 0
-9 -13 -29 -30 -44 -16 -15 -30 -34 -30 -42 0 -7 -9 -20 -20 -28 -11 -8 -20
-21 -20 -29 0 -7 -9 -22 -21 -32 l-21 -18 36 -35 c19 -20 40 -36 47 -36 6 0
24 -13 39 -30 15 -16 33 -30 40 -30 16 0 40 -26 40 -44 0 -9 7 -16 16 -16 20
0 44 -24 44 -44 0 -9 8 -16 18 -16 10 0 24 -9 32 -20 8 -11 20 -20 28 -20 18
0 42 -25 42 -44 0 -9 8 -16 18 -16 10 0 24 -9 32 -20 8 -11 22 -20 32 -20 10
0 18 -7 18 -16 0 -18 23 -44 40 -44 6 0 46 -36 90 -80 44 -44 86 -80 95 -80 8
0 15 -9 15 -20 0 -13 7 -20 20 -20 13 0 20 7 20 18 0 10 9 24 20 32 11 8 20
22 20 32 0 10 5 18 10 18 6 0 10 8 10 18 0 10 9 24 20 32 11 8 20 21 20 30 0
9 9 22 20 30 11 8 20 21 20 28 0 8 14 27 30 42 17 15 30 34 30 42 0 7 9 20 20
28 11 8 20 21 20 30 0 9 9 22 20 30 11 8 20 22 20 32 0 11 7 18 20 18 15 0 20
7 20 26 0 16 12 37 30 54 17 15 30 38 30 50 0 25 22 50 44 50 11 0 16 9 16 26
0 17 14 39 40 64 22 21 40 45 40 52 0 7 9 20 20 28 11 8 20 21 20 30 0 9 9 22
20 30 11 8 20 21 20 29 0 7 9 22 21 32 l21 18 -46 45 c-25 25 -50 46 -56 46
-17 0 -40 26 -40 44 0 11 -9 16 -30 16 -21 0 -30 5 -30 16 0 20 -24 44 -44 44
-11 0 -16 9 -16 30 0 27 -3 30 -30 30 -27 0 -30 3 -30 30 0 27 -3 30 -30 30
-23 0 -30 4 -30 20 0 11 -7 20 -15 20 -9 0 -60 45 -115 100 -55 55 -106 100
-115 100 -8 0 -15 9 -15 20 0 13 -7 20 -18 20 -10 0 -24 9 -32 20 -19 26 -40
24 -67 -5z"/>
<path d="M860 16230 c0 -23 -4 -30 -20 -30 -13 0 -20 -7 -20 -18 0 -10 -9 -24
-20 -32 -11 -8 -20 -21 -20 -28 0 -8 -13 -27 -30 -42 -16 -15 -30 -35 -30 -44
0 -9 -4 -16 -10 -16 -5 0 -10 -7 -10 -16 0 -20 -24 -44 -44 -44 -11 0 -16 -9
-16 -26 0 -16 -12 -37 -30 -54 -16 -15 -30 -38 -30 -50 0 -25 -22 -50 -44 -50
-11 0 -16 -9 -16 -30 0 -21 -5 -30 -16 -30 -23 0 -44 -25 -44 -54 0 -19 -5
-26 -20 -26 -13 0 -20 -7 -20 -20 0 -11 -4 -20 -10 -20 -5 0 -10 -7 -10 -16 0
-20 -24 -44 -44 -44 -11 0 -16 -9 -16 -26 0 -16 -12 -37 -30 -54 -16 -15 -30
-35 -30 -44 0 -9 -4 -16 -10 -16 -5 0 -10 -9 -10 -20 0 -13 -7 -20 -20 -20
-13 0 -20 -7 -20 -18 0 -10 -9 -24 -20 -32 -24 -17 -27 -50 -4 -50 8 0 37 -22
64 -50 27 -27 54 -50 60 -50 6 0 29 -18 50 -40 21 -22 44 -40 50 -40 7 0 25
-13 40 -30 15 -16 35 -30 44 -30 9 0 16 -7 16 -16 0 -20 24 -44 44 -44 9 0 16
-7 16 -16 0 -18 23 -44 40 -44 6 0 29 -18 50 -40 21 -22 44 -40 50 -40 6 0 33
-22 60 -50 27 -27 54 -50 60 -50 14 0 80 -66 80 -80 0 -6 7 -18 15 -26 13 -14
17 -14 30 0 8 8 15 20 15 26 0 7 14 25 30 40 17 15 30 33 30 40 0 7 14 25 30
40 17 15 30 38 30 50 0 12 14 35 30 50 17 15 30 35 30 44 0 9 5 16 10 16 6 0
10 9 10 20 0 13 7 20 20 20 15 0 20 7 20 26 0 29 21 54 44 54 11 0 16 9 16 26
0 16 12 37 30 54 17 15 30 34 30 42 0 7 9 20 20 28 11 8 20 21 20 30 0 9 9 22
20 30 12 8 20 26 20 42 0 21 5 28 20 28 16 0 20 7 20 30 0 23 4 30 20 30 13 0
20 7 20 20 0 11 5 20 10 20 6 0 10 7 10 16 0 9 14 29 30 44 17 15 30 33 30 40
0 16 26 40 44 40 11 0 16 9 16 30 0 21 -5 30 -16 30 -8 0 -37 23 -64 50 -27
28 -56 50 -64 50 -9 0 -16 7 -16 16 0 18 -23 44 -40 44 -17 0 -40 26 -40 44 0
9 -7 16 -16 16 -20 0 -44 24 -44 44 0 11 -9 16 -30 16 -21 0 -30 5 -30 16 0
18 -23 44 -40 44 -6 0 -42 32 -80 70 -38 39 -74 70 -80 70 -6 0 -33 23 -60 50
-27 28 -56 50 -64 50 -9 0 -16 7 -16 16 0 23 -25 44 -54 44 -22 0 -26 -4 -26
-30z"/>
<path d="M5093 15645 c-7 -8 -13 -24 -13 -36 0 -11 -13 -34 -30 -49 -16 -15
-30 -33 -30 -40 0 -7 -13 -25 -30 -40 -16 -15 -30 -38 -30 -50 0 -12 -17 -38
-40 -60 -22 -21 -40 -46 -40 -54 0 -9 -8 -16 -20 -16 -13 0 -20 -7 -20 -20 0
-11 -4 -20 -10 -20 -5 0 -10 -8 -10 -18 0 -10 -9 -24 -20 -32 -11 -8 -20 -21
-20 -28 0 -8 -13 -27 -30 -42 -16 -15 -30 -38 -30 -50 0 -12 -17 -38 -40 -60
-22 -21 -40 -45 -40 -52 0 -7 -9 -20 -20 -28 -11 -8 -20 -20 -20 -28 0 -18
-25 -42 -44 -42 -11 0 -16 -9 -16 -28 0 -16 -8 -34 -20 -42 -11 -8 -20 -21
-20 -30 0 -9 -9 -22 -20 -30 -21 -15 -28 -50 -10 -50 6 0 10 -9 10 -20 0 -12
7 -20 16 -20 20 0 44 -24 44 -44 0 -11 9 -16 30 -16 23 0 30 -4 30 -20 0 -11
7 -20 15 -20 9 0 60 -45 115 -100 55 -55 104 -100 110 -100 6 0 51 -40 100
-90 49 -49 94 -90 100 -90 17 0 40 -26 40 -44 0 -9 7 -16 16 -16 20 0 44 -24
44 -44 0 -10 9 -16 26 -16 29 0 54 21 54 44 0 9 5 16 10 16 6 0 10 7 10 16 0
9 14 29 30 44 17 15 30 35 30 44 0 9 5 16 10 16 6 0 10 8 10 18 0 10 9 24 20
32 11 8 20 21 20 28 0 8 14 27 30 42 17 15 30 34 30 42 0 7 9 20 20 28 11 8
20 22 20 32 0 10 5 18 10 18 6 0 10 8 10 18 0 10 9 24 20 32 11 8 20 21 20 28
0 8 14 27 30 42 17 15 30 35 30 44 0 9 5 16 10 16 6 0 10 7 10 16 0 9 14 29
30 44 17 15 30 35 30 44 0 9 5 16 10 16 6 0 10 8 10 18 0 10 9 24 20 32 11 8
20 21 20 28 0 8 14 27 30 42 17 15 30 34 30 40 0 7 10 21 22 31 l21 19 -21 19
c-12 10 -22 26 -22 35 0 9 -7 16 -16 16 -20 0 -44 24 -44 44 0 9 -7 16 -16 16
-20 0 -44 24 -44 44 0 11 -9 16 -30 16 -21 0 -30 5 -30 16 0 20 -24 44 -44 44
-9 0 -16 7 -16 16 0 20 -24 44 -44 44 -9 0 -16 8 -16 20 0 12 -7 20 -16 20
-20 0 -44 24 -44 44 0 9 -7 16 -15 16 -20 0 -105 85 -105 105 0 8 -7 15 -16
15 -8 0 -42 27 -74 60 -32 33 -66 60 -74 60 -9 0 -16 5 -16 10 0 14 -13 12
-27 -5z"/>
<path d="M1720 15502 c0 -10 -9 -24 -20 -32 -11 -8 -20 -22 -20 -32 0 -10 -4
-18 -10 -18 -5 0 -10 -13 -10 -30 0 -23 -4 -30 -20 -30 -13 0 -20 -7 -20 -20
0 -11 -4 -20 -10 -20 -5 0 -10 -9 -10 -20 0 -12 -7 -20 -16 -20 -22 0 -44 -25
-44 -50 0 -25 -22 -50 -44 -50 -11 0 -16 -9 -16 -28 0 -16 -8 -34 -20 -42 -11
-8 -20 -22 -20 -32 0 -10 -4 -18 -10 -18 -5 0 -10 -13 -10 -30 0 -21 -5 -30
-16 -30 -20 0 -44 -24 -44 -44 0 -9 -4 -16 -10 -16 -5 0 -10 -8 -10 -18 0 -10
-9 -24 -20 -32 -11 -8 -20 -21 -20 -28 0 -8 -13 -27 -30 -42 -16 -15 -30 -33
-30 -40 0 -7 -13 -25 -30 -40 -16 -15 -30 -35 -30 -44 0 -9 -4 -16 -10 -16 -5
0 -10 -9 -10 -20 0 -13 -7 -20 -20 -20 -15 0 -20 -7 -20 -26 0 -16 -12 -37
-30 -54 -32 -30 -40 -60 -15 -60 9 0 51 -36 95 -80 44 -44 85 -80 92 -80 8 0
20 -9 28 -20 8 -11 20 -20 28 -20 18 0 42 -25 42 -44 0 -9 7 -16 16 -16 20 0
44 -24 44 -44 0 -9 7 -16 16 -16 20 0 44 -24 44 -44 0 -9 7 -16 16 -16 9 0 29
-13 44 -30 15 -16 33 -30 40 -30 16 0 40 -26 40 -44 0 -9 8 -16 20 -16 13 0
20 -7 20 -20 0 -12 7 -20 16 -20 8 0 33 -18 54 -40 21 -22 44 -40 50 -40 6 0
29 -18 51 -41 l39 -40 35 35 c19 19 35 42 35 51 0 8 5 15 10 15 6 0 10 9 10
20 0 13 7 20 20 20 15 0 20 7 20 26 0 16 12 37 30 54 17 15 30 33 30 40 0 7
14 25 30 40 18 17 30 38 30 54 0 19 5 26 20 26 13 0 20 7 20 18 0 10 9 24 20
32 11 8 20 21 20 28 0 8 13 27 30 42 17 15 30 34 30 42 0 7 9 20 20 28 11 8
20 22 20 32 0 10 5 18 10 18 6 0 10 8 10 18 0 10 9 24 20 32 11 8 20 21 20 28
0 8 14 27 30 42 17 15 30 35 30 44 0 9 8 16 20 16 15 0 20 7 20 26 0 17 14 39
40 64 26 25 40 47 40 64 0 19 5 26 20 26 11 0 20 3 20 6 0 10 -28 34 -40 34
-6 0 -38 27 -70 60 -32 33 -64 60 -70 60 -17 0 -40 26 -40 44 0 11 -9 16 -30
16 -23 0 -30 4 -30 20 0 11 -7 20 -15 20 -20 0 -65 45 -65 65 0 8 -7 15 -16
15 -8 0 -33 18 -54 40 -21 22 -44 40 -50 40 -6 0 -33 23 -60 50 -27 28 -54 50
-60 50 -17 0 -40 26 -40 44 0 9 -7 16 -16 16 -9 0 -29 14 -44 30 -15 17 -35
30 -44 30 -9 0 -16 7 -16 16 0 20 -24 44 -44 44 -9 0 -16 8 -16 20 0 13 -7 20
-20 20 -13 0 -20 -7 -20 -18z"/>
<path d="M5883 14875 c-13 -13 -23 -31 -23 -40 0 -8 -4 -15 -10 -15 -5 0 -10
-8 -10 -18 0 -10 -9 -24 -20 -32 -11 -8 -20 -21 -20 -30 0 -9 -9 -22 -20 -30
-11 -8 -20 -21 -20 -30 0 -9 -9 -22 -20 -30 -11 -8 -20 -21 -20 -30 0 -9 -9
-22 -20 -30 -11 -8 -20 -21 -20 -28 0 -8 -13 -27 -30 -42 -16 -15 -30 -35 -30
-44 0 -9 -4 -16 -10 -16 -5 0 -10 -8 -10 -18 0 -10 -9 -24 -20 -32 -12 -8 -20
-26 -20 -42 0 -19 -5 -28 -16 -28 -22 0 -44 -25 -44 -50 0 -25 -22 -50 -44
-50 -12 0 -16 -10 -16 -40 0 -30 -4 -40 -16 -40 -20 0 -44 -24 -44 -44 0 -9
-4 -16 -10 -16 -5 0 -10 -8 -10 -18 0 -10 -9 -24 -20 -32 -11 -8 -20 -21 -20
-30 0 -9 -9 -22 -20 -30 -24 -17 -27 -50 -4 -50 20 0 44 -24 44 -44 0 -9 7
-16 16 -16 9 0 29 -13 44 -30 15 -16 35 -30 44 -30 9 0 16 -8 16 -20 0 -11 7
-20 15 -20 9 0 65 -49 125 -110 60 -60 116 -110 125 -110 8 0 15 -9 15 -20 0
-12 7 -20 16 -20 20 0 44 -24 44 -44 0 -9 7 -16 16 -16 9 0 29 -13 44 -30 15
-16 35 -30 44 -30 9 0 16 -7 16 -16 0 -20 24 -44 44 -44 9 0 16 -7 16 -16 0
-20 24 -44 44 -44 9 0 16 -7 16 -16 0 -19 24 -44 42 -44 8 0 20 -9 28 -20 8
-11 18 -20 22 -20 4 0 8 9 8 20 0 11 5 20 10 20 6 0 10 18 10 40 0 22 5 40 10
40 6 0 10 9 10 19 0 11 6 22 13 25 10 5 10 7 0 12 -15 7 -17 44 -3 44 6 0 10
27 10 60 0 33 4 60 10 60 6 0 10 23 10 50 0 28 5 50 10 50 6 0 10 18 10 40 0
22 5 40 10 40 6 0 10 30 10 70 0 40 4 70 10 70 6 0 10 18 10 40 0 22 5 40 10
40 6 0 10 9 10 20 0 11 5 20 10 20 6 0 10 33 10 80 0 47 4 80 10 80 6 0 10 14
10 30 0 17 5 30 10 30 6 0 10 27 10 60 0 33 4 60 10 60 6 0 10 30 10 70 0 40
4 70 10 70 18 0 10 31 -15 55 -13 14 -31 25 -40 25 -8 0 -15 7 -15 16 0 18
-23 44 -40 44 -6 0 -29 18 -50 40 -21 22 -43 40 -49 40 -14 0 -121 106 -121
120 0 16 -88 100 -105 100 -8 0 -15 5 -15 10 0 18 -35 9 -57 -15z"/>
<path d="M2653 14685 c-7 -8 -13 -20 -13 -27 0 -8 -9 -20 -20 -28 -11 -8 -20
-22 -20 -32 0 -11 -7 -18 -20 -18 -16 0 -20 -7 -20 -30 0 -21 -5 -30 -16 -30
-22 0 -44 -25 -44 -50 0 -12 -13 -35 -30 -50 -18 -17 -30 -38 -30 -54 0 -19
-5 -26 -20 -26 -13 0 -20 -7 -20 -18 0 -10 -9 -24 -20 -32 -11 -8 -20 -21 -20
-30 0 -9 -9 -22 -20 -30 -11 -8 -20 -21 -20 -28 0 -8 -13 -27 -30 -42 -16 -15
-30 -33 -30 -40 0 -7 -13 -25 -30 -40 -16 -15 -30 -35 -30 -44 0 -9 -4 -16
-10 -16 -5 0 -10 -9 -10 -20 0 -13 -7 -20 -20 -20 -15 0 -20 -7 -20 -26 0 -17
-14 -39 -40 -64 -22 -21 -40 -45 -40 -52 0 -7 -9 -20 -20 -28 -11 -8 -20 -21
-20 -28 0 -8 -13 -27 -30 -42 -16 -15 -30 -31 -30 -34 0 -3 14 -6 30 -6 21 0
30 -5 30 -16 0 -20 24 -44 44 -44 9 0 16 -7 16 -16 0 -18 23 -44 40 -44 6 0
38 -27 70 -60 32 -33 64 -60 70 -60 6 0 42 -31 80 -70 38 -38 74 -70 80 -70
16 0 80 -67 80 -85 0 -10 10 -15 30 -15 21 0 30 -5 30 -16 0 -18 24 -44 40
-44 7 0 25 -13 40 -30 15 -16 35 -30 44 -30 9 0 16 -8 16 -20 0 -11 7 -20 15
-20 25 0 65 46 65 75 0 18 5 25 20 25 13 0 20 7 20 20 0 11 5 20 10 20 6 0 10
14 10 30 0 21 5 30 16 30 19 0 44 24 44 42 0 8 9 20 20 28 11 8 20 22 20 32 0
10 5 18 10 18 6 0 10 7 10 16 0 8 18 33 40 54 22 21 40 45 40 52 0 7 9 20 20
28 11 8 20 21 20 30 0 9 9 22 20 30 11 8 20 22 20 32 0 10 5 18 10 18 6 0 10
7 10 16 0 20 24 44 44 44 11 0 16 9 16 26 0 16 12 37 30 54 17 15 30 33 30 40
0 7 14 25 30 40 18 17 30 38 30 54 0 19 5 26 20 26 12 0 20 7 20 16 0 9 14 29
31 45 l30 28 -35 36 c-19 19 -42 35 -51 35 -8 0 -15 9 -15 20 0 12 -7 20 -16
20 -8 0 -33 18 -54 40 -21 22 -44 40 -50 40 -17 0 -40 26 -40 44 0 9 -7 16
-16 16 -8 0 -33 18 -54 40 -21 22 -46 40 -54 40 -9 0 -16 7 -16 15 0 20 -45
65 -65 65 -8 0 -15 5 -15 10 0 6 -9 10 -20 10 -12 0 -20 7 -20 16 0 20 -24 44
-44 44 -9 0 -16 7 -16 16 0 20 -24 44 -44 44 -9 0 -16 7 -16 16 0 20 -24 44
-44 44 -9 0 -16 8 -16 20 0 13 -7 20 -20 20 -11 0 -20 5 -20 10 0 14 -13 12
-27 -5z"/>
<path d="M6500 14370 c0 -16 -4 -30 -10 -30 -5 0 -10 -18 -10 -40 0 -22 -4
-40 -10 -40 -6 0 -10 -33 -10 -80 0 -47 -4 -80 -10 -80 -5 0 -10 -22 -10 -50
0 -27 -4 -50 -10 -50 -5 0 -10 -13 -10 -30 0 -16 -4 -30 -10 -30 -6 0 -10 -30
-10 -70 0 -40 -4 -70 -10 -70 -6 0 -10 -27 -10 -60 0 -33 -4 -60 -10 -60 -5 0
-10 -13 -10 -30 0 -16 -4 -30 -10 -30 -6 0 -10 -30 -10 -70 0 -40 -4 -70 -10
-70 -5 0 -10 -13 -10 -30 0 -16 -4 -30 -10 -30 -5 0 -10 -22 -10 -50 0 -27 -4
-50 -10 -50 -6 0 -10 -27 -10 -60 0 -33 -4 -60 -10 -60 -5 0 -10 -18 -10 -40
0 -22 -4 -40 -10 -40 -15 0 -12 -49 4 -66 8 -8 22 -14 30 -14 9 0 16 -4 16
-10 0 -5 9 -10 20 -10 13 0 20 -7 20 -20 0 -12 7 -20 16 -20 20 0 44 -24 44
-44 0 -9 7 -16 16 -16 9 0 29 -13 44 -30 15 -16 35 -30 44 -30 9 0 16 -7 16
-16 0 -18 23 -44 40 -44 6 0 46 -36 90 -80 44 -44 82 -80 85 -80 3 0 5 9 5 20
0 15 7 20 26 20 17 0 39 14 64 40 25 26 47 40 64 40 19 0 26 5 26 20 0 16 7
20 30 20 21 0 30 5 30 16 0 20 24 44 44 44 9 0 16 5 16 10 0 6 8 10 18 10 10
0 24 9 32 20 8 11 21 20 28 20 8 0 27 14 42 30 15 17 35 30 44 30 9 0 16 8 16
20 0 13 7 20 20 20 11 0 20 5 20 10 0 6 7 10 16 10 9 0 29 14 44 30 17 18 38
30 54 30 17 0 26 5 26 16 0 20 24 44 44 44 9 0 16 5 16 10 0 6 7 10 16 10 9 0
29 14 44 30 15 17 35 30 44 30 9 0 16 8 16 20 0 17 7 20 40 20 l40 0 0 60 c0
33 4 60 10 60 6 0 10 27 10 60 0 33 4 60 10 60 6 0 10 47 10 120 0 73 4 120
10 120 6 0 10 33 10 80 0 47 4 80 10 80 6 0 10 30 10 70 0 40 4 70 10 70 6 0
10 14 10 30 0 29 -1 30 -50 30 -27 0 -50 5 -50 10 0 6 -18 10 -40 10 -22 0
-40 5 -40 10 0 6 -22 10 -50 10 -27 0 -50 5 -50 10 0 6 -18 10 -40 10 -22 0
-40 5 -40 10 0 6 -13 10 -30 10 -16 0 -30 5 -30 10 0 6 -27 10 -60 10 -33 0
-60 4 -60 10 0 6 -13 10 -30 10 -16 0 -30 5 -30 10 0 6 -18 10 -40 10 -22 0
-40 5 -40 10 0 6 -30 10 -70 10 -40 0 -70 4 -70 10 0 6 -13 10 -30 10 -16 0
-30 5 -30 10 0 6 -13 10 -30 10 -16 0 -30 5 -30 10 0 6 -22 10 -50 10 -27 0
-50 5 -50 10 0 6 -9 10 -20 10 -11 0 -20 5 -20 10 0 6 -22 10 -50 10 -27 0
-50 5 -50 10 0 6 -18 10 -40 10 -38 0 -40 -2 -40 -30z"/>
<path d="M13660 13890 c0 -53 -4 -90 -10 -90 -6 0 -10 -67 -10 -180 0 -113 -4
-180 -10 -180 -6 0 -10 -73 -10 -200 0 -127 -4 -200 -10 -200 -6 0 -10 -60
-10 -160 0 -100 -4 -160 -10 -160 -6 0 -10 -53 -10 -140 0 -133 1 -140 20
-140 11 0 20 -4 20 -10 0 -6 33 -10 80 -10 47 0 80 -4 80 -10 0 -5 9 -10 20
-10 11 0 20 5 20 10 0 6 9 10 20 10 11 0 20 -4 20 -10 0 -6 46 -10 119 -10 86
0 121 -4 125 -12 5 -10 7 -10 12 0 7 14 44 16 44 2 0 -6 90 -10 250 -10 160 0
250 -4 250 -10 0 -6 40 -10 100 -10 60 0 100 4 100 10 0 6 -4 10 -10 10 -6 0
-10 37 -10 90 0 53 4 90 10 90 6 0 10 37 10 90 0 53 4 90 10 90 6 0 10 30 10
70 l0 70 -70 0 c-40 0 -70 4 -70 10 0 6 -42 10 -106 10 -85 0 -109 -3 -122
-17 -12 -12 -13 -18 -4 -21 8 -2 12 -29 12 -83 0 -46 4 -79 10 -79 6 0 10 -18
10 -40 0 -22 -4 -40 -10 -40 -5 0 -10 -12 -10 -26 0 -38 -22 -54 -74 -54 l-46
0 0 120 c0 73 4 120 10 120 6 0 10 83 10 230 0 147 4 230 10 230 6 0 10 83 10
230 0 147 4 230 10 230 6 0 10 37 10 90 0 53 4 90 10 90 6 0 10 14 10 30 0 29
-1 30 -49 30 -30 0 -52 5 -55 13 -5 10 -7 10 -12 0 -7 -15 -44 -17 -44 -3 0 6
-80 10 -220 10 -140 0 -220 4 -220 10 0 6 -43 10 -110 10 l-110 0 0 -90z"/>
<path d="M3483 13915 c-13 -13 -23 -30 -23 -37 0 -8 -9 -20 -20 -28 -11 -8
-20 -22 -20 -32 0 -10 -4 -18 -10 -18 -5 0 -10 -7 -10 -16 0 -9 -13 -29 -30
-44 -16 -15 -30 -33 -30 -40 0 -7 -13 -25 -30 -40 -16 -15 -30 -33 -30 -40 0
-7 -13 -25 -30 -40 -16 -15 -30 -33 -30 -40 0 -7 -13 -25 -30 -40 -16 -15 -30
-35 -30 -44 0 -9 -4 -16 -10 -16 -5 0 -10 -8 -10 -18 0 -10 -9 -24 -20 -32
-11 -8 -20 -21 -20 -28 0 -8 -13 -27 -30 -42 -16 -15 -30 -35 -30 -44 0 -9 -4
-16 -10 -16 -5 0 -10 -7 -10 -16 0 -8 -22 -37 -50 -64 -34 -33 -50 -57 -50
-74 0 -17 -6 -26 -16 -26 -22 0 -44 -25 -44 -51 0 -12 -9 -30 -21 -40 l-21
-18 26 -26 c14 -14 30 -25 36 -25 17 0 40 -26 40 -44 0 -9 7 -16 16 -16 9 0
29 -13 44 -30 15 -16 35 -30 44 -30 9 0 16 -7 16 -16 0 -18 23 -44 40 -44 17
0 40 -26 40 -44 0 -9 8 -16 20 -16 11 0 20 -4 20 -10 0 -5 9 -10 20 -10 12 0
20 -7 20 -16 0 -18 23 -44 40 -44 6 0 38 -27 70 -60 32 -33 66 -60 74 -60 9 0
16 -9 16 -20 0 -12 7 -20 16 -20 20 0 44 -24 44 -44 0 -9 7 -16 16 -16 20 0
44 -24 44 -44 0 -9 2 -16 5 -16 13 0 55 50 55 65 0 8 5 15 10 15 6 0 10 9 10
20 0 11 5 20 10 20 6 0 10 7 10 16 0 9 14 29 30 44 17 15 30 33 30 40 0 7 14
25 30 40 17 15 30 35 30 44 0 9 5 16 10 16 6 0 10 9 10 20 0 13 7 20 20 20 15
0 20 7 20 26 0 16 12 37 30 54 17 15 30 33 30 40 0 7 14 25 30 40 18 17 30 38
30 54 0 17 5 26 16 26 19 0 44 24 44 42 0 8 9 20 20 28 11 8 20 21 20 30 0 9
9 22 20 30 11 8 20 21 20 30 0 9 9 22 20 30 11 8 20 21 20 30 0 9 9 22 20 30
11 8 20 22 20 32 0 10 5 18 10 18 6 0 10 7 10 16 0 20 24 44 44 44 9 0 16 7
16 15 0 20 -145 165 -165 165 -8 0 -15 9 -15 20 0 12 -7 20 -16 20 -20 0 -44
24 -44 44 0 9 -7 16 -16 16 -20 0 -44 24 -44 44 0 9 -7 16 -16 16 -9 0 -29 14
-44 30 -15 17 -34 30 -42 30 -7 0 -20 9 -28 20 -8 11 -20 20 -28 20 -7 0 -57
45 -112 100 -55 55 -106 100 -115 100 -8 0 -15 5 -15 10 0 16 -13 11 -37 -15z"/>
<path d="M4300 13214 c0 -16 -12 -37 -30 -54 -16 -15 -30 -33 -30 -40 0 -7
-13 -25 -30 -40 -16 -15 -30 -35 -30 -44 0 -9 -4 -16 -10 -16 -5 0 -10 -8 -10
-18 0 -10 -9 -24 -20 -32 -11 -8 -20 -21 -20 -28 0 -8 -13 -27 -30 -42 -16
-15 -30 -35 -30 -44 0 -9 -4 -16 -10 -16 -5 0 -10 -7 -10 -16 0 -9 -13 -29
-30 -44 -16 -15 -30 -35 -30 -44 0 -9 -8 -16 -20 -16 -15 0 -20 -7 -20 -26 0
-16 -12 -37 -30 -54 -16 -15 -30 -33 -30 -40 0 -7 -13 -25 -30 -40 -16 -15
-30 -38 -30 -50 0 -12 -17 -38 -40 -60 -22 -21 -40 -45 -40 -52 0 -7 -9 -20
-20 -28 -11 -8 -20 -21 -20 -28 0 -8 -13 -27 -30 -42 -16 -15 -30 -38 -30 -50
0 -25 22 -50 44 -50 9 0 16 -8 16 -20 0 -13 7 -20 18 -20 10 0 24 -9 32 -20 8
-11 20 -20 28 -20 7 0 48 -36 92 -80 58 -58 86 -80 105 -80 16 0 25 -6 25 -16
0 -20 24 -44 44 -44 9 0 16 -7 16 -16 0 -20 24 -44 44 -44 9 0 16 -7 16 -16 0
-20 24 -44 44 -44 9 0 16 -8 16 -20 0 -11 7 -20 15 -20 9 0 47 -31 85 -70 38
-38 74 -70 80 -70 6 0 51 -41 101 -91 79 -80 91 -88 104 -75 8 8 15 22 15 30
0 9 7 16 16 16 20 0 44 24 44 44 0 9 5 16 10 16 6 0 10 8 10 18 0 10 9 24 20
32 12 8 20 26 20 42 0 19 5 28 16 28 20 0 44 24 44 44 0 9 5 16 10 16 6 0 10
8 10 18 0 10 9 24 20 32 12 8 20 26 20 42 0 19 5 28 16 28 19 0 44 24 44 42 0
8 9 20 20 28 11 8 20 21 20 30 0 9 9 22 20 30 11 8 20 22 20 32 0 11 7 18 20
18 15 0 20 7 20 28 0 16 8 34 20 42 11 8 20 21 20 28 0 8 14 27 30 42 17 15
30 35 30 44 0 9 5 16 10 16 6 0 10 9 10 20 0 13 7 20 20 20 13 0 20 7 20 20 0
11 5 20 10 20 6 0 10 7 10 16 0 9 14 29 30 44 17 15 30 33 30 40 0 16 -26 40
-44 40 -9 0 -16 8 -16 20 0 16 -7 20 -30 20 -21 0 -30 5 -30 16 0 20 -24 44
-44 44 -9 0 -16 7 -16 16 0 18 -23 44 -40 44 -17 0 -40 26 -40 44 0 9 -7 16
-16 16 -8 0 -37 23 -64 50 -27 28 -54 50 -60 50 -6 0 -46 36 -90 80 -44 44
-86 80 -95 80 -8 0 -15 9 -15 20 0 12 -7 20 -16 20 -20 0 -44 24 -44 44 0 9
-7 16 -16 16 -9 0 -29 14 -44 30 -15 17 -35 30 -44 30 -9 0 -16 7 -16 16 0 20
-24 44 -44 44 -9 0 -16 7 -16 16 0 20 -24 44 -44 44 -9 0 -16 8 -16 20 0 13
-7 20 -20 20 -15 0 -20 -7 -20 -26z"/>
<path d="M7600 13124 c0 -19 -24 -44 -42 -44 -8 0 -20 -9 -28 -20 -8 -11 -22
-20 -32 -20 -10 0 -18 -4 -18 -10 0 -5 -7 -10 -16 -10 -20 0 -44 -24 -44 -44
0 -11 -9 -16 -30 -16 -23 0 -30 -4 -30 -20 0 -12 -7 -20 -16 -20 -20 0 -44
-24 -44 -44 0 -9 7 -16 16 -16 9 0 29 -13 44 -30 15 -16 33 -30 40 -30 7 0 25
-13 40 -30 15 -16 33 -30 40 -30 7 0 25 -13 40 -30 15 -16 35 -30 44 -30 9 0
16 -4 16 -10 0 -5 5 -10 10 -10 6 0 10 27 10 60 0 33 4 60 10 60 6 0 10 23 10
50 0 28 -4 50 -10 50 -5 0 -10 14 -10 30 0 17 5 30 10 30 6 0 10 9 10 19 0 11
6 22 13 25 10 5 10 7 0 12 -15 7 -17 44 -3 44 6 0 10 23 10 50 0 43 -3 50 -20
50 -12 0 -20 -7 -20 -16z"/>
<path d="M9093 13125 c-8 -8 -13 -41 -13 -80 0 -37 -4 -65 -10 -65 -6 0 -10
-113 -10 -320 0 -207 -4 -320 -10 -320 -7 0 -10 -143 -10 -410 l0 -410 29 0
c16 0 32 -6 35 -12 5 -10 7 -10 12 0 7 15 124 17 124 2 0 -5 14 -10 30 -10 17
0 30 5 30 10 0 6 18 10 40 10 22 0 40 -4 40 -10 0 -6 60 -10 160 -10 100 0
160 -4 160 -10 0 -5 9 -10 20 -10 19 0 20 -7 20 -110 0 -67 -4 -110 -10 -110
-6 0 -10 -40 -10 -100 0 -60 4 -100 10 -100 6 0 10 -22 10 -50 l0 -50 36 0
c64 0 64 0 64 284 l0 256 36 0 c64 0 64 0 64 -284 l0 -256 120 0 c73 0 120 -4
120 -10 0 -6 27 -10 60 -10 33 0 60 4 60 10 0 6 9 10 20 10 11 0 20 -4 20 -10
0 -6 97 -10 270 -10 173 0 270 -4 270 -10 0 -5 14 -10 30 -10 l30 0 0 180 c0
113 -4 180 -10 180 -5 0 -10 18 -10 40 0 22 5 40 10 40 6 0 10 32 10 76 0 52
4 80 14 90 17 16 46 19 46 4 0 -6 77 -10 210 -10 l210 0 0 50 c0 28 -4 50 -10
50 -5 0 -10 23 -10 50 0 28 5 50 10 50 6 0 10 23 10 50 0 28 -4 50 -10 50 -5
0 -10 9 -10 20 0 11 5 20 10 20 7 0 10 207 10 600 l0 600 -169 0 c-126 0 -171
3 -175 13 -5 10 -7 10 -12 0 -7 -15 -104 -18 -104 -3 0 7 -147 10 -420 10
-273 0 -420 3 -420 10 0 6 -100 10 -280 10 -180 0 -280 4 -280 10 0 6 -70 10
-190 10 -120 0 -190 4 -190 10 0 15 -73 11 -87 -5z"/>
<path d="M11553 13045 c-7 -8 -13 -30 -13 -49 0 -19 -6 -37 -12 -40 -10 -5
-10 -7 0 -12 15 -7 17 -124 2 -124 -5 0 -10 -9 -10 -20 0 -11 5 -20 10 -20 14
0 12 -37 -2 -44 -10 -5 -10 -7 0 -12 14 -7 16 -44 2 -44 -5 0 -10 -13 -10 -30
l0 -30 350 0 c227 0 350 -4 350 -10 0 -5 9 -10 20 -10 18 0 20 -7 20 -56 0
-78 9 -84 123 -84 67 0 97 -4 101 -12 5 -10 7 -10 12 0 7 14 64 17 64 2 0 -6
37 -10 90 -10 l90 0 0 290 0 290 -390 0 c-253 0 -390 4 -390 10 0 6 -67 10
-180 10 -113 0 -180 4 -180 10 0 15 -33 11 -47 -5z"/>
<path d="M8320 12580 c0 -273 -3 -420 -10 -420 -6 0 -10 -120 -10 -339 0 -262
-3 -341 -12 -345 -10 -5 -10 -7 0 -12 14 -7 16 -44 2 -44 -5 0 -10 -9 -10 -20
0 -19 7 -20 160 -20 100 0 160 -4 160 -10 0 -5 14 -10 30 -10 17 0 30 5 30 10
0 6 14 10 30 10 17 0 30 -4 30 -10 0 -5 14 -10 30 -10 17 0 30 5 30 10 0 6 30
10 70 10 63 0 70 2 70 20 0 11 -4 20 -10 20 -15 0 -13 117 3 124 10 5 10 7 0
12 -15 7 -17 44 -3 44 6 0 10 87 10 240 0 153 4 240 10 240 6 0 10 90 10 250
0 160 4 250 10 250 6 0 10 18 10 40 0 22 -4 40 -10 40 -5 0 -10 9 -10 20 0 11
5 20 10 20 6 0 10 53 10 140 l0 140 -190 0 c-120 0 -190 4 -190 10 0 6 -50 10
-130 10 l-130 0 0 -420z"/>
<path d="M12860 12880 c0 -73 -4 -120 -10 -120 -5 0 -10 -25 -10 -56 0 -36 -5
-61 -15 -70 -11 -12 -15 -39 -15 -105 0 -72 3 -89 15 -89 13 0 15 -32 15 -230
0 -147 -4 -230 -10 -230 -6 0 -10 -93 -10 -260 0 -167 -4 -260 -10 -260 -6 0
-10 -72 -10 -196 0 -160 -3 -198 -15 -210 -11 -12 -15 -40 -15 -115 0 -81 3
-99 15 -99 11 0 15 -12 15 -50 0 -47 -2 -50 -25 -50 l-25 0 0 -334 c0 -184 3
-341 6 -350 3 -9 15 -16 25 -16 10 0 19 -7 19 -15 0 -13 39 -15 290 -15 251 0
290 2 290 15 0 8 5 15 10 15 6 0 10 90 10 250 0 160 4 250 10 250 6 0 10 37
10 90 0 53 4 90 10 90 6 0 10 43 10 108 0 96 2 109 20 122 17 13 20 26 20 102
0 52 -4 88 -10 88 -16 0 -13 337 3 344 10 5 10 7 0 12 -15 7 -18 64 -3 64 6 0
10 18 10 40 0 22 -4 40 -10 40 -5 0 -10 9 -10 20 0 11 5 20 10 20 6 0 10 30
10 69 0 46 4 71 13 75 10 5 10 7 0 12 -9 4 -13 29 -13 74 0 45 4 70 13 74 10
5 10 7 0 12 -15 7 -17 44 -3 44 6 0 10 37 10 90 0 53 4 90 10 90 6 0 10 18 10
40 0 36 -2 40 -26 40 l-26 0 3 297 c3 226 7 297 17 301 7 2 12 20 12 43 l0 39
-140 0 c-87 0 -140 4 -140 10 0 6 -67 10 -180 10 l-180 0 0 -120z"/>
<path d="M7160 12790 c0 -5 -8 -10 -18 -10 -10 0 -24 -9 -32 -20 -8 -11 -21
-20 -30 -20 -9 0 -22 -9 -30 -20 -8 -11 -22 -20 -32 -20 -11 0 -18 -7 -18 -20
0 -15 -7 -20 -26 -20 -16 0 -37 -12 -54 -30 -15 -16 -38 -30 -50 -30 -25 0
-50 -22 -50 -44 0 -11 -9 -16 -30 -16 l-30 0 0 -426 c0 -384 2 -427 17 -442
12 -12 18 -13 21 -4 4 14 62 17 62 2 0 -6 43 -10 110 -10 67 0 110 4 110 10 0
15 29 12 46 -4 16 -16 19 -86 4 -86 -6 0 -10 -46 -10 -118 0 -106 -2 -119 -20
-132 -11 -8 -20 -22 -20 -32 0 -10 -4 -18 -10 -18 -5 0 -10 -8 -10 -18 0 -10
-9 -24 -20 -32 -18 -13 -20 -26 -20 -112 0 -91 1 -98 20 -98 11 0 20 -4 20
-10 0 -6 63 -10 170 -10 l170 0 0 -30 c0 -16 5 -30 10 -30 6 0 10 -13 10 -30
0 -16 5 -30 10 -30 6 0 10 -13 10 -28 0 -16 8 -34 20 -42 15 -11 20 -26 20
-60 0 -34 5 -49 20 -60 11 -8 20 -22 20 -32 0 -10 5 -18 10 -18 6 0 10 -13 10
-30 0 -16 5 -30 10 -30 6 0 10 -9 10 -20 0 -11 5 -20 11 -20 9 0 11 -131 7
-511 -4 -423 -3 -513 8 -524 18 -17 18 -72 1 -90 -11 -10 -15 -75 -20 -271 -4
-168 -10 -260 -16 -262 -8 -3 -11 -145 -11 -453 0 -293 -3 -449 -10 -449 -5 0
-10 -9 -10 -20 0 -13 -7 -20 -20 -20 -11 0 -20 -4 -20 -10 0 -5 -9 -10 -20
-10 -11 0 -20 5 -20 10 0 6 -106 10 -299 10 -230 0 -301 3 -305 13 -5 10 -7
10 -12 0 -7 -15 -44 -17 -44 -3 0 6 -67 10 -180 10 -113 0 -180 4 -180 10 0 6
-80 10 -220 10 l-220 0 0 -370 c0 -240 4 -370 10 -370 6 0 10 -9 10 -20 0 -11
5 -20 10 -20 6 0 10 -13 10 -30 0 -16 5 -30 10 -30 6 0 10 -7 10 -16 0 -9 14
-29 30 -44 17 -15 30 -38 30 -50 0 -25 22 -50 44 -50 11 0 16 -9 16 -30 0 -27
3 -30 30 -30 17 0 30 -4 30 -10 0 -5 8 -10 18 -10 10 0 24 -9 32 -20 13 -18
26 -20 162 -20 92 0 148 -4 148 -10 0 -6 47 -10 120 -10 73 0 120 -4 120 -10
0 -6 68 -10 185 -10 184 0 186 0 210 -25 14 -13 25 -29 25 -35 0 -7 18 -29 40
-50 22 -21 40 -45 40 -52 0 -7 9 -20 20 -28 11 -8 20 -20 20 -28 0 -18 25 -42
44 -42 11 0 16 -9 16 -26 0 -16 12 -37 30 -54 16 -15 30 -35 30 -44 0 -9 5
-16 10 -16 6 0 10 -9 10 -20 0 -13 7 -20 20 -20 13 0 20 -7 20 -18 0 -10 9
-24 20 -32 11 -8 20 -21 20 -28 0 -7 18 -31 40 -52 l40 -38 0 -276 c0 -177 4
-276 10 -276 6 0 10 -9 10 -20 0 -11 -4 -20 -10 -20 -5 0 -10 -13 -10 -30 0
-16 5 -30 10 -30 6 0 10 -18 10 -40 0 -22 -4 -40 -10 -40 -6 0 -10 -69 -10
-186 l0 -186 -30 -28 c-16 -15 -30 -33 -30 -40 0 -7 -13 -25 -30 -40 -17 -16
-30 -38 -30 -52 0 -13 -9 -30 -20 -38 -11 -8 -20 -22 -20 -32 0 -10 -4 -18
-10 -18 -6 0 -10 -100 -10 -280 0 -180 -4 -280 -10 -280 -6 0 -10 -73 -10
-200 0 -127 -4 -200 -10 -200 -6 0 -10 -60 -10 -160 0 -100 -4 -160 -10 -160
-5 0 -10 -9 -10 -20 0 -11 -7 -20 -15 -20 -12 0 -15 -13 -15 -59 0 -40 5 -65
15 -75 12 -12 15 -51 15 -225 l0 -211 260 0 260 0 0 534 c0 418 3 536 13 540
10 5 10 7 0 12 -16 7 -18 124 -3 124 6 0 10 100 10 280 0 180 4 280 10 280 6
0 10 7 10 16 0 30 27 44 84 44 31 0 56 -4 56 -10 0 -6 40 -10 100 -10 60 0
100 -4 100 -10 0 -6 55 -10 145 -10 l146 0 69 70 c38 39 76 70 85 70 8 0 15 7
15 16 0 20 24 44 44 44 9 0 16 8 16 20 0 12 7 20 16 20 43 0 44 8 44 424 0
389 0 396 -20 396 -11 0 -20 -4 -20 -10 0 -6 -30 -10 -70 -10 -40 0 -70 -4
-70 -10 0 -5 -18 -10 -40 -10 -22 0 -40 5 -40 10 0 6 -9 10 -20 10 -19 0 -20
7 -20 160 0 100 4 160 10 160 6 0 10 13 10 28 0 16 8 34 20 42 11 8 20 26 20
40 0 14 9 32 20 40 11 8 20 22 20 32 0 10 5 18 10 18 6 0 10 22 10 48 0 36 5
51 20 62 16 12 20 26 20 72 0 32 -4 58 -10 58 -5 0 -10 9 -10 20 0 11 -4 20
-10 20 -5 0 -10 18 -10 40 0 22 -4 40 -10 40 -5 0 -10 8 -10 18 0 10 -9 24
-20 32 -11 8 -20 25 -20 38 0 14 -13 36 -30 52 -30 28 -30 29 -30 140 0 115 8
140 44 140 9 0 16 5 16 10 0 6 60 10 160 10 l160 0 0 80 c0 47 4 80 10 80 6 0
10 53 10 140 0 87 -4 140 -10 140 -5 0 -10 9 -10 20 0 11 5 20 10 20 6 0 10
14 10 30 0 17 -4 30 -10 30 -5 0 -10 9 -10 20 0 13 7 20 20 20 11 0 20 5 20
10 0 6 -4 10 -10 10 -6 0 -10 30 -10 70 0 57 -3 70 -16 70 -8 0 -42 27 -74 60
-32 33 -66 60 -74 60 -9 0 -16 8 -16 18 0 10 -9 24 -20 32 -11 8 -20 22 -20
32 0 13 -8 18 -30 18 -16 0 -30 5 -30 10 0 16 -89 12 -106 -4 -16 -17 -19 -66
-4 -66 6 0 10 -53 10 -140 0 -133 -1 -140 -20 -140 -11 0 -20 -4 -20 -10 0 -6
-27 -10 -60 -10 -33 0 -60 4 -60 10 0 6 -59 10 -156 10 -121 0 -159 3 -170 14
-17 17 -20 166 -4 166 6 0 10 40 10 100 0 60 -4 100 -10 100 -5 0 -10 14 -10
30 0 17 5 30 10 30 6 0 10 30 10 69 0 46 4 71 13 75 10 5 10 7 0 12 -15 7 -18
64 -3 64 6 0 10 9 10 20 0 11 -4 20 -10 20 -5 0 -10 9 -10 20 0 11 5 20 10 20
6 0 10 97 10 270 0 173 4 270 10 270 6 0 10 9 10 20 0 11 -4 20 -10 20 -5 0
-10 9 -10 20 0 11 5 20 10 20 6 0 10 9 10 20 0 11 -4 20 -10 20 -5 0 -10 9
-10 20 0 11 5 20 10 20 7 0 10 152 10 435 0 283 -3 435 -10 435 -7 0 -10 182
-10 525 0 343 3 525 10 525 6 0 10 9 10 20 0 11 -4 20 -10 20 -5 0 -10 9 -10
20 0 11 5 20 10 20 6 0 10 9 10 20 0 11 -4 20 -10 20 -5 0 -10 9 -10 20 0 11
5 20 10 20 7 0 10 177 10 510 0 333 3 510 10 510 6 0 10 9 10 20 0 11 -4 20
-10 20 -5 0 -10 9 -10 20 0 11 5 20 10 20 6 0 10 27 10 60 l0 60 -250 0 c-160
0 -250 -4 -250 -10 0 -5 -13 -10 -30 -10 -16 0 -30 5 -30 10 0 6 -7 10 -16 10
-9 0 -29 14 -44 30 -15 17 -35 30 -44 30 -9 0 -16 5 -16 10 0 6 -9 10 -20 10
-13 0 -20 7 -20 20 0 13 -7 20 -20 20 -11 0 -20 5 -20 10 0 6 -9 10 -20 10
-13 0 -20 7 -20 20 0 16 -7 20 -30 20 -21 0 -30 5 -30 16 0 20 -24 44 -44 44
-9 0 -16 8 -16 20 0 13 -7 20 -20 20 -11 0 -20 5 -20 10 0 6 -9 10 -20 10 -11
0 -20 5 -20 10 0 6 -9 10 -20 10 -11 0 -20 -4 -20 -10z"/>
<path d="M11560 12210 c0 -187 -4 -290 -10 -290 -6 0 -10 -60 -10 -160 0 -100
-4 -160 -10 -160 -6 0 -10 -100 -10 -280 0 -180 -4 -280 -10 -280 -18 0 -12
-110 7 -128 12 -12 18 -13 21 -4 4 14 42 16 42 2 0 -6 43 -10 109 -10 78 0
111 -4 115 -12 5 -10 7 -10 12 0 7 14 44 16 44 2 0 -6 43 -10 110 -10 103 0
110 1 110 20 0 11 -4 20 -10 20 -6 0 -10 40 -10 100 0 60 4 100 10 100 6 0 10
9 10 20 0 11 -4 20 -10 20 -5 0 -10 14 -10 30 0 17 5 30 10 30 7 0 10 210 10
610 0 400 3 610 10 610 6 0 10 9 10 20 0 19 -7 20 -250 20 -160 0 -250 4 -250
10 0 6 -9 10 -20 10 -20 0 -20 -7 -20 -290z"/>
<path d="M12260 12170 c0 -107 -4 -170 -10 -170 -6 0 -10 -70 -10 -189 0 -142
-3 -191 -12 -195 -10 -5 -10 -7 0 -12 6 -3 12 -23 12 -44 0 -21 -6 -41 -12
-44 -10 -5 -10 -7 0 -12 14 -7 17 -64 2 -64 -6 0 -10 -100 -10 -280 l0 -280
119 0 c86 0 121 -4 125 -12 5 -10 7 -10 12 0 7 14 44 16 44 2 0 -6 40 -10 100
-10 l100 0 0 90 c0 83 -1 90 -20 90 -17 0 -20 7 -20 50 0 28 5 50 10 50 6 0
10 23 10 50 0 28 5 50 10 50 6 0 10 87 10 240 0 153 4 240 10 240 6 0 10 9 10
20 0 11 -4 20 -10 20 -5 0 -10 14 -10 30 0 17 5 30 10 30 6 0 10 9 10 20 0 11
-4 20 -10 20 -6 0 -10 63 -10 170 0 107 4 170 10 170 6 0 10 27 10 60 l0 60
-60 0 c-33 0 -60 4 -60 10 0 6 -13 10 -30 10 -16 0 -30 -4 -30 -10 0 -5 -9
-10 -20 -10 -11 0 -20 5 -20 10 0 6 -50 10 -130 10 l-130 0 0 -170z"/>
<path d="M5320 12282 c0 -10 -9 -24 -20 -32 -11 -8 -20 -21 -20 -28 0 -8 -13
-27 -30 -42 -16 -15 -30 -35 -30 -44 0 -9 -4 -16 -10 -16 -5 0 -10 -7 -10 -16
0 -20 -24 -44 -44 -44 -11 0 -16 -9 -16 -26 0 -16 -12 -37 -30 -54 -16 -15
-30 -38 -30 -50 0 -25 -22 -50 -44 -50 -11 0 -16 -9 -16 -26 0 -16 -12 -37
-30 -54 -16 -15 -30 -38 -30 -50 0 -25 -22 -50 -44 -50 -9 0 -16 -8 -16 -18 0
-10 -9 -24 -20 -32 -11 -8 -20 -20 -20 -28 0 -18 -25 -42 -44 -42 -9 0 -16 -8
-16 -20 0 -11 -7 -20 -15 -20 -15 0 -65 -42 -65 -55 0 -3 7 -5 16 -5 9 0 29
-13 44 -30 21 -23 37 -30 64 -30 29 0 36 4 36 20 0 11 7 20 15 20 9 0 47 32
85 70 38 39 74 70 80 70 6 0 38 27 70 60 32 33 64 60 70 60 17 0 40 26 40 44
0 9 7 16 16 16 20 0 44 24 44 44 0 9 7 16 16 16 9 0 29 14 44 30 15 17 33 30
39 30 17 0 81 67 81 85 0 9 -9 15 -26 15 -33 0 -54 21 -54 54 0 19 5 26 20 26
12 0 20 7 20 16 0 33 53 60 63 32 2 -8 8 -9 13 -4 5 5 4 11 -3 13 -7 3 -13 11
-13 19 0 8 -29 44 -65 79 -45 46 -72 65 -90 65 -17 0 -25 -5 -25 -18z"/>
<path d="M13640 12250 c0 -27 -4 -50 -10 -50 -6 0 -10 -63 -10 -170 0 -107 -4
-170 -10 -170 -6 0 -10 -120 -10 -340 0 -220 -4 -340 -10 -340 -5 0 -10 -8
-10 -18 0 -10 -9 -24 -20 -32 -17 -12 -20 -26 -20 -82 l0 -68 80 0 c47 0 80
-4 80 -10 0 -5 22 -10 49 -10 30 0 52 -5 55 -12 5 -10 7 -10 12 0 7 14 84 17
84 2 0 -6 96 -10 269 -10 206 0 271 -3 275 -12 5 -10 7 -10 12 0 7 14 44 16
44 2 0 -6 87 -10 240 -10 153 0 240 -4 240 -10 0 -6 47 -10 120 -10 l120 0 0
150 c0 93 4 150 10 150 6 0 10 110 10 310 0 303 0 310 -20 310 -12 0 -20 7
-20 16 0 20 -24 44 -44 44 -9 0 -16 7 -16 16 0 20 -24 44 -44 44 -11 0 -16 9
-16 26 0 16 -12 37 -30 54 -16 15 -30 33 -30 40 0 7 -13 25 -30 40 -16 15 -30
33 -30 40 0 16 -26 40 -44 40 -9 0 -16 8 -16 20 0 18 -7 20 -60 20 -33 0 -60
4 -60 10 0 6 -97 10 -270 10 -173 0 -270 4 -270 10 0 6 -47 10 -120 10 -73 0
-120 4 -120 10 0 6 -63 10 -170 10 -107 0 -170 4 -170 10 0 6 -4 10 -10 10 -5
0 -10 -22 -10 -50z"/>
<path d="M5680 12000 c0 -13 -7 -20 -20 -20 -11 0 -20 -7 -20 -15 0 -18 -64
-85 -80 -85 -6 0 -64 -54 -130 -120 -66 -66 -124 -120 -131 -120 -6 0 -24 -13
-39 -30 -15 -16 -33 -30 -40 -30 -16 0 -40 -25 -40 -42 0 -8 -9 -20 -20 -28
-11 -8 -20 -22 -20 -32 0 -10 -7 -18 -16 -18 -20 0 -44 -24 -44 -44 0 -11 -9
-16 -30 -16 -28 0 -30 -3 -30 -36 0 -35 18 -64 40 -64 7 0 25 -13 40 -30 15
-16 35 -30 44 -30 9 0 16 -4 16 -10 0 -5 8 -10 18 -10 10 0 24 -9 32 -20 10
-14 26 -20 52 -20 21 0 38 5 38 10 0 6 14 10 30 10 23 0 30 4 30 20 0 13 7 20
18 20 10 0 24 9 32 20 8 11 22 20 32 20 10 0 18 5 18 10 0 6 7 10 16 10 9 0
29 14 44 30 23 25 36 30 74 30 25 0 46 -4 46 -10 0 -5 9 -10 20 -10 13 0 20
-7 20 -20 0 -16 7 -20 30 -20 23 0 30 -4 30 -20 0 -13 7 -20 20 -20 11 0 20
-4 20 -10 0 -5 9 -10 20 -10 12 0 20 -7 20 -16 0 -18 24 -44 40 -44 7 0 25
-13 40 -30 15 -16 35 -30 44 -30 11 0 16 9 16 30 0 17 5 30 10 30 6 0 10 9 10
20 0 11 5 20 10 20 6 0 10 14 10 30 0 17 5 30 10 30 6 0 10 17 10 38 0 26 6
42 20 52 11 8 20 22 20 32 0 10 5 18 10 18 6 0 10 22 10 48 0 36 5 51 20 62
12 8 20 26 20 42 0 15 5 28 10 28 6 0 10 13 10 29 0 16 6 31 12 33 21 7 -17
38 -46 38 -17 0 -26 6 -26 16 0 18 -23 44 -40 44 -6 0 -33 23 -60 50 -27 28
-56 50 -64 50 -9 0 -16 5 -16 10 0 6 -7 10 -16 10 -20 0 -44 24 -44 44 0 9 -7
16 -16 16 -9 0 -29 14 -44 30 -15 17 -35 30 -44 30 -9 0 -16 5 -16 10 0 6 -9
10 -20 10 -13 0 -20 -7 -20 -20z"/>
<path d="M6260 11562 c0 -10 -9 -24 -20 -32 -14 -10 -20 -26 -20 -52 0 -21 -4
-38 -10 -38 -5 0 -10 -8 -10 -18 0 -10 -9 -24 -20 -32 -14 -10 -20 -26 -20
-52 0 -21 -4 -38 -10 -38 -5 0 -10 -9 -10 -20 0 -11 -4 -20 -10 -20 -5 0 -10
-9 -10 -20 0 -11 -4 -20 -10 -20 -5 0 -10 -13 -10 -30 0 -16 -4 -30 -10 -30
-5 0 -10 -13 -10 -30 0 -16 -4 -30 -10 -30 -5 0 -10 -9 -10 -20 0 -11 -4 -20
-10 -20 -5 0 -10 -4 -10 -10 0 -6 46 -10 119 -10 86 0 121 -4 125 -12 5 -10 7
-10 12 0 3 6 14 12 24 12 10 0 21 -6 24 -12 5 -10 7 -10 12 0 3 6 14 12 24 12
10 0 21 -6 24 -12 5 -10 7 -10 12 0 3 6 18 12 34 12 16 0 31 -6 34 -12 5 -10
7 -10 12 0 3 6 14 12 24 12 10 0 21 -6 24 -12 5 -10 7 -10 12 0 7 14 44 16 44
2 0 -6 55 -10 144 -10 l144 0 4 107 c2 72 8 108 16 111 7 2 12 10 12 19 0 8
14 28 30 43 17 15 30 38 30 50 0 12 14 35 30 50 28 26 30 32 30 104 l0 76
-390 0 c-367 0 -390 -1 -390 -18z"/>
<path d="M9040 11230 c0 -107 -4 -170 -10 -170 -5 0 -10 -18 -10 -40 l0 -40
99 0 c70 0 101 -4 105 -12 5 -10 7 -10 12 0 7 14 44 16 44 2 0 -6 63 -10 169
-10 l169 0 7 95 c4 53 4 147 0 210 l-7 115 -119 0 c-73 0 -119 4 -119 10 0 6
-9 10 -20 10 -11 0 -20 -4 -20 -10 0 -5 -13 -10 -30 -10 -16 0 -30 5 -30 10 0
6 -47 10 -120 10 l-120 0 0 -170z"/>
<path d="M11040 11162 l0 -239 122 -6 c66 -4 147 -7 180 -7 l58 0 0 224 c0
170 3 225 12 228 9 3 8 9 -4 21 -14 15 -41 17 -192 17 l-176 0 0 -238z"/>
<path d="M8320 11250 c0 -5 -9 -10 -20 -10 -19 0 -20 -7 -20 -120 l0 -120 80
0 c73 0 80 2 80 20 0 11 -4 20 -10 20 -5 0 -10 18 -10 40 0 22 5 40 10 40 6 0
10 14 10 30 0 29 1 30 50 30 49 0 50 -1 50 -30 0 -16 5 -30 10 -30 6 0 10 -13
10 -30 0 -16 -4 -30 -10 -30 -5 0 -10 -22 -10 -50 l0 -50 50 0 50 0 0 96 c0
109 8 124 64 124 l36 0 0 -90 0 -90 80 0 80 0 0 130 0 130 -50 0 c-27 0 -50
-4 -50 -10 0 -15 -97 -12 -104 3 -5 10 -7 10 -12 0 -7 -16 -344 -19 -344 -3 0
6 -4 10 -10 10 -5 0 -10 -4 -10 -10z"/>
<path d="M5880 10790 c0 -80 -4 -130 -10 -130 -6 0 -10 -120 -10 -340 0 -220
-4 -340 -10 -340 -6 0 -10 -73 -10 -200 l0 -200 120 0 c73 0 120 -4 120 -10 0
-6 130 -10 369 -10 286 0 371 -3 375 -12 5 -10 7 -10 12 0 7 14 44 16 44 2 0
-6 87 -10 240 -10 153 0 240 -4 240 -10 0 -6 30 -10 70 -10 l70 0 0 100 c0 60
-4 100 -10 100 -6 0 -10 27 -10 60 0 33 -4 60 -10 60 -6 0 -10 117 -10 330 0
213 -4 330 -10 330 -5 0 -10 9 -10 20 0 11 -4 20 -10 20 -5 0 -10 9 -10 20 0
11 -4 20 -10 20 -5 0 -10 23 -10 50 0 28 -4 50 -10 50 -5 0 -10 9 -10 20 0 11
-4 20 -10 20 -5 0 -10 9 -10 20 0 11 -4 20 -10 20 -5 0 -10 18 -10 40 0 22 -4
40 -10 40 -5 0 -10 9 -10 20 0 19 -7 20 -180 20 -113 0 -180 4 -180 10 0 6
-67 10 -180 10 -113 0 -180 4 -180 10 0 6 -127 10 -360 10 l-360 0 0 -130z"/>
<path d="M8270 10520 l0 -360 414 0 c322 0 416 -3 420 -12 5 -10 7 -10 12 0 4
8 31 12 84 12 53 0 80 -4 84 -12 5 -10 7 -10 12 0 9 18 38 14 54 -8 12 -17 26
-20 92 -20 71 0 78 2 78 20 0 13 7 20 20 20 11 0 20 5 20 10 0 6 9 10 20 10
11 0 20 -4 20 -10 0 -5 9 -10 20 -10 13 0 20 -7 20 -20 0 -18 7 -20 80 -20 73
0 80 2 80 20 0 16 7 20 30 20 17 0 30 -4 30 -10 0 -6 63 -10 170 -10 107 0
170 -4 170 -10 0 -7 208 -10 605 -10 397 0 605 -3 605 -10 0 -6 85 -10 235
-10 150 0 235 -4 235 -10 0 -5 9 -10 20 -10 11 0 20 5 20 10 0 6 18 10 40 10
22 0 40 -4 40 -10 0 -6 63 -10 170 -10 107 0 170 -4 170 -10 0 -6 57 -10 150
-10 l150 0 0 340 0 340 -240 0 c-153 0 -240 4 -240 10 0 6 -70 10 -190 10
-120 0 -190 4 -190 10 0 6 -60 10 -159 10 -119 0 -160 3 -164 13 -3 9 -102 11
-466 8 -385 -3 -465 -1 -473 10 -7 11 -11 11 -15 2 -6 -15 -43 -17 -43 -3 0 6
-33 10 -79 10 -54 0 -81 4 -85 13 -5 10 -7 10 -12 0 -7 -15 -44 -17 -44 -3 0
6 -75 10 -206 10 -169 0 -208 3 -220 15 -9 8 -33 15 -54 15 -21 0 -45 -7 -54
-15 -12 -12 -46 -15 -180 -15 -104 0 -166 4 -166 10 0 6 -13 10 -30 10 -16 0
-30 -4 -30 -10 0 -14 -37 -12 -44 3 -5 10 -7 10 -12 0 -7 -15 -41 -17 -46 -4
-2 5 -164 11 -373 14 -203 2 -378 8 -387 12 -11 4 -18 3 -18 -4 0 -7 -23 -11
-60 -11 -33 0 -60 4 -60 10 0 6 -7 10 -15 10 -13 0 -15 -47 -15 -360z"/>
<path d="M13560 10830 c0 -16 -4 -30 -10 -30 -6 0 -10 -87 -10 -240 0 -153 -4
-240 -10 -240 -6 0 -10 -27 -10 -60 0 -36 -4 -60 -11 -60 -7 0 -10 -49 -7
-157 2 -118 0 -157 -9 -160 -10 -4 -13 -43 -13 -154 0 -142 -1 -149 -20 -149
-18 0 -20 -7 -20 -66 0 -92 4 -94 144 -94 71 0 116 -4 116 -10 0 -5 9 -10 20
-10 11 0 20 5 20 10 0 6 9 10 20 10 11 0 20 -4 20 -10 0 -6 53 -10 140 -10 87
0 140 -4 140 -10 0 -6 120 -10 340 -10 220 0 340 -4 340 -10 0 -5 18 -10 40
-10 22 0 40 5 40 10 0 6 9 10 20 10 11 0 20 -4 20 -10 0 -6 43 -10 110 -10 67
0 110 -4 110 -10 0 -5 14 -10 30 -10 l30 0 0 220 c0 140 4 220 10 220 6 0 10
40 10 100 0 60 4 100 10 100 6 0 10 23 10 50 0 28 -4 50 -10 50 -5 0 -10 14
-10 30 0 17 5 30 10 30 6 0 10 30 10 70 0 40 4 70 10 70 6 0 10 14 10 30 0 17
-4 30 -10 30 -5 0 -10 9 -10 20 0 11 5 20 10 20 6 0 10 63 10 170 0 107 4 170
10 170 6 0 10 9 10 20 0 19 -7 20 -90 20 -53 0 -90 4 -90 10 0 6 -50 10 -130
10 -80 0 -130 4 -130 10 0 6 -93 10 -260 10 -167 0 -260 4 -260 10 0 6 -63 10
-169 10 -126 0 -171 3 -175 13 -5 10 -7 10 -12 0 -7 -15 -84 -18 -84 -3 0 6
-40 10 -100 10 -60 0 -100 4 -100 10 0 6 -13 10 -30 10 -27 0 -30 -3 -30 -30z"/>
<path d="M8440 10030 c0 -6 -30 -10 -70 -10 l-70 0 0 -230 c0 -147 -4 -230
-10 -230 -6 0 -10 -90 -10 -249 0 -190 -3 -251 -12 -255 -10 -5 -10 -7 0 -12
14 -7 16 -44 2 -44 -5 0 -10 -22 -10 -50 0 -27 5 -50 10 -50 6 0 10 -9 10 -20
0 -11 -4 -20 -10 -20 -6 0 -10 -110 -10 -310 l0 -310 90 0 c53 0 90 -4 90 -10
0 -6 60 -10 160 -10 100 0 160 -4 160 -10 0 -5 9 -10 20 -10 11 0 20 -4 20
-10 0 -5 7 -10 16 -10 9 0 29 -13 44 -30 15 -16 35 -30 44 -30 9 0 16 -7 16
-16 0 -20 24 -44 44 -44 9 0 16 -8 16 -20 0 -12 7 -20 16 -20 20 0 44 -24 44
-44 0 -22 13 -20 30 4 8 11 20 20 28 20 18 0 42 25 42 44 0 9 7 16 16 16 20 0
44 24 44 44 0 9 7 16 16 16 20 0 44 24 44 44 0 13 14 16 86 16 61 0 90 4 100
14 11 12 14 62 14 270 0 164 4 256 10 256 6 0 10 14 10 30 0 17 -4 30 -10 30
-5 0 -10 9 -10 20 0 11 5 20 10 20 6 0 10 67 10 180 0 113 4 180 10 180 6 0
10 137 10 390 0 253 4 390 10 390 6 0 10 9 10 20 0 19 -7 20 -140 20 -87 0
-140 4 -140 10 0 6 -123 10 -349 10 -270 0 -351 3 -355 13 -5 10 -7 10 -12 0
-7 -15 -44 -17 -44 -3 0 6 -9 10 -20 10 -11 0 -20 -4 -20 -10z"/>
<path d="M9640 9941 c0 -38 -5 -61 -12 -65 -10 -5 -10 -7 0 -12 14 -7 16 -44
2 -44 -6 0 -10 -56 -10 -149 0 -110 -3 -151 -12 -155 -10 -5 -10 -7 0 -12 14
-7 16 -44 2 -44 -6 0 -10 -70 -10 -190 0 -120 -4 -190 -10 -190 -6 0 -10 -126
-10 -359 0 -278 -3 -361 -12 -365 -10 -5 -10 -7 0 -12 14 -7 17 -64 2 -64 -5
0 -10 -13 -10 -30 0 -28 2 -30 39 -30 22 0 42 -6 45 -12 5 -10 7 -10 12 0 7
15 124 17 124 2 0 -6 53 -10 140 -10 87 0 140 -4 140 -10 0 -5 9 -10 20 -10
11 0 20 5 20 10 0 6 23 10 50 10 28 0 50 -4 50 -10 0 -6 60 -10 160 -10 147 0
160 1 160 18 0 10 9 24 20 32 11 8 20 22 20 32 0 10 5 18 10 18 6 0 10 9 10
20 0 11 5 20 10 20 6 0 10 8 10 18 0 10 9 24 20 32 11 8 20 22 20 32 0 10 5
18 10 18 6 0 10 8 10 18 0 10 9 24 20 32 12 8 20 26 20 42 0 15 5 28 10 28 6
0 10 13 10 29 0 16 6 32 13 35 10 5 10 7 0 12 -15 7 -18 64 -3 64 6 0 10 70
10 190 0 120 4 190 10 190 6 0 10 117 10 330 0 213 4 330 10 330 6 0 10 40 10
100 0 60 4 100 10 100 6 0 10 9 10 20 0 18 -7 20 -70 20 -40 0 -70 4 -70 10 0
6 -57 10 -150 10 -93 0 -150 4 -150 10 0 6 -127 10 -360 10 l-360 0 0 -59z"/>
<path d="M11060 9990 c0 -6 -33 -10 -80 -10 l-80 0 0 -150 c0 -93 -4 -150 -10
-150 -6 0 -10 -57 -10 -150 0 -93 -4 -150 -10 -150 -6 0 -10 -63 -10 -170 0
-107 -4 -170 -10 -170 -6 0 -10 -80 -10 -220 l0 -220 120 0 c73 0 120 -4 120
-10 0 -6 103 -10 290 -10 187 0 290 -4 290 -10 0 -6 47 -10 120 -10 73 0 120
-4 120 -10 0 -5 14 -10 30 -10 17 0 30 5 30 10 0 6 9 10 20 10 11 0 20 -4 20
-10 0 -6 113 -10 320 -10 l320 0 0 150 c0 93 4 150 10 150 6 0 10 9 10 20 0
11 -4 20 -10 20 -5 0 -10 23 -10 50 0 28 5 50 10 50 6 0 10 53 10 140 0 87 4
140 10 140 6 0 10 112 10 315 0 280 -2 315 -16 315 -18 0 -44 23 -44 39 0 7
-44 11 -130 11 -80 0 -130 4 -130 10 0 7 -146 10 -419 10 -326 0 -421 3 -425
13 -5 10 -7 10 -12 0 -7 -15 -84 -18 -84 -3 0 6 -9 10 -20 10 -11 0 -20 -4
-20 -10 0 -14 -37 -12 -44 3 -5 10 -7 10 -12 0 -7 -15 -44 -17 -44 -3 0 6 -22
10 -50 10 -27 0 -50 5 -50 10 0 6 -27 10 -60 10 -33 0 -60 -4 -60 -10z"/>
<path d="M12800 9775 c0 -83 -4 -135 -10 -135 -6 0 -10 -73 -10 -199 0 -150
-3 -201 -12 -205 -10 -5 -10 -7 0 -12 14 -7 16 -44 2 -44 -6 0 -10 -128 -10
-365 l0 -366 -25 -24 c-24 -24 -28 -25 -185 -25 l-160 0 0 -90 c0 -84 1 -90
21 -90 24 0 49 -22 49 -44 0 -9 5 -16 10 -16 6 0 10 -8 10 -18 0 -10 9 -24 20
-32 11 -8 20 -22 20 -32 0 -10 7 -18 16 -18 19 0 44 -24 44 -42 0 -8 9 -20 20
-28 19 -14 20 -26 20 -322 0 -199 -4 -308 -10 -308 -6 0 -10 -67 -10 -180 0
-113 -4 -180 -10 -180 -5 0 -10 -9 -10 -20 0 -13 -7 -20 -20 -20 -18 0 -20 -7
-20 -58 0 -46 4 -60 20 -72 19 -14 20 -26 20 -402 0 -252 -4 -388 -10 -388 -5
0 -10 -13 -10 -30 0 -16 5 -30 10 -30 6 0 10 -9 10 -20 0 -11 -4 -20 -10 -20
-6 0 -10 -40 -10 -100 0 -60 -4 -100 -10 -100 -5 0 -10 -18 -10 -40 0 -22 5
-40 10 -40 6 0 10 -9 10 -20 0 -11 -4 -20 -10 -20 -6 0 -10 -97 -10 -270 0
-173 -4 -270 -10 -270 -6 0 -10 -65 -10 -176 l0 -176 -40 -38 c-22 -21 -40
-46 -40 -54 0 -9 -8 -16 -20 -16 -12 0 -20 -7 -20 -16 0 -9 -13 -29 -30 -44
-16 -15 -30 -35 -30 -44 0 -9 -8 -16 -19 -16 -26 0 -31 -18 -31 -126 l0 -94
125 0 c77 0 125 -4 125 -10 0 -5 9 -10 20 -10 20 0 20 -7 20 -315 l0 -315 305
0 304 0 -6 115 c-4 84 -3 115 5 115 8 0 12 29 12 90 0 53 4 90 10 90 6 0 10
87 10 240 0 153 4 240 10 240 6 0 10 87 10 240 0 153 4 240 10 240 6 0 10 79
10 216 0 173 3 218 14 230 20 19 401 21 410 2 5 -10 7 -10 12 0 7 14 64 17 64
2 0 -6 107 -10 300 -10 l300 0 0 230 c0 147 4 230 10 230 6 0 10 9 10 20 0 11
5 20 10 20 6 0 10 14 10 30 0 17 5 30 10 30 6 0 10 18 10 40 0 22 5 40 10 40
6 0 10 14 10 30 0 17 5 30 10 30 6 0 10 9 10 20 0 11 5 20 10 20 6 0 10 18 10
40 0 22 5 40 10 40 6 0 10 9 10 20 0 11 5 20 10 20 6 0 10 9 10 20 0 11 5 20
10 20 6 0 10 8 10 18 0 10 9 24 20 32 11 8 20 22 20 32 0 10 5 18 10 18 6 0
10 8 10 18 0 10 9 24 20 32 11 8 20 22 20 32 0 10 5 18 10 18 6 0 10 14 10 30
0 17 -4 30 -10 30 -5 0 -10 -4 -10 -10 0 -6 -43 -10 -110 -10 -67 0 -110 4
-110 10 0 6 -9 10 -20 10 -11 0 -20 -4 -20 -10 0 -5 -13 -10 -30 -10 -16 0
-30 5 -30 10 0 6 -27 10 -60 10 -33 0 -60 -4 -60 -10 0 -6 -45 -10 -116 -10
-140 0 -144 2 -144 94 l0 66 30 0 c17 0 30 -4 30 -10 0 -6 30 -10 70 -10 40 0
70 -4 70 -10 0 -5 9 -10 20 -10 11 0 20 5 20 10 0 6 33 10 80 10 47 0 80 4 80
10 0 6 9 10 20 10 11 0 20 -4 20 -10 0 -6 36 -10 89 -10 62 0 91 -4 95 -12 5
-10 7 -10 12 0 4 8 32 12 91 12 93 0 113 10 113 54 0 19 5 26 20 26 13 0 20 7
20 20 0 11 5 20 10 20 6 0 10 14 10 30 0 17 5 30 10 30 6 0 10 9 10 20 0 11 5
20 10 20 6 0 10 23 10 50 0 28 5 50 10 50 6 0 10 27 10 60 0 33 4 60 10 60 6
0 10 33 10 80 0 47 -4 80 -10 80 -6 0 -10 37 -10 90 0 53 -4 90 -10 90 -5 0
-10 14 -10 30 0 17 -4 30 -10 30 -5 0 -10 14 -10 30 0 17 -4 30 -10 30 -5 0
-10 14 -10 30 0 17 -4 30 -10 30 -5 0 -10 8 -10 18 0 10 -9 24 -20 32 -12 8
-20 26 -20 42 0 15 -4 28 -10 28 -5 0 -10 9 -10 20 0 13 -7 20 -20 20 -11 0
-20 5 -20 10 0 6 -83 10 -230 10 -147 0 -230 4 -230 10 0 6 -9 10 -20 10 -11
0 -20 -4 -20 -10 0 -5 -18 -10 -40 -10 -22 0 -40 5 -40 10 0 6 -70 10 -190 10
-120 0 -190 4 -190 10 0 6 -33 10 -80 10 -47 0 -80 4 -80 10 0 6 -9 10 -20 10
-11 0 -20 -4 -20 -10 0 -5 -9 -10 -20 -10 -11 0 -20 5 -20 10 0 6 -13 10 -30
10 -16 0 -30 -4 -30 -10 0 -6 -27 -10 -60 -10 l-60 0 0 610 c0 400 3 610 10
610 6 0 10 37 10 90 0 53 -4 90 -10 90 -5 0 -10 23 -10 50 0 28 5 50 10 50 6
0 10 67 10 180 0 113 4 180 10 180 6 0 10 32 10 75 l0 75 -290 0 -290 0 0
-135z"/>
<path d="M5820 9280 c0 -113 -4 -180 -10 -180 -7 0 -10 -150 -10 -430 0 -384
2 -430 16 -430 20 0 44 -24 44 -44 0 -9 7 -16 16 -16 20 0 44 -24 44 -44 0
-12 11 -16 50 -16 28 0 50 5 50 10 0 6 9 10 20 10 11 0 20 -4 20 -10 0 -6 77
-10 210 -10 133 0 210 -4 210 -10 0 -5 18 -10 40 -10 22 0 40 5 40 10 0 15 77
12 84 -2 5 -10 7 -10 12 0 7 14 84 17 84 2 0 -6 27 -10 60 -10 33 0 60 -4 60
-10 0 -6 60 -10 160 -10 100 0 160 -4 160 -10 0 -6 50 -10 130 -10 l130 0 0
290 c0 187 4 290 10 290 6 0 10 103 10 290 0 187 4 290 10 290 6 0 10 9 10 20
0 11 5 20 10 20 6 0 10 30 10 70 l0 70 -110 0 c-67 0 -110 4 -110 10 0 6 -126
10 -359 10 -278 0 -361 3 -365 13 -5 10 -7 10 -12 0 -7 -15 -84 -18 -84 -3 0
6 -70 10 -190 10 -120 0 -190 4 -190 10 0 6 -50 10 -130 10 l-130 0 0 -180z"/>
<path d="M13440 9190 c0 -67 4 -110 10 -110 6 0 10 -13 10 -30 0 -16 -4 -30
-10 -30 -7 0 -10 -173 -10 -500 l0 -500 230 0 c147 0 230 -4 230 -10 0 -7 193
-10 560 -10 367 0 560 -3 560 -10 0 -5 14 -10 30 -10 l30 0 0 310 c0 200 4
310 10 310 6 0 10 63 10 169 0 126 3 171 13 175 10 5 10 7 0 12 -15 7 -17 44
-3 44 6 0 10 37 10 90 0 53 4 90 10 90 15 0 12 29 -4 46 -12 12 -74 14 -360
14 -224 0 -346 4 -346 10 0 6 -97 10 -270 10 -173 0 -270 4 -270 10 0 6 -22
10 -50 10 -27 0 -50 5 -50 10 0 6 -18 10 -40 10 -22 0 -40 -4 -40 -10 0 -5 -9
-10 -20 -10 -11 0 -20 5 -20 10 0 6 -43 10 -110 10 l-110 0 0 -110z"/>
<path d="M10820 8440 c0 -11 -4 -20 -10 -20 -5 0 -10 -9 -10 -20 0 -11 -4 -20
-10 -20 -5 0 -10 -9 -10 -20 0 -11 -4 -20 -10 -20 -5 0 -10 -8 -10 -18 0 -10
-9 -24 -20 -32 -11 -8 -20 -21 -20 -30 0 -9 -9 -22 -20 -30 -11 -8 -20 -22
-20 -32 0 -10 -4 -18 -10 -18 -5 0 -10 -18 -10 -40 0 -22 -4 -40 -10 -40 -20
0 -9 -33 20 -60 17 -15 30 -35 30 -44 0 -9 5 -16 10 -16 6 0 10 -9 10 -20 0
-12 7 -20 16 -20 18 0 44 -23 44 -40 0 -17 26 -40 44 -40 9 0 16 -8 16 -20 0
-11 5 -20 10 -20 6 0 10 -97 10 -270 0 -173 -4 -270 -10 -270 -6 0 -10 -27
-10 -60 l0 -60 180 0 c113 0 180 -4 180 -10 0 -5 9 -10 20 -10 11 0 20 5 20
10 0 6 9 10 20 10 11 0 20 -4 20 -10 0 -6 67 -10 180 -10 113 0 180 -4 180
-10 0 -6 73 -10 200 -10 127 0 200 -4 200 -10 0 -6 83 -10 230 -10 l230 0 0
70 c0 40 -4 70 -10 70 -5 0 -10 9 -10 20 0 11 5 20 10 20 6 0 10 113 10 318 0
306 -1 318 -20 332 -11 8 -20 21 -20 30 0 9 -9 22 -20 30 -11 8 -20 21 -20 30
0 9 -9 22 -20 30 -11 8 -20 22 -20 32 0 11 -7 18 -20 18 -11 0 -20 7 -20 15 0
10 -10 15 -30 15 l-30 0 0 145 0 145 -160 0 c-100 0 -160 4 -160 10 0 6 -56
10 -149 10 -110 0 -151 3 -155 13 -5 10 -7 10 -12 0 -7 -15 -84 -18 -84 -3 0
6 -13 10 -30 10 -16 0 -30 -4 -30 -10 0 -5 -9 -10 -20 -10 -11 0 -20 5 -20 10
0 6 -113 10 -320 10 -313 0 -320 0 -320 -20z"/>
<path d="M8273 8085 c-7 -8 -13 -39 -13 -69 0 -34 -5 -57 -12 -60 -10 -5 -10
-7 0 -12 14 -7 16 -44 2 -44 -5 0 -10 -9 -10 -20 0 -17 7 -20 39 -20 22 0 42
-6 45 -12 5 -10 7 -10 12 0 4 8 31 12 85 12 l79 0 0 100 c0 60 4 100 10 100 6
0 10 5 10 10 0 6 -43 10 -110 10 -67 0 -110 4 -110 10 0 14 -13 12 -27 -5z"/>
<path d="M9340 8050 c0 -5 -7 -10 -16 -10 -8 0 -22 -6 -30 -14 -8 -8 -14 -22
-14 -30 0 -9 -7 -16 -16 -16 -18 0 -44 -23 -44 -40 0 -17 -26 -40 -44 -40 -12
0 -16 -11 -16 -50 0 -27 -4 -50 -10 -50 -6 0 -10 -37 -10 -90 0 -53 -4 -90
-10 -90 -6 0 -10 -47 -10 -120 0 -73 -4 -120 -10 -120 -6 0 -10 -65 -10 -176
0 -139 -3 -178 -14 -190 -12 -11 -50 -14 -180 -14 l-166 0 0 -70 c0 -40 4 -70
10 -70 6 0 10 -8 10 -18 0 -10 9 -24 20 -32 11 -8 20 -26 20 -40 0 -14 9 -32
20 -40 11 -8 20 -22 20 -32 0 -10 5 -18 10 -18 6 0 10 -18 10 -40 0 -22 5 -40
10 -40 6 0 10 -33 10 -80 0 -47 -4 -80 -10 -80 -5 0 -10 -18 -10 -40 0 -22 -4
-40 -10 -40 -5 0 -10 -13 -10 -30 0 -16 -4 -30 -10 -30 -5 0 -10 -13 -10 -30
0 -16 -4 -30 -10 -30 -5 0 -10 -13 -10 -30 0 -16 -4 -30 -10 -30 -5 0 -10 -13
-10 -28 0 -16 -8 -34 -20 -42 -15 -11 -20 -26 -20 -62 0 -26 -4 -48 -10 -48
-5 0 -10 -18 -10 -40 l0 -40 60 0 c33 0 60 4 60 10 0 6 30 10 70 10 40 0 70
-4 70 -10 0 -5 14 -10 30 -10 l30 0 0 -290 c0 -187 -4 -290 -10 -290 -6 0 -10
-37 -10 -90 0 -53 4 -90 10 -90 6 0 10 -9 10 -20 0 -11 -4 -20 -10 -20 -5 0
-10 -9 -10 -20 0 -11 5 -20 10 -20 6 0 10 -12 10 -26 0 -29 21 -54 44 -54 11
0 16 -9 16 -26 0 -16 12 -37 30 -54 17 -15 30 -33 30 -40 0 -7 14 -25 30 -40
18 -17 30 -38 30 -54 l0 -26 120 0 c73 0 120 -4 120 -10 0 -6 53 -10 139 -10
102 0 141 -3 145 -12 5 -10 7 -10 12 0 7 14 64 17 64 2 0 -6 100 -10 280 -10
180 0 280 -4 280 -10 0 -5 5 -10 10 -10 6 0 10 7 10 16 0 20 24 44 44 44 11 0
16 9 16 30 0 21 5 30 16 30 18 0 44 23 44 40 0 6 32 42 70 80 70 69 70 69 70
125 0 30 5 55 10 55 6 0 10 14 10 30 0 17 -4 30 -10 30 -5 0 -10 14 -10 30 0
17 5 30 10 30 6 0 10 60 10 160 0 100 4 160 10 160 7 0 10 150 10 430 0 280 3
430 10 430 6 0 10 87 10 240 0 153 4 240 10 240 6 0 10 70 10 189 0 142 3 191
13 195 10 5 10 7 0 12 -15 7 -18 104 -3 104 6 0 10 63 10 170 0 148 -2 170
-16 170 -19 0 -44 24 -44 42 0 8 -9 20 -20 28 -11 8 -20 21 -20 30 0 9 -9 22
-20 30 -11 8 -20 21 -20 30 0 9 -9 22 -20 30 -11 8 -20 20 -20 28 0 7 -11 24
-25 37 -21 22 -33 25 -100 25 -43 0 -75 4 -75 10 0 6 -57 10 -150 10 -93 0
-150 4 -150 10 0 6 -27 10 -60 10 -33 0 -60 -4 -60 -10 0 -5 -9 -10 -20 -10
-11 0 -20 5 -20 10 0 6 -87 10 -240 10 -153 0 -240 -4 -240 -10 0 -5 -18 -10
-40 -10 -22 0 -40 5 -40 10 0 6 -4 10 -10 10 -5 0 -10 -4 -10 -10z"/>
<path d="M10853 7025 c-10 -10 -13 -75 -13 -250 0 -150 -4 -235 -10 -235 -5 0
-10 -9 -10 -20 0 -11 5 -20 10 -20 6 0 10 -9 10 -20 0 -11 -4 -20 -10 -20 -5
0 -10 -13 -10 -30 0 -16 5 -30 10 -30 6 0 10 -9 10 -20 0 -11 -4 -20 -10 -20
-6 0 -10 -77 -10 -210 0 -133 -4 -210 -10 -210 -6 0 -10 -43 -10 -110 l0 -110
800 0 c527 0 800 -3 800 -10 0 -5 5 -10 10 -10 6 0 10 40 10 100 0 60 4 100
10 100 6 0 10 87 10 240 0 153 4 240 10 240 6 0 10 70 10 190 0 120 4 190 10
190 6 0 10 40 10 100 l0 100 -130 0 c-80 0 -130 4 -130 10 0 6 -70 10 -190 10
-120 0 -190 4 -190 10 0 6 -43 10 -110 10 -67 0 -110 4 -110 10 0 6 -130 10
-370 10 -240 0 -370 4 -370 10 0 14 -13 12 -27 -5z"/>
<path d="M6360 6540 c0 -113 -4 -180 -10 -180 -5 0 -10 -9 -10 -20 0 -11 5
-20 10 -20 6 0 10 -22 10 -50 0 -27 -4 -50 -10 -50 -6 0 -10 -133 -10 -380 0
-247 -4 -380 -10 -380 -6 0 -10 -83 -10 -230 l0 -230 169 0 c126 0 171 -3 175
-12 5 -10 7 -10 12 0 7 14 44 16 44 2 0 -5 14 -10 30 -10 17 0 30 5 30 10 0 6
9 10 20 10 11 0 20 -4 20 -10 0 -6 73 -10 200 -10 127 0 200 -4 200 -10 0 -6
37 -10 90 -10 83 0 90 1 90 20 0 12 7 20 16 20 22 0 44 25 44 50 0 12 14 35
30 50 17 15 30 33 30 40 0 6 6 17 13 25 10 10 15 74 20 256 10 363 9 679 -3
679 -5 0 -10 9 -10 20 0 11 -4 20 -10 20 -5 0 -10 7 -10 16 0 9 -13 29 -30 44
-16 15 -30 35 -30 44 0 9 -4 16 -10 16 -5 0 -10 9 -10 20 0 13 -7 20 -20 20
-16 0 -20 7 -20 30 0 23 -4 30 -20 30 -13 0 -20 7 -20 18 0 10 -9 24 -20 32
-11 8 -20 21 -20 30 0 9 -9 22 -20 30 -11 8 -20 21 -20 28 0 8 -13 27 -30 42
-16 15 -30 34 -30 42 0 7 -9 20 -20 28 -11 8 -20 22 -20 32 0 10 -4 18 -10 18
-5 0 -10 9 -10 20 0 19 -7 20 -130 20 -80 0 -130 4 -130 10 0 6 -13 10 -30 10
-16 0 -30 -4 -30 -10 0 -5 -9 -10 -20 -10 -11 0 -20 5 -20 10 0 6 -80 10 -220
10 l-220 0 0 -180z"/>
<path d="M10793 5585 c-15 -17 -17 -45 -3 -45 6 0 10 -18 10 -40 0 -22 -4 -40
-10 -40 -6 0 -10 -87 -10 -240 0 -153 -4 -240 -10 -240 -5 0 -10 -13 -10 -30
0 -23 -4 -30 -20 -30 -16 0 -20 -7 -20 -30 0 -21 -5 -30 -16 -30 -20 0 -44
-24 -44 -44 0 -9 -7 -16 -16 -16 -18 0 -44 -23 -44 -40 0 -6 -23 -34 -51 -61
l-51 -50 21 -18 c12 -10 21 -30 21 -45 0 -14 5 -26 10 -26 6 0 10 -9 10 -20 0
-13 7 -20 20 -20 16 0 20 -7 20 -30 0 -16 5 -30 10 -30 6 0 10 -9 10 -20 0
-11 5 -20 10 -20 6 0 10 -9 10 -20 0 -11 5 -20 10 -20 6 0 10 -9 10 -20 0 -19
7 -20 250 -20 160 0 250 -4 250 -10 0 -5 9 -10 20 -10 11 0 20 5 20 10 0 6 14
10 30 10 17 0 30 -4 30 -10 0 -6 60 -10 160 -10 100 0 160 -4 160 -10 0 -6 83
-10 230 -10 147 0 230 -4 230 -10 0 -5 23 -10 50 -10 l50 0 0 140 0 140 26 0
c17 0 39 14 64 40 21 22 46 40 54 40 9 0 16 8 16 20 0 11 5 20 10 20 6 0 10 7
10 16 0 9 14 29 30 44 17 15 30 35 30 44 0 9 5 16 10 16 6 0 10 30 10 70 0 40
4 70 10 70 6 0 10 77 10 210 0 133 4 210 10 210 6 0 10 43 10 110 l0 110 -329
0 c-254 0 -331 3 -335 13 -5 10 -7 10 -12 0 -3 -8 -25 -13 -54 -13 -29 0 -51
5 -54 13 -5 10 -7 10 -12 0 -3 -7 -14 -13 -24 -13 -10 0 -21 6 -24 13 -5 10
-7 10 -12 0 -7 -15 -44 -17 -44 -3 0 6 -18 10 -40 10 -22 0 -40 -4 -40 -10 0
-5 -9 -10 -20 -10 -11 0 -20 5 -20 10 0 6 -18 10 -40 10 -22 0 -40 -4 -40 -10
0 -5 -18 -10 -40 -10 -22 0 -40 5 -40 10 0 6 -82 10 -227 10 -184 -1 -230 -3
-240 -15z"/>
<path d="M13400 5350 c0 -5 -9 -10 -20 -10 -19 0 -20 -7 -20 -140 l0 -140 379
0 c294 0 381 -3 385 -12 5 -10 7 -10 12 0 7 14 64 17 64 2 0 -16 129 -12 146
4 11 11 14 46 14 150 l0 136 -429 0 c-334 0 -431 3 -435 13 -5 10 -7 10 -12 0
-7 -15 -44 -17 -44 -3 0 6 -9 10 -20 10 -11 0 -20 -4 -20 -10z"/>
<path d="M13360 4760 c0 -113 -4 -180 -10 -180 -6 0 -10 -57 -10 -150 0 -93
-4 -150 -10 -150 -6 0 -10 -40 -10 -100 0 -60 -4 -100 -10 -100 -6 0 -10 -77
-10 -210 0 -180 -2 -210 -15 -210 -12 0 -15 -19 -15 -110 l0 -110 144 0 c106
0 146 -3 150 -12 5 -10 7 -10 12 0 7 14 44 16 44 2 0 -5 18 -10 40 -10 22 0
40 5 40 10 0 14 37 12 44 -2 5 -10 7 -10 12 0 3 6 14 12 24 12 10 0 21 -6 24
-12 5 -10 7 -10 12 0 4 8 29 12 74 12 45 0 70 -4 74 -12 5 -10 7 -10 12 0 7
14 44 16 44 2 0 -6 43 -10 110 -10 67 0 110 4 110 10 0 6 23 10 50 10 28 0 50
-4 50 -10 0 -6 106 -10 299 -10 229 0 300 -3 303 -12 3 -9 9 -8 21 4 15 15 17
54 17 382 0 237 4 366 10 366 6 0 10 90 10 250 0 160 4 250 10 250 6 0 10 18
10 40 0 22 -4 40 -10 40 -5 0 -10 8 -10 18 0 10 -9 24 -20 32 -12 8 -20 26
-20 42 0 20 -5 28 -18 28 -10 0 -24 9 -32 20 -15 21 -50 28 -50 10 0 -5 -13
-10 -30 -10 -16 0 -30 5 -30 10 0 6 -70 10 -190 10 -120 0 -190 4 -190 10 0 7
-140 10 -400 10 -260 0 -400 4 -400 10 0 6 -50 10 -130 10 l-130 0 0 -180z"/>
<path d="M8960 4890 c0 -5 -9 -10 -20 -10 -11 0 -20 -4 -20 -10 0 -5 -7 -10
-16 -10 -8 0 -22 -6 -30 -14 -8 -8 -14 -22 -14 -30 0 -9 -7 -16 -16 -16 -20 0
-44 -24 -44 -44 0 -9 -7 -16 -16 -16 -18 0 -44 -23 -44 -40 0 -16 -47 -60 -65
-60 -8 0 -15 -4 -15 -10 0 -6 -27 -10 -60 -10 -33 0 -60 4 -60 10 0 6 -47 10
-120 10 -73 0 -120 4 -120 10 0 6 -22 10 -50 10 -27 0 -50 -4 -50 -10 0 -6
-27 -10 -60 -10 l-60 0 0 -380 c0 -247 -4 -380 -10 -380 -6 0 -10 -123 -10
-349 0 -270 -3 -351 -12 -355 -10 -5 -10 -7 0 -12 14 -7 16 -44 2 -44 -16 0
-13 -149 4 -166 12 -11 58 -14 240 -14 144 0 226 -4 226 -10 0 -6 80 -10 220
-10 140 0 220 -4 220 -10 0 -6 40 -10 100 -10 l100 0 0 70 c0 40 4 70 10 70 6
0 10 9 10 20 0 11 -4 20 -10 20 -5 0 -10 14 -10 30 0 17 5 30 10 30 6 0 10 87
10 240 0 153 4 240 10 240 6 0 10 23 10 50 0 28 -4 50 -10 50 -14 0 -12 37 3
44 10 5 10 7 0 12 -15 7 -17 44 -3 44 7 0 10 143 10 410 0 366 -2 410 -16 410
-20 0 -44 24 -44 44 0 9 -4 16 -10 16 -5 0 -10 9 -10 20 0 13 -7 20 -20 20
-16 0 -20 7 -20 30 0 23 -4 30 -20 30 -13 0 -20 7 -20 20 0 11 -4 20 -10 20
-5 0 -10 7 -10 16 0 8 -6 22 -14 30 -17 16 -46 19 -46 4z"/>
<path d="M6040 4870 c0 -5 -18 -10 -40 -10 l-40 0 0 -60 c0 -33 -4 -60 -10
-60 -6 0 -10 -97 -10 -270 0 -173 -4 -270 -10 -270 -7 0 -10 -147 -10 -420 0
-273 -3 -420 -10 -420 -5 0 -10 -4 -10 -10 0 -6 30 -10 70 -10 40 0 70 -4 70
-10 0 -7 203 -10 590 -10 387 0 590 -3 590 -10 0 -16 70 -12 87 5 12 13 17 52
22 190 3 96 3 175 -1 175 -5 0 -8 9 -8 20 0 11 5 20 10 20 7 0 10 186 10 539
0 421 3 540 12 543 9 3 8 9 -4 21 -13 13 -36 17 -102 17 -51 0 -86 4 -86 10 0
6 -9 10 -20 10 -11 0 -20 -4 -20 -10 0 -5 -18 -10 -40 -10 -22 0 -40 5 -40 10
0 7 -153 10 -440 10 -287 0 -440 3 -440 10 0 6 -27 10 -60 10 -33 0 -60 -4
-60 -10z"/>
<path d="M9320 4500 c0 -60 -4 -100 -10 -100 -6 0 -10 -127 -10 -360 0 -233
-4 -360 -10 -360 -6 0 -10 -129 -10 -366 0 -303 2 -368 14 -380 10 -9 37 -14
79 -14 43 0 67 -4 71 -12 5 -10 7 -10 12 0 7 14 64 17 64 2 0 -7 180 -10 520
-10 340 0 520 3 520 10 0 6 -4 10 -10 10 -14 0 -12 37 3 44 10 5 10 7 0 12
-15 7 -18 104 -3 104 6 0 10 60 10 160 0 100 4 160 10 160 7 0 10 153 10 438
0 426 -1 438 -20 452 -11 8 -20 22 -20 32 0 10 -4 18 -10 18 -5 0 -10 9 -10
20 0 11 -4 20 -10 20 -5 0 -10 8 -10 18 0 10 -9 24 -20 32 -12 8 -20 26 -20
42 0 15 -4 28 -10 28 -5 0 -10 12 -10 26 0 52 -8 54 -274 54 -157 0 -246 4
-246 10 0 6 -107 10 -300 10 l-300 0 0 -100z"/>
<path d="M10720 4181 c0 -11 -6 -22 -12 -25 -10 -5 -10 -7 0 -12 14 -7 17 -84
2 -84 -6 0 -10 -90 -10 -249 0 -190 -3 -251 -12 -255 -10 -5 -10 -7 0 -12 14
-7 16 -44 2 -44 -6 0 -10 -43 -10 -110 0 -67 -4 -110 -10 -110 -6 0 -10 -92
-10 -256 0 -284 0 -284 -64 -284 -29 0 -36 4 -36 19 0 24 -19 31 -85 31 -34 0
-59 -5 -69 -15 -12 -13 -57 -15 -279 -15 -156 0 -267 4 -269 9 -2 6 -198 12
-483 15 -548 6 -835 15 -835 28 0 4 -9 8 -20 8 -11 0 -20 -4 -20 -10 0 -5 -9
-10 -20 -10 -11 0 -20 5 -20 10 0 6 -93 10 -260 10 -167 0 -260 4 -260 10 0 6
-93 10 -260 10 l-260 0 0 -36 c0 -19 -7 -42 -15 -50 -11 -12 -15 -40 -15 -115
0 -59 -4 -99 -10 -99 -5 0 -10 -9 -10 -20 0 -18 -7 -20 -63 -20 -51 0 -65 -4
-77 -20 -8 -11 -22 -20 -32 -20 -10 0 -18 -7 -18 -16 0 -9 -14 -29 -31 -45
l-31 -29 31 -29 c17 -16 31 -34 31 -41 0 -7 14 -25 30 -40 17 -15 30 -35 30
-44 0 -9 7 -16 16 -16 20 0 44 -24 44 -44 0 -13 12 -16 60 -16 33 0 60 -4 60
-10 0 -6 116 -10 329 -10 254 0 331 -3 335 -12 5 -10 7 -10 12 0 7 14 44 16
44 2 0 -6 27 -10 60 -10 33 0 60 3 60 8 0 9 915 7 1270 -3 173 -5 268 -12 273
-19 6 -8 10 -7 14 2 6 14 83 17 83 2 0 -6 50 -10 130 -10 80 0 130 4 130 10 0
6 14 10 30 10 17 0 30 -4 30 -10 0 -7 160 -10 460 -10 300 0 460 -3 460 -10 0
-6 43 -10 110 -10 67 0 110 4 110 10 0 6 9 10 20 10 11 0 20 -5 20 -11 0 -9
141 -10 540 -4 l540 7 0 -26 c0 -22 4 -26 30 -26 17 0 30 5 30 10 0 21 32 9
65 -25 34 -34 35 -36 35 -120 0 -50 -4 -85 -10 -85 -5 0 -10 -7 -10 -15 0 -12
19 -15 109 -15 59 0 136 -3 170 -6 42 -5 61 -3 61 4 0 7 16 36 35 66 19 30 46
86 60 123 16 44 35 77 55 93 30 24 40 50 20 50 -5 0 -10 14 -10 30 0 17 5 30
10 30 6 0 10 110 10 310 0 200 4 310 10 310 6 0 10 9 10 20 0 11 -4 20 -10 20
-5 0 -10 23 -10 50 0 28 5 50 10 50 6 0 10 47 10 120 0 100 3 120 15 120 13 0
15 27 15 180 l0 180 -303 0 c-291 0 -303 -1 -317 -20 -9 -13 -26 -20 -48 -20
-63 0 -62 -4 -62 344 l0 316 -209 0 c-158 0 -211 3 -215 13 -5 10 -7 10 -12 0
-7 -15 -104 -18 -104 -3 0 6 -37 10 -90 10 l-90 0 0 -50 c0 -27 -4 -50 -10
-50 -6 0 -10 -27 -10 -60 0 -33 -4 -60 -10 -60 -5 0 -10 -9 -10 -20 0 -16 -7
-20 -36 -20 -19 0 -42 6 -50 14 -16 17 -20 126 -4 126 6 0 10 30 10 70 0 40 4
70 10 70 6 0 10 5 10 10 0 7 -160 10 -460 10 -447 0 -460 -1 -460 -19z"/>
<path d="M13273 3180 c3 -69 1 -120 -4 -120 -5 0 -9 -75 -9 -169 0 -126 -3
-171 -12 -175 -10 -5 -10 -7 0 -12 14 -7 16 -44 2 -44 -5 0 -10 -9 -10 -20 0
-11 5 -20 10 -20 6 0 10 -9 10 -20 0 -11 -4 -20 -10 -20 -6 0 -10 -93 -10
-260 l0 -260 310 0 c200 0 310 -4 310 -10 0 -6 83 -10 230 -10 147 0 230 -4
230 -10 0 -5 9 -10 20 -10 11 0 20 5 20 10 0 6 18 10 40 10 22 0 40 -4 40 -10
0 -6 90 -10 250 -10 l250 0 0 310 c0 200 4 310 10 310 6 0 10 110 10 309 0
237 3 310 12 313 9 3 8 9 -4 21 -15 16 -85 17 -859 17 l-842 0 6 -120z"/>
<path d="M6000 3210 c0 -5 -22 -10 -50 -10 l-50 0 0 -150 c0 -143 1 -150 20
-150 16 0 20 -7 20 -30 0 -16 5 -30 10 -30 6 0 10 -13 10 -28 0 -16 8 -34 20
-42 23 -17 26 -55 6 -76 -20 -20 -46 -18 -46 4 0 10 -9 24 -20 32 -16 12 -20
26 -20 72 0 32 -4 58 -10 58 -6 0 -10 -70 -10 -190 l0 -190 240 0 c153 0 240
-4 240 -10 0 -5 23 -10 50 -10 28 0 50 5 50 10 0 6 18 10 40 10 22 0 40 -4 40
-10 0 -6 80 -10 220 -10 140 0 220 -4 220 -10 0 -27 38 -3 110 70 l79 80 59 0
59 0 6 137 c4 75 7 201 7 280 0 89 4 143 10 143 6 0 10 5 10 10 0 6 -87 10
-240 10 -153 0 -240 -4 -240 -10 0 -5 -7 -10 -16 -10 -8 0 -22 -7 -31 -15 -14
-14 -13 -18 6 -34 22 -19 29 -51 11 -51 -5 0 -10 -18 -10 -40 0 -22 5 -40 10
-40 6 0 10 -9 10 -20 0 -17 -7 -20 -40 -20 l-40 0 0 120 0 120 -50 0 c-27 0
-50 5 -50 10 0 6 -110 10 -310 10 -200 0 -310 4 -310 10 0 6 -4 10 -10 10 -5
0 -10 -4 -10 -10z"/>
<path d="M7413 1985 c-9 -10 -13 -57 -13 -160 0 -90 -4 -145 -10 -145 -6 0
-10 -77 -10 -210 0 -133 -4 -210 -10 -210 -5 0 -10 -9 -10 -20 0 -11 5 -20 10
-20 6 0 10 -9 10 -20 0 -11 -4 -20 -10 -20 -6 0 -10 -120 -10 -339 0 -262 -3
-341 -12 -345 -10 -5 -10 -7 0 -12 14 -7 16 -44 2 -44 -6 0 -10 -40 -10 -100
l0 -100 50 0 c28 0 50 -4 50 -10 0 -5 9 -10 20 -10 11 0 20 5 20 10 0 6 9 10
20 10 11 0 20 -4 20 -10 0 -6 77 -10 210 -10 133 0 210 -4 210 -10 0 -7 143
-10 410 -10 267 0 410 3 410 10 0 6 -4 10 -10 10 -5 0 -10 9 -10 20 0 11 5 20
10 20 6 0 10 9 10 20 0 11 -4 20 -10 20 -5 0 -10 9 -10 20 0 11 5 20 10 20 6
0 10 14 10 30 0 17 -4 30 -10 30 -5 0 -10 9 -10 20 0 11 5 20 10 20 6 0 10 87
10 240 0 153 4 240 10 240 7 0 10 143 10 410 0 267 3 410 10 410 6 0 10 9 10
20 0 11 -4 20 -10 20 -5 0 -10 23 -10 50 0 28 5 50 10 50 6 0 10 23 10 50 l0
50 -122 2 c-68 0 -347 0 -620 -2 -364 -2 -498 1 -498 9 0 17 -132 14 -147 -4z"/>
<path d="M8920 1897 c0 -58 -4 -97 -10 -97 -6 0 -10 -90 -10 -250 0 -160 -4
-250 -10 -250 -6 0 -10 -87 -10 -240 0 -153 -4 -240 -10 -240 -6 0 -10 -110
-10 -310 l0 -310 210 0 c133 0 210 -4 210 -10 0 -5 18 -10 40 -10 38 0 40 2
40 30 0 17 -4 30 -10 30 -5 0 -10 18 -10 40 0 22 5 40 10 40 6 0 10 14 10 30
0 17 -4 30 -10 30 -5 0 -10 9 -10 20 0 11 5 20 10 20 6 0 10 117 10 330 0 213
4 330 10 330 7 0 10 157 10 450 l0 450 -123 0 c-68 0 -172 3 -230 7 l-107 6 0
-96z"/>
<path d="M9520 1890 c0 -53 -4 -90 -10 -90 -6 0 -10 -56 -10 -149 0 -110 -3
-151 -12 -155 -10 -5 -10 -7 0 -12 14 -7 17 -104 2 -104 -5 0 -10 -18 -10 -40
0 -22 5 -40 10 -40 6 0 10 -9 10 -20 0 -11 -4 -20 -10 -20 -6 0 -10 -57 -10
-150 0 -93 -4 -150 -10 -150 -6 0 -10 -132 -10 -376 0 -337 2 -377 17 -392 12
-12 18 -13 21 -4 4 14 62 17 62 2 0 -6 70 -10 189 -10 142 0 191 -3 195 -12 5
-11 7 -11 12 0 7 14 64 17 64 2 0 -5 14 -10 30 -10 17 0 30 5 30 10 0 15 97
12 104 -2 5 -11 7 -11 12 0 3 6 14 12 24 12 10 0 21 -6 24 -12 5 -11 7 -11 12
0 7 14 44 16 44 2 0 -7 157 -10 450 -10 293 0 450 -3 450 -10 0 -6 133 -10
380 -10 l380 0 0 30 c0 17 -4 30 -10 30 -6 0 -10 60 -10 160 0 100 4 160 10
160 7 0 10 237 10 690 0 453 3 690 10 690 6 0 10 5 10 10 0 6 -70 10 -190 10
-120 0 -190 4 -190 10 0 6 -13 10 -30 10 -16 0 -30 -4 -30 -10 0 -15 -57 -12
-64 3 -5 10 -7 10 -12 0 -7 -16 -164 -18 -164 -3 0 6 -130 10 -370 10 -240 0
-370 4 -370 10 0 6 -13 10 -30 10 -16 0 -30 -4 -30 -10 0 -15 -77 -12 -84 3
-5 10 -7 10 -12 0 -7 -15 -44 -17 -44 -3 0 6 -67 10 -180 10 -113 0 -180 -4
-180 -10 0 -5 -9 -10 -20 -10 -11 0 -20 5 -20 10 0 6 -13 10 -30 10 -16 0 -30
5 -30 10 0 6 -70 10 -190 10 l-190 0 0 -90z"/>
<path d="M12093 1925 c-7 -8 -13 -26 -13 -40 0 -14 -4 -25 -10 -25 -6 0 -10
-137 -10 -390 0 -253 -4 -390 -10 -390 -5 0 -10 -9 -10 -20 0 -11 5 -20 10
-20 6 0 10 -9 10 -20 0 -11 -4 -20 -10 -20 -7 0 -10 -150 -10 -430 l0 -430 29
0 c16 0 32 -6 35 -12 5 -11 7 -11 12 0 7 14 44 16 44 2 0 -6 53 -10 140 -10
l140 0 0 189 c0 142 3 191 13 195 10 5 10 7 0 12 -15 7 -17 44 -3 44 6 0 10
43 10 110 0 67 4 110 10 110 6 0 10 9 10 20 0 11 -4 20 -10 20 -5 0 -10 14
-10 30 0 17 5 30 10 30 6 0 10 43 10 110 0 67 4 110 10 110 6 0 10 123 10 350
0 227 4 350 10 350 16 0 12 89 -4 106 -17 16 -46 19 -46 4 0 -5 -18 -10 -40
-10 -22 0 -40 5 -40 10 0 6 -18 10 -40 10 -22 0 -40 5 -40 10 0 17 -193 12
-207 -5z"/>
<path d="M13185 1899 c-7 -43 -58 -163 -81 -189 -13 -16 -8 -70 7 -70 5 0 9
-17 9 -38 0 -26 6 -42 20 -52 11 -8 20 -22 20 -32 0 -10 5 -18 10 -18 6 0 10
-7 10 -16 0 -35 26 -44 124 -44 57 0 96 -4 96 -10 0 -5 9 -10 20 -10 11 0 20
5 20 10 0 6 9 10 20 10 11 0 20 -4 20 -10 0 -5 23 -10 50 -10 28 0 50 -4 50
-10 0 -5 14 -10 30 -10 29 0 30 -1 30 -50 0 -27 -4 -50 -10 -50 -6 0 -10 -140
-10 -400 0 -260 -3 -400 -10 -400 -5 0 -10 -9 -10 -20 0 -11 5 -20 10 -20 14
0 12 -37 -2 -44 -10 -5 -10 -7 0 -12 14 -7 17 -64 2 -64 -5 0 -10 -9 -10 -20
0 -11 5 -20 10 -20 6 0 10 -33 10 -80 l0 -80 199 0 c150 0 201 -3 205 -12 5
-11 7 -11 12 0 7 15 144 17 144 2 0 -5 9 -10 20 -10 11 0 20 5 20 10 0 6 14
10 30 10 17 0 30 -4 30 -10 0 -6 33 -10 79 -10 54 0 81 -4 85 -12 5 -10 7 -10
12 0 3 6 12 12 20 12 20 0 64 45 64 65 0 8 9 15 20 15 11 0 20 7 20 15 0 20
45 65 65 65 8 0 15 7 15 16 0 9 14 29 30 44 17 15 30 33 30 39 0 7 41 52 90
101 l90 89 0 486 c0 317 3 485 10 485 6 0 10 67 10 180 l0 180 -119 0 c-86 0
-121 4 -125 13 -5 10 -7 10 -12 0 -7 -15 -84 -18 -84 -3 0 6 -9 10 -20 10 -11
0 -20 -4 -20 -10 0 -6 -27 -10 -60 -10 -33 0 -60 4 -60 10 0 7 -150 10 -430
10 -280 0 -430 3 -430 10 0 6 -68 10 -184 10 l-184 0 -7 -41z"/>
<path d="M12620 1575 c0 -57 -4 -95 -10 -95 -6 0 -10 -63 -10 -170 0 -107 -4
-170 -10 -170 -6 0 -10 -137 -10 -390 0 -253 -4 -390 -10 -390 -6 0 -10 -37
-10 -90 0 -53 4 -90 10 -90 6 0 10 5 10 10 0 6 14 10 30 10 17 0 30 -4 30 -10
0 -6 53 -10 140 -10 87 0 140 -4 140 -10 0 -6 50 -10 129 -10 94 0 131 -3 135
-12 5 -11 7 -11 12 0 7 14 44 16 44 2 0 -6 53 -10 140 -10 l140 0 0 580 0 580
-190 0 c-120 0 -190 4 -190 10 0 6 -9 10 -20 10 -15 0 -20 7 -20 28 0 16 -8
34 -20 42 -11 8 -20 22 -20 32 0 10 -4 18 -10 18 -5 0 -10 18 -10 40 0 22 -4
40 -10 40 -5 0 -10 9 -10 20 0 11 -4 20 -10 20 -5 0 -10 7 -10 16 0 20 -24 44
-43 44 -9 0 -18 6 -21 13 -5 10 -7 10 -12 0 -3 -7 -14 -13 -24 -13 -10 0 -21
6 -24 13 -5 10 -7 10 -12 0 -10 -23 -73 -15 -100 12 -21 21 -34 25 -84 25
l-60 0 0 -95z"/>
</g>
</svg>
